<?xml version="1.0" encoding="UTF-8"?>
<svg id="Layer_1" data-name="Layer 1" xmlns="http://www.w3.org/2000/svg" viewBox="0 0 1200 900">
  <defs>
    <style>
      .cls-1 {
        stroke: #113b54;
      }

      .cls-1, .cls-2, .cls-3 {
        fill: none;
        stroke-miterlimit: 10;
      }

      .cls-4 {
        fill: #ee8c5f;
      }

      .cls-5 {
        fill: #164969;
      }

      .cls-6 {
        fill: #e67950;
      }

      .cls-7 {
        fill: #7fbbc9;
      }

      .cls-2 {
        stroke: #1f1f1f;
        stroke-width: .75px;
      }

      .cls-8 {
        fill: #e8a235;
      }

      .cls-9 {
        fill: #8ee4ff;
      }

      .cls-10 {
        fill: #fff;
      }

      .cls-3 {
        stroke: #fff;
        stroke-width: .5px;
      }

      .cls-11 {
        fill: #00a2dd;
      }

      .cls-12 {
        fill: #e8f8ff;
      }

      .cls-13 {
        fill: #1f1f1f;
      }

      .cls-14 {
        fill: #282828;
      }

      .cls-15 {
        fill: #f64651;
      }

      .cls-16 {
        opacity: .1;
      }

      .cls-16, .cls-17 {
        fill: #e3f8ff;
      }

      .cls-18 {
        fill: #2c1817;
      }

      .cls-19 {
        fill: #113b54;
      }

      .cls-20 {
        fill: #eee;
      }

      .cls-21 {
        fill: #fcb13a;
      }

      .cls-22 {
        fill: #bedfe8;
      }

      .cls-23 {
        fill: #cf7a53;
      }
    </style>
  </defs>
  <g>
    <circle class="cls-12" cx="1090.93" cy="401.15" r="8.81"/>
    <circle class="cls-12" cx="1090.93" cy="440.16" r="8.81"/>
    <path class="cls-10" d="M1090.93,487.98c-4.86,0-8.81-3.94-8.81-8.81s3.94-8.81,8.81-8.81,8.81,3.94,8.81,8.81-3.94,8.81-8.81,8.81Z"/>
  </g>
  <rect class="cls-3" x="59.43" y="32.2" width="1082.57" height="663" rx="13.3" ry="13.3"/>
  <g>
    <g>
      <path class="cls-14" d="M912.28,81.73s39.05-92,137.04-50.6c90.23,38.12,100.17,181.23-7.85,217.02-91.08,30.18-156.83-96.19-129.2-166.42Z"/>
      <path class="cls-21" d="M883.88,78.54s74.79-16.64,119.01,38.87c47.12,59.15,47.45,135.32,15.06,158.17l-134.07-197.04Z"/>
      <g>
        <path class="cls-14" d="M823.41,447.13c-178.94-7.77-194.55-84.84-195.4-147.62-1.22-89.48,51.77-221.98,183.41-235.93,245.3-26,320.32,396.94,11.99,383.55Z"/>
        <path class="cls-4" d="M855.89,461.34h0c-23.63.98-43.36-17.85-43.48-41.5l-.14-27.39c-46.41,14.64-82.48-7.41-98.43-47.36-3.98-9.94-6.69-20.97-8.04-32.86-.14-1.45-.27-2.94-.41-4.38l-11.75-142.67,195.37-20.47,6.9,273.87c.57,22.79-17.24,41.83-40.01,42.77Z"/>
        <path class="cls-14" d="M674.11,261.12c8.45-28.49,44.91-59.23,67.79-78.18,55.47,75.66,164.26,98.29,210.39,59.61,3.33-27.49-5.9-91.24-40.01-126-45.74-46.59-126.58-44.34-164.55-25.13-80.4,40.67-84.03,143.95-73.62,169.7Z"/>
      </g>
      <path class="cls-4" d="M873.24,289.49c0,19.2,15.48,33.9,34.57,32.82,19.09-1.07,34.57-17.51,34.57-36.71s-15.48-33.9-34.57-32.82c-19.09,1.07-34.57,17.51-34.57,36.71Z"/>
      <path class="cls-2" d="M922.08,281.89c-16.73-7.45-28.18-.81-33.45,14.39"/>
      <path class="cls-13" d="M782.85,233.65c-.11,4.26,23.55,8.34,37.62,8.71,14.07.37,19-2.96,19.12-7.22.11-4.26-16.99-8.17-31.06-8.54-14.07-.37-25.56,2.79-25.68,7.05Z"/>
      <path class="cls-18" d="M784.58,285.38c-.21,8.06,2.73,14.68,6.56,14.78,3.84.1,7.12-6.35,7.33-14.41.21-8.06-2.73-14.68-6.56-14.78-3.84-.1-7.12,6.35-7.33,14.41Z"/>
      <path class="cls-13" d="M733.56,232.35c-.11,4.26-23.96,7.09-38.03,6.72-14.07-.37-18.82-3.95-18.71-8.22.11-4.26,17.4-7.27,31.47-6.9,14.07.37,25.38,4.13,25.27,8.39Z"/>
      <path class="cls-18" d="M729.11,283.92c-.21,8.06-3.49,14.51-7.33,14.41-3.84-.1-6.78-6.72-6.56-14.78.21-8.06,3.49-14.51,7.33-14.41,3.84.1,6.78,6.72,6.56,14.78Z"/>
      <path class="cls-2" d="M758.12,313.25c-2.8-.15-5.74.53-7.88,2.35-2.14,1.82-3.31,4.88-2.44,7.55,1.31,4.02,6.14,5.46,10.27,6.32"/>
      <path class="cls-23" d="M812.25,392.44s40.34-7.65,60.99-30.99c0,0,7.01,38.6-16.95,48.02-23.16,9.11-43.89,10.38-43.89,10.38l-.15-27.4Z"/>
      <path class="cls-19" d="M731.38,90.93s43.32-17.5,80.04-12.37c38.19,5.34,88.65,48.27,92.04,152.97h21.47s2.61-160.88-98.79-168.96c-72.57-5.79-94.76,28.37-94.76,28.37Z"/>
      <path class="cls-19" d="M958.66,283.74c0,35.37-24.5,64.05-54.72,64.05s-36.16-28.67-36.16-64.05,5.94-64.05,36.16-64.05,54.72,28.67,54.72,64.05Z"/>
      <path class="cls-1" d="M779.84,380.65c20.26,14.29,69.2,18.94,85.3,7.73,15.16-10.55,36.87-44.4,40.82-55.64"/>
      <path class="cls-5" d="M958.66,283.74c0,35.37-20.16,64.05-45.03,64.05s-29.75-28.67-29.75-64.05,4.88-64.05,29.75-64.05,45.03,28.67,45.03,64.05Z"/>
      <path class="cls-5" d="M789.44,380.65c0,5.3-4.3,9.6-9.6,9.6s-9.6-4.3-9.6-9.6,4.3-9.6,9.6-9.6,9.6,4.3,9.6,9.6Z"/>
      <path class="cls-20" d="M747.5,356.36h44.02s-8.39,14.69-25.9,14.69-18.12-14.69-18.12-14.69Z"/>
      <path class="cls-6" d="M729.47,329.5c0,6.82-6.37,12.74-15.64,15.59-3.98-9.94-6.69-20.97-8.04-32.86,13.42,1.36,23.68,8.59,23.68,17.26Z"/>
      <ellipse class="cls-6" cx="824.18" cy="329.47" rx="28.44" ry="17.5"/>
    </g>
    <g>
      <polygon class="cls-8" points="712.4 604.36 697.27 891.71 757.81 891.71 779.84 625.83 712.4 604.36"/>
      <path class="cls-21" d="M742.17,891.71h233.74c41.83,0,75.11-35.1,72.85-76.87-6.31-116.66-19.82-326.42-35.94-340.41-29.52-25.61-116.92-55.86-116.92-55.86l-83.05,10.12s-63.04,59.28-107.65,163.24c-8.19,19.09,16.97,73.44,36.98,101.68v198.1Z"/>
      <polygon class="cls-21" points="627.99 828.7 955.08 816.36 958.66 891.71 627.99 891.71 627.99 828.7"/>
      <path class="cls-4" d="M812.42,423.97l83.48-5.4,46.48,17.87s-35.91,63.59-89.76,63.59-70.7-36.59-70.7-36.59c0,0,16.38-24.65,30.51-39.49Z"/>
      <path class="cls-2" d="M765.58,476.66s19.05,37.98,58.6,52.67l18.72-29.28,19.13,32.39s81.28-24.76,96.63-88.9"/>
      <polyline class="cls-2" points="963.34 584.02 970.39 801.32 712.4 825.52"/>
      <polyline class="cls-2" points="1005.05 786.26 970.39 801.32 1005.05 816.36"/>
      <path class="cls-2" d="M796.24,693.03c30.09,5.96,61.5,5.19,91.26-2.23"/>
    </g>
  </g>
  <g>
    <path class="cls-17" d="M262.37,861.58l-153.88-303.49h435.24l169.16,333.61h-401.46c-20.72,0-39.68-11.65-49.06-30.13Z"/>
    <path class="cls-22" d="M685.81,838.3l-142.07-280.2h-33.78l153.88,303.49c9.37,18.48,28.33,30.13,49.06,30.13h363.92c8.32,0,15.06-6.74,15.06-15.06h0c0-8.32-6.74-15.06-15.06-15.06h-353.09c-16.01,0-30.67-9-37.91-23.28Z"/>
    <path class="cls-7" d="M975.41,881.69h-201.54c-2.81,0-5.1-2.28-5.1-5.1h0c0-2.81,2.28-5.1,5.1-5.1h201.54c2.81,0,5.1,2.28,5.1,5.1h0c0,2.81-2.28,5.1-5.1,5.1Z"/>
    <path class="cls-7" d="M1009.57,876.6c0,2.81-2.28,5.1-5.1,5.1s-5.1-2.28-5.1-5.1,2.28-5.1,5.1-5.1,5.1,2.28,5.1,5.1Z"/>
    <path class="cls-7" d="M1029.04,876.6c0,2.81-2.28,5.1-5.1,5.1s-5.1-2.28-5.1-5.1,2.28-5.1,5.1-5.1,5.1,2.28,5.1,5.1Z"/>
  </g>
  <g>
    <rect class="cls-16" x="331.2" y="249.74" width="176.56" height="176.56" rx="14" ry="14"/>
    <rect class="cls-11" x="364.54" y="216.41" width="176.56" height="176.56" rx="14" ry="14"/>
    <path class="cls-20" d="M402.97,304.75l46.32,46.32c15.82,15.82,41.55,15.82,57.37,0l5.37-5.37c3.32-3.32,3.32-8.71,0-12.03l-16.39-16.39c-1.31-1.31-3.43-1.31-4.74,0l-6.65,6.65c-1.31,1.31-1.31,3.43,0,4.74l2.16,2.16c-4.65,4.65-12.22,4.65-16.87,0l-46.32-46.32c-4.65-4.65-4.65-12.22,0-16.87l2.16,2.16c1.31,1.31,3.43,1.31,4.74,0l6.65-6.65c1.31-1.31,1.31-3.43,0-4.74l-16.39-16.39c-3.32-3.32-8.71-3.32-12.03,0l-5.37,5.37c-15.82,15.82-15.82,41.55,0,57.37Z"/>
  </g>
  <g>
    <path class="cls-10" d="M243.44,127.53h-116.04c-2.94,0-5.32-2.38-5.32-5.32h0c0-2.94,2.38-5.32,5.32-5.32h116.04c2.94,0,5.32,2.38,5.32,5.32h0c0,2.94-2.38,5.32-5.32,5.32Z"/>
    <path class="cls-10" d="M151.76,150.02h-24.36c-2.94,0-5.32-2.38-5.32-5.32h0c0-2.94,2.38-5.32,5.32-5.32h24.36c2.94,0,5.32,2.38,5.32,5.32h0c0,2.94-2.38,5.32-5.32,5.32Z"/>
    <path class="cls-10" d="M243.44,150.02h-69.85c-2.94,0-5.32-2.38-5.32-5.32h0c0-2.94,2.38-5.32,5.32-5.32h69.85c2.94,0,5.32,2.38,5.32,5.32h0c0,2.94-2.38,5.32-5.32,5.32Z"/>
    <path class="cls-10" d="M170.09,172.52h-42.7c-2.94,0-5.32-2.38-5.32-5.32h0c0-2.94,2.38-5.32,5.32-5.32h42.7c2.94,0,5.32,2.38,5.32,5.32h0c0,2.94-2.38,5.32-5.32,5.32Z"/>
  </g>
  <rect class="cls-15" x="125.08" y="444.21" width="30.19" height="30.19"/>
  <rect class="cls-9" x="553.19" y="90.24" width="36.87" height="36.87"/>
  <rect class="cls-21" x="503.26" y="127.16" width="24.44" height="24.44"/>
</svg>