<?xml version="1.0" encoding="UTF-8"?>
<svg id="Layer_1" data-name="Layer 1" xmlns="http://www.w3.org/2000/svg" viewBox="0 0 1200 900">
  <defs>
    <style>
      .cls-1 {
        fill: #66192d;
      }

      .cls-2 {
        fill: #c8c1e1;
      }

      .cls-3 {
        fill: #ff443c;
      }

      .cls-4 {
        fill: #fdad9b;
      }

      .cls-5 {
        fill: #ff8548;
      }

      .cls-6 {
        fill: #020202;
      }

      .cls-7 {
        fill: #dd8964;
      }

      .cls-8 {
        fill: #fff;
      }

      .cls-9 {
        fill: #e08b65;
      }

      .cls-10 {
        fill: #eaa678;
      }

      .cls-11 {
        fill: #552748;
      }

      .cls-12 {
        fill: #553e93;
      }

      .cls-13 {
        fill: #060633;
      }

      .cls-14 {
        opacity: .3;
      }

      .cls-15 {
        fill: #786ab5;
      }

      .cls-16 {
        fill: #ffba41;
      }

      .cls-17 {
        opacity: .5;
      }
    </style>
  </defs>
  <ellipse class="cls-2" cx="600" cy="782.26" rx="592.2" ry="64.26"/>
  <g class="cls-17">
    <path class="cls-15" d="M410.33,263.18c1.21-24.67,24.65-45.54,50.78-45.54,37.02,0,49.16,26.81,50.62,51.47,1.52,25.62-22.37,43.15-48.5,43.15s-54.41-18.43-52.91-49.08h0Z"/>
    <path class="cls-8" d="M419.52,265.76c0-19.65,20.75-40.58,41.53-41.21,30.73-.93,43.2,28.55,43.2,48.2s-21.46,31.36-42.24,31.36-42.49-18.7-42.49-38.35h0Z"/>
    <path class="cls-15" d="M456.59,265.1c.28-2.68,3.29-4.47,6.14-4.47s5.91,3.24,5.91,5.94-3.06,4.89-5.91,4.89-6.67-1.4-6.14-6.37h0Z"/>
    <g>
      <path class="cls-15" d="M462.75,267.56h1.04c.56,0,1.03-.43,1.03-.97s1.29-2.35.73-2.35l-.57-1.14-1.23-26.54,1.28.75c.32.44.97.54,1.43.25.46-.3.58-.91.26-1.35l-3.15-4.32c-.25-.35-.71-.5-1.15-.37-.42.13-.71.5-.71.93l-1.71,34.09c0,.53,2.23,1.04,2.79,1.04h-.02Z"/>
      <path class="cls-15" d="M459.2,237.44c.29,0,.59-.12.8-.35l3.89-2.64c.35-.41-.11-2.44-.55-2.77-.43-.33-1.09-.27-1.44.14l-3.48,4.04c-.36.41-.29,1.03.15,1.36.19.14.42.22.64.22Z"/>
    </g>
    <g>
      <path class="cls-15" d="M481.3,270.7c.27,0,.53-.1.74-.29l3.04-2.98c.28-.28.37-.69.2-1.05-.16-.35-.53-.58-.95-.58h0l-24.18-1.2c-.56,0-.89,1.69-.89,2.23v.98c0,.53.46.97,1.03.97s1.84.48,1.84-.05l-.82-.93,20.6-.04-1.36,1.33c-.39.38-.38,1,.02,1.37.2.18.45.27.71.27v-.02Z"/>
      <path class="cls-15" d="M484.36,267.72c.23,0,.45-.07.64-.22.44-.34.5-.95.15-1.36l-2.85-3.29c-.36-.41-1.01-.47-1.44-.14-.44.34-.5.95-.15,1.36l1.12,2.47c.2.23,2.23,1.19,2.52,1.19h.01Z"/>
    </g>
  </g>
  <g>
    <g>
      <path class="cls-15" d="M986.77,798.71c.67,0,1.36-.1,2.03-.32,3.17-1.05,4.84-4.29,3.73-7.25l-115.82-305.76c-1.12-2.96-4.6-4.51-7.78-3.46-3.17,1.05-4.84,4.29-3.73,7.25l115.81,305.76c.89,2.34,3.24,3.8,5.75,3.8h0Z"/>
      <path class="cls-15" d="M1144.19,798.71c.67,0,1.36-.1,2.03-.32,3.18-1.05,4.84-4.29,3.73-7.25l-115.82-305.76c-1.12-2.96-4.6-4.51-7.78-3.46-3.17,1.05-4.84,4.29-3.73,7.25l115.82,305.76c.89,2.34,3.24,3.8,5.75,3.8h0Z"/>
      <polygon class="cls-15" points="950.74 697.88 1108.14 697.86 1112.5 709.38 954.42 707.63 950.74 697.88"/>
      <polygon class="cls-15" points="905.89 590.24 1063.3 590.22 1067.66 601.74 909.58 599.99 905.89 590.24"/>
      <polygon class="cls-15" points="883.53 518.03 1040.93 518 1045.31 529.53 887.22 527.78 883.53 518.03"/>
      <path class="cls-15" d="M903.2,779.89c2.7,0,5.17-1.68,5.89-4.23l32.81-115.23c.87-3.03-1.08-6.14-4.33-6.95-3.25-.81-6.6,1.01-7.46,4.04l-32.81,115.23c-.87,3.03,1.08,6.14,4.33,6.95.52.13,1.05.19,1.57.19Z"/>
    </g>
    <g>
      <path class="cls-15" d="M861.96,254.84h-277.51c-11.91,0-21.58-9.67-21.58-21.58v-85.41c0-11.91,9.67-21.58,21.58-21.58h320.84c11.91,0,21.58,9.67,21.58,21.58v42.08c0,35.83-29.08,64.91-64.91,64.91h0Z"/>
      <path class="cls-11" d="M897.81,223.97c2.43,0,3.69,2.73,2.03,4.41-11.04,11.27-26.8,18.36-44.33,18.36h-221.86c-8.53,0-15.46-6.54-15.46-14.61v-5.54c0-1.45,1.24-2.63,2.78-2.63h276.83Z"/>
      <path class="cls-11" d="M623.21,210h284.29c.96,0,1.73-.74,1.73-1.64s-.78-1.64-1.73-1.64h-284.29c-.96,0-1.73.74-1.73,1.64s.78,1.64,1.73,1.64Z"/>
      <path class="cls-11" d="M623.21,197.59h284.29c.96,0,1.73-.74,1.73-1.64s-.78-1.64-1.73-1.64h-284.29c-.96,0-1.73.74-1.73,1.64s.78,1.64,1.73,1.64Z"/>
      <path class="cls-16" d="M623.21,138.07c0-2.77,2.38-5.02,5.31-5.02s5.31,2.25,5.31,5.02-2.38,5.02-5.31,5.02-5.31-2.25-5.31-5.02Z"/>
      <path class="cls-3" d="M643.82,138.07c0-2.77,2.38-5.02,5.31-5.02s5.31,2.25,5.31,5.02-2.38,5.02-5.31,5.02-5.31-2.25-5.31-5.02Z"/>
    </g>
    <g>
      <path class="cls-4" d="M1108.88,446.14h0c1.57-.12,2.95,1,3.08,2.48l1.98,22.99c.13,1.48-1.05,2.79-2.62,2.91h0c-1.57.12-2.95-1-3.08-2.48l-1.98-22.99c-.13-1.48,1.05-2.79,2.62-2.91Z"/>
      <path class="cls-4" d="M1101.58,446.69h0c1.57-.12,2.95,1,3.08,2.48l2.22,25.71c.13,1.48-1.05,2.79-2.62,2.91h0c-1.57.12-2.95-1-3.08-2.48l-2.22-25.71c-.13-1.48,1.05-2.79,2.62-2.91Z"/>
      <path class="cls-4" d="M1098.46,433.47l.85.53c1.58,1,2,3.04.95,4.53l-10.31,14.53c-1.06,1.49-3.21,1.89-4.79.9l-.85-.53c-1.58-1-2-3.04-.95-4.53l10.31-14.53c1.06-1.49,3.21-1.89,4.79-.9Z"/>
      <path class="cls-4" d="M1094.29,447.26h0c1.57-.12,2.95,1,3.08,2.48l1.77,20.6c.13,1.48-1.05,2.79-2.62,2.91h0c-1.57.12-2.95-1-3.08-2.48l-1.77-20.6c-.13-1.48,1.05-2.79,2.62-2.91Z"/>
      <path class="cls-4" d="M1112.69,432.66s9.39,12.64,6.03,23.13c-1.16,3.64-22.68,4.73-24.97,1.07-2.3-3.66-2.06-17.68-2.06-17.68l21.01-6.52h0Z"/>
      <path class="cls-4" d="M1116.12,445.55h0c1.56-.12,2.95.99,3.07,2.47l1.77,20.56c.13,1.48-1.05,2.79-2.61,2.91h0c-1.56.12-2.95-.99-3.07-2.47l-1.77-20.56c-.13-1.48,1.05-2.79,2.61-2.9h0Z"/>
    </g>
    <path class="cls-4" d="M1088.04,442.12c-11.06-28.27-29.26-68.05-53.25-97.13-5.56-6.74-7.78-9.23-11.61-12.71-3.08-2.8-1.37-11.11,3.64-16.14,4.69-4.72,13.62-6.42,15.48-5.15,3.15,2.17,7.18,6.82,13.5,14.23,21.96,25.76,40.9,61.44,58.11,109.27l-25.87,7.62h0Z"/>
    <g class="cls-17">
      <path class="cls-9" d="M1074.31,374.88c-1.57-.54-3.02-1.93-3.88-3.71-1.44-2.99-.79-6.22,1.47-7.19.86-.37,1.84-.38,2.85-.03,1.57.54,3.02,1.93,3.88,3.71,1.44,2.99.79,6.22-1.47,7.19-.44.19-.92.28-1.41.28s-.95-.08-1.44-.25h0ZM1072.41,364.99c-1.63.7-2.03,3.32-.89,5.72.73,1.51,1.92,2.68,3.2,3.12.69.24,1.36.24,1.92,0,1.63-.7,2.03-3.32.89-5.72-.73-1.51-1.92-2.68-3.2-3.12-.35-.12-.69-.18-1.02-.18s-.62.06-.91.18Z"/>
    </g>
    <path class="cls-4" d="M982.28,294.15l-3.3-13.58-.97-3.96-5.66-23.25-2.76,22.54-1.65,13.53-.52,4.28c-.35,2.91-1.18,7.02-3.67,9.4-1.01.96-8.54,3.13-2.02,6.42,8.12,4.1,24.21-.11,30.72-6.64-.05-.01-9.09-4.35-10.16-8.74h-.01Z"/>
    <path class="cls-4" d="M951.84,257.8c2.9-13.21,14.65-22.07,26.23-19.8,11.59,2.28,18.63,14.82,15.73,28.03-2.9,13.21-14.65,22.07-26.23,19.8-11.59-2.28-18.63-14.82-15.73-28.03Z"/>
    <path class="cls-1" d="M961.45,252.59c-12.26-.42-17.65-7.5-17.31-13.69.44-7.93,6.26-14.56,12.17-11.19,5.9,3.37,3.84-4.03,9.8-4.37,11.14-.65,12.63,6.91,21.62,7.9,11.86,1.31,23.97,21.02,12.91,34,0,0-29.52-12.32-39.19-12.65h0Z"/>
    <path class="cls-1" d="M951.2,243.84s12.11,12.8,9.87,19.36c-2.25,6.57-2.02,9.21,5.33,13.31,7.34,4.1.15,9.42,10.28,10.55,10.13,1.13,23.47-9.34,24.93-28,.82-10.4-4.96-17.65-4.96-17.65l-45.45,2.43Z"/>
    <path class="cls-4" d="M954.5,262.45c1.63-1.88,4.4-2.29,6.18-.91,1.77,1.38,1.89,4.03.25,5.9-1.63,1.88-4.4,2.29-6.18.91-1.77-1.38-1.89-4.03-.25-5.9Z"/>
    <path class="cls-1" d="M998.07,262.58s.07,0,.11-.02c.16-.06.25-.23.19-.38-1.06-2.67-3.95-3.83-4.07-3.87-.16-.06-.35,0-.41.16-.07.15,0,.32.17.38.03.01,2.76,1.11,3.73,3.53.05.12.17.19.29.19h0Z"/>
    <path class="cls-1" d="M993.96,257.45h.06s3.76-.76,3.89-3.69c0-.16-.13-.3-.3-.31-.17,0-.32.12-.33.28-.11,2.47-3.35,3.12-3.38,3.13-.17.03-.28.19-.24.35.03.14.16.23.31.23h0Z"/>
    <path class="cls-1" d="M958.35,227.38c.34,0,.66-.08.98-.25,1.72-.92,2.32-4.12,2.35-4.26.03-.16-.09-.31-.26-.34s-.33.08-.36.24c0,.03-.57,3.06-2.03,3.84-.38.2-.79.22-1.24.06-.9-.32-1.58-.85-2.24-1.34-1.3-1-2.64-2.02-5.55-1.35-.17.04-.27.2-.23.35.04.16.21.25.38.22,2.6-.59,3.72.25,4.99,1.24.69.53,1.41,1.09,2.41,1.44.27.1.54.15.81.15h0Z"/>
    <path class="cls-1" d="M987.53,230.21c.24,0,.49,0,.75-.03.17-.01.3-.16.29-.32s-.17-.28-.34-.27c-4.71.38-8.44-3.41-8.48-3.45-.12-.12-.32-.13-.45-.02s-.14.29-.02.42c.15.16,3.59,3.68,8.26,3.68h0Z"/>
    <path class="cls-1" d="M957.52,269.41c1.06,0,2.7-.43,4.11-2.66.04-.07.02-.15-.05-.19-.07-.04-.16-.02-.21.05-2.14,3.39-4.72,2.42-4.83,2.37-.08-.03-.17,0-.2.07-.03.07,0,.15.08.19.01,0,.44.17,1.11.17h0Z"/>
    <path class="cls-4" d="M834.12,298.7c-2.46-5.6,16.63-15.25,16.63-15.25,2.08-.42,18.15,34.32,52.99,37.39,12.41,1.1,35.64-10.96,37.93-13.21.3-.3,20.7,17.56,20.7,17.56-4.16,4.08-13.33,18.57-29.7,24.11-33.85,11.46-88.84-12.97-98.56-50.6h0Z"/>
    <path class="cls-1" d="M985.07,675.1s-.22,8.53-6.33,10.94c-6.11,2.41-23.81,4.58-17.19,10.06,3.8,3.15,21.68,1.12,26.73,1.12s9.79,2.08,13.54-1.12c4.13-3.51,0-21.01,0-21.01,0,0-4.36,2.14-8.28,2.04-5.65-.14-8.47-2.04-8.47-2.04h0Z"/>
    <path class="cls-3" d="M932.37,417.58s-1.22,38.51,11.78,112.38c9.39,53.33,20.46,107.07,25.9,132.83,1.94,9.21,10.14,15.95,19.87,16.32l5.23.2c10.5.4,19.03-8.14,18.27-18.28l-13.19-174.31-3.25-57.37-64.6-11.79h0Z"/>
    <path class="cls-1" d="M1042.92,675.1s-.22,8.53-6.33,10.94c-6.11,2.41-23.81,4.58-17.19,10.06,3.8,3.15,21.68,1.12,26.73,1.12s9.79,2.08,13.54-1.12c4.13-3.51,0-21.01,0-21.01,0,0-4.36,2.14-8.28,2.04-5.65-.14-8.47-2.04-8.47-2.04h0Z"/>
    <path class="cls-3" d="M990.22,417.58s-1.22,38.51,11.78,112.38c9.39,53.33,20.46,107.07,25.9,132.83,1.94,9.21,10.14,15.95,19.87,16.32l5.23.2c10.5.4,19.04-8.14,18.27-18.28l-13.19-174.31-3.25-57.37-64.6-11.79h0Z"/>
    <path class="cls-16" d="M1030.67,316.86s-10.02-23.26-57.55-17.19c-68.55,8.75-51.98,53.93-46.25,112.19,0,0,62.66-2.37,128.47,2.11,0,0-4.32-62.23-24.67-97.1h0Z"/>
    <path class="cls-16" d="M1057.17,315.84s-8.16,25.38-29.6,32.83c-20.38,7.09-91.95,19.36-106.92,9.17-20.05-13.64-9.38-42-9.38-42,0,0,13.47-3.58,45.37-12.94,3-.89,6.12-1.65,9.4-2.3,5.49-1.08,11.05-1.61,16.55-1.88,50.65-2.53,74.6,17.12,74.6,17.12h-.01Z"/>
    <path class="cls-1" d="M1004.71,546.45h.07c.21-.04.36-.23.32-.43-3.93-20.42-.13-36.86,3.74-47.06,4.19-11.04,9.37-17.31,9.42-17.37.13-.16.1-.39-.07-.52-.17-.12-.42-.09-.55.07-.21.25-20.88,25.62-13.3,65.01.03.18.2.3.39.3h0Z"/>
    <path class="cls-3" d="M1055.35,413.96s-35.84-25.89-37.4-59.34c-1.56-33.46-19.31-29.5-31.17-28.62-11.85.88-28.16,0-30.02,9.24-1.86,9.24,5.59,33.02-9.78,54.6-15.37,21.57-20.11,22.01-20.11,22.01l9.98,69.51,120.21-12.72-1.71-54.69h0Z"/>
    <path class="cls-3" d="M1001.01,328.35l1.24-29.7s-6.29-1.82-10.29-.15l.74,31.62,8.32-1.77Z"/>
    <path class="cls-3" d="M971.19,330.12l-17.56-25.95s-10.75-1.09-11.97,3.47l20.7,29.22,8.83-6.75h0Z"/>
    <g>
      <path class="cls-1" d="M849.58,254.41h0c.71.33,1.6.06,1.95-.62l19.78-37.78c.35-.68.06-1.51-.66-1.85h0c-.71-.33-1.6-.06-1.95.62l-19.78,37.77c-.35.68-.06,1.51.66,1.85h0Z"/>
      <path class="cls-5" d="M829.97,291.91h0c3.94,1.84,8.76.3,10.7-3.42l18.21-34.78c1.95-3.73.32-8.28-3.62-10.12h0c-3.94-1.84-8.76-.3-10.71,3.42l-18.21,34.78c-1.95,3.73-.32,8.28,3.62,10.12h.01Z"/>
    </g>
    <g>
      <path class="cls-4" d="M832.84,286.63l-.64.43c-1.11.74-2.65.49-3.43-.55l-8.67-11.55c-.79-1.05-.52-2.51.58-3.24l.64-.43c1.11-.75,2.65-.49,3.43.55l8.67,11.55c.79,1.05.52,2.51-.58,3.24Z"/>
      <path class="cls-4" d="M838.76,282.66l-.56.38c-1.13.76-2.71.5-3.5-.56l-11.29-15.04c-.8-1.07-.53-2.56.59-3.31l.56-.38c1.13-.76,2.7-.5,3.5.56l11.29,15.04c.8,1.07.53,2.56-.59,3.31Z"/>
      <path class="cls-4" d="M848.31,292.72l-1.02-.05c-1.89-.1-3.36-1.65-3.26-3.44l1.03-17.47c.1-1.79,1.74-3.18,3.65-3.08l1.02.05c1.89.1,3.36,1.65,3.26,3.44l-1.03,17.47c-.1,1.79-1.74,3.18-3.65,3.08Z"/>
      <path class="cls-4" d="M844.45,278.84h0c-1.28.86-3.07.57-3.99-.64l-12.65-16.87c-.91-1.21-.6-2.91.67-3.77h0c1.28-.86,3.07-.57,3.99.64l12.65,16.87c.91,1.21.6,2.91-.67,3.77Z"/>
      <path class="cls-4" d="M836.5,300.28s-14.89-6.33-17.67-16.99c-.97-3.69,13.7-19.01,17.64-16.97,3.95,2.04,14.57,18.22,14.57,18.22l-14.54,15.74Z"/>
      <path class="cls-4" d="M827.01,290.57l-.83.55c-1.06.7-2.53.47-3.27-.52l-6.98-9.29c-.75-1-.49-2.39.55-3.09l.83-.55c1.06-.7,2.53-.47,3.27.52l6.98,9.29c.75,1,.49,2.39-.55,3.09Z"/>
    </g>
  </g>
  <g>
    <path class="cls-1" d="M193.47,738.66s.25,9.19,6.93,11.78,26.02,4.93,18.79,10.84c-4.15,3.39-23.69,1.2-29.21,1.2s-10.7,2.24-14.8-1.2c-4.51-3.79,0-22.62,0-22.62,0,0,4.76,2.31,9.04,2.21,6.17-.15,9.25-2.21,9.25-2.21Z"/>
    <path class="cls-1" d="M78.42,738.93s-2.78,8.82,2.73,13.19c5.51,4.37,23.16,12.1,14.34,15.67-5.07,2.04-22.95-5.6-28.21-7.17s-10.93-.92-13.7-5.36c-3.05-4.88,7.42-21.54,7.42-21.54,0,0,3.78,3.55,7.88,4.67,5.92,1.61,9.54.53,9.54.53h-.01Z"/>
    <g>
      <path class="cls-9" d="M196.22,546.12c-2.37-.86-3.25-4.12-1.97-7.26h0c.76-1.86,2.14-3.36,3.72-4.02,1-.41,2-.46,2.91-.13,2.37.86,3.25,4.12,1.97,7.26-.76,1.86-2.14,3.36-3.72,4.02-.56.23-1.13.35-1.67.35-.42,0-.85-.07-1.24-.21h0ZM198.47,535.89c-1.28.53-2.43,1.79-3.07,3.37h0c-1.03,2.52-.44,5.18,1.27,5.79.58.21,1.27.17,1.96-.11,1.28-.53,2.43-1.79,3.07-3.37,1.03-2.52.44-5.18-1.27-5.79-.25-.09-.51-.13-.8-.13-.37,0-.78.08-1.18.25h.01Z"/>
      <path class="cls-10" d="M378.97,496.37l6.53-18.64c-1.61-1.07-54.32-25.13-94.16-79.76,0,0-1.55-2.99-14.86,3.38-13.64,6.55-12.62,11.52-12.62,11.52,32.04,57.57,114.19,82.88,115.12,83.49h0Z"/>
      <path class="cls-12" d="M243,513.67c-1.71,17.58-6.91,57.64-11.86,85.34-9.52,53.27-20.75,106.94-26.25,132.68-1.97,9.2-10.28,15.93-20.14,16.3l-5.3.2c-10.64.4-19.29-8.12-18.52-18.26l12.4-161.36.98-12.73,2.38-41.37c8.19,2.45-17.99-8.92-12.4-3.72l-12-9.82s71.23-7.69,90.72,12.73h0Z"/>
      <path class="cls-12" d="M198.69,514.69l-25.37,53.88-76.46,162.42c-4.2,8.92-13.9,14.33-24.1,13.43l-4.45-.39c-10.49-.93-17.42-10.78-14.34-20.4,0,0,60.96-222.24,63.78-230.18,0,0,33.36,5.31,56.7,12.28,8.19,2.45,18.64,3.75,24.23,8.96Z"/>
      <path class="cls-5" d="M163.5,365.99s17.4-23.75,56.37-15.63c42.92,8.94,45.83,30.63,40.72,72.28-3.23,26.38-12.91,75.74-20.12,113.09,0,0-37.75-42.67-109.74-82.21,0,0,16.43-65.52,32.76-87.53h.01Z"/>
      <path class="cls-5" d="M132.03,448.59s7.18,8.61,26.93,0c23.37-10.19,70.19-32.13,89.3-30.77,19.11,1.35,44.8-23.08,44.8-23.08,0,0-24.56-26.9-56.5-39.48-3-1.19-6.15-2.28-9.46-3.24-5.55-1.62-11.27-2.56-16.9-3.5-69-11.65-78.18,100.1-78.18,100.1h.01Z"/>
      <g>
        <path class="cls-4" d="M217.06,353.84c-.93-3.83,2.28-3.03,4.49-5.81l6.86-8.6,1.99-2.51,11.74-14.72-5.49,16.68-3.29,10.01-1.05,3.17c-.7,2.15-.2,2.66.8,5.06.4.97,1.81,4.82-2.08,5.17-3.49.31-12.78-3.55-13.97-8.44Z"/>
        <path class="cls-1" d="M225.93,334.35s-15.03-11.56-7.71-22.64c7.33-11.08,11.44,16.24,11.44,16.24l-1.79,6.5-1.94-.11h.01Z"/>
        <path class="cls-1" d="M228.46,339.14c-.02.09-.04.19-.05.28-.9,5.56,4.9,9.48,4.9,9.48l.05-.02,3.29-10.01c-1.8-1.07-4.44-2.34-6.25-1.95-.95.2-1.67.86-1.94,2.22h0Z"/>
        <path class="cls-4" d="M257.76,330.39c2.44-9.97-2.79-19.58-11.66-21.46s-18.05,4.67-20.48,14.64c-2.44,9.97,2.79,19.58,11.66,21.46s18.05-4.67,20.48-14.64Z"/>
        <path class="cls-1" d="M228.49,321.97s4.71,2.71,8.28-.08,6.04-5.38,14.76-2.02,17.8.99,19.16-3.52c1.37-4.51-2.9-7.62-8.17-7.05-5.27.56.94-2.53-3.1-6.91-4.03-4.38-13,1-17.8-.99s-21.43-2.89-23.4,10.32l10.26,10.25h.01Z"/>
        <path class="cls-4" d="M225.16,324.81c1.2,1.47,3.31,1.85,4.72.86,1.41-1,1.58-3,.38-4.46-1.2-1.47-3.31-1.85-4.72-.86-1.41,1-1.58,3-.38,4.46Z"/>
        <path class="cls-8" d="M260.93,315.28c.41,0,.82-.05,1.18-.16,1.73-.53,2.18-1.38,2-2-.19-.74-1.3-1.35-2.8-1.11-2.58.41-4.05-.3-4.07-.31l-.11.18c.06.03,1.56.77,4.21.33,1.38-.22,2.37.31,2.54.96.14.53-.27,1.27-1.86,1.75-3.28,1-9.31-3.33-9.38-3.38l-.14.16c.22.16,4.97,3.57,8.41,3.57h.02Z"/>
        <path class="cls-8" d="M245.06,305.34c3.67,0,7.09-1.76,7.32-2.04l-.18-.13.09.06-.09-.06c-.18.21-5.23,2.91-9.74,1.61-1.48-.42-2.79-.96-4.06-1.47-2.55-1.04-4.75-1.93-7.11-1.35l.06.2c2.28-.56,4.45.31,6.96,1.34,1.27.51,2.59,1.05,4.08,1.48.88.25,1.77.35,2.67.35h0Z"/>
        <path class="cls-8" d="M222.24,310.57c-.18-.05-.37-.22-.26-.77v-.03c.09-.11,1.78-2.71,2.97-2.13.14.07.35.26.15.74-.38.87-1.97,2.22-2.73,2.22-.05,0-.09,0-.13-.02ZM222.2,309.86c-.04.21-.05.46.11.5.5.14,2.21-1.22,2.58-2.07.16-.36,0-.44-.05-.46-.08-.04-.17-.06-.26-.06-.82,0-1.95,1.45-2.38,2.09Z"/>
        <path class="cls-13" d="M244.88,327.26c.1-.02.19-.08.23-.17.08-.15,0-.34-.16-.41-.1-.04-2.28-1.24-4.37.67-.13.12-.14.31-.01.44.13.12.31.1.47.01,1.59-.88,3.55-.59,3.64-.56.07.03.14.04.21.02h-.01Z"/>
        <path class="cls-13" d="M242.04,330.53c-.07.74.34,1.38.92,1.43s1.1-.51,1.17-1.25c.07-.74-.34-1.38-.92-1.42-.57-.05-1.1.51-1.17,1.25h0Z"/>
        <path class="cls-13" d="M256.82,330.39c.08.01.16-.02.23-.09.11-.12.13-.31.03-.43-.05-.07-1.17-1.87-3.33-.77-.14.07-.21.25-.17.4.05.16.18.19.33.16,1.44-.31,2.72.57,2.77.63.04.05.09.08.14.09h0Z"/>
        <path class="cls-13" d="M252.78,332.4c-.37.66-.25,1.4.26,1.64.51.25,1.23-.08,1.59-.75.37-.65.25-1.39-.26-1.64s-1.23.08-1.59.75Z"/>
        <g>
          <path class="cls-6" d="M243.12,340.83c1.54,0,2.69-.34,2.71-.35.12-.04.19-.16.15-.27s-.17-.17-.29-.14c-.22.07-5.56,1.65-8.56-2.53-.07-.1-.22-.13-.32-.06-.11.07-.13.2-.06.3,1.79,2.5,4.41,3.04,6.37,3.04h0Z"/>
          <path class="cls-6" d="M236.31,338.57c.1,0,.2-.06.22-.16.08-.3.36-.79,1.23-1.32l.06-.04c.1-.07.12-.21.04-.3s-.22-.11-.32-.04c-.84.51-1.31,1.05-1.46,1.6-.03.11.04.23.17.26h.06Z"/>
        </g>
        <path class="cls-8" d="M252.19,341.72c-3.01-2.39-3.32-8.35-.71-13.29h0c1.6-3.04,4.03-5.14,6.46-5.61,1.46-.28,2.82.04,3.94.92,3.01,2.39,3.32,8.35.71,13.29-1.61,3.04-4.03,5.14-6.46,5.61-.34.07-.68.1-1.02.1-1.08,0-2.06-.34-2.92-1.02h0ZM258.08,323.45c-2.24.43-4.47,2.4-5.99,5.26-2.48,4.69-2.24,10.31.54,12.52.95.75,2.1,1.02,3.34.78,2.24-.43,4.47-2.4,5.98-5.26,2.49-4.69,2.25-10.31-.54-12.52-.73-.57-1.57-.87-2.48-.87-.28,0-.57.03-.87.08h.01Z"/>
        <g class="cls-14">
          <path class="cls-8" d="M234.2,322.56c-2.05,4.88-.95,10.58,2.46,12.74,3.41,2.15,7.83-.06,9.89-4.94s.95-10.58-2.46-12.74c-3.41-2.15-7.83.06-9.88,4.94h-.01Z"/>
        </g>
        <g class="cls-14">
          <path class="cls-8" d="M251.27,328.82c-2.05,4.9-1.29,10.64,1.71,12.81,3,2.18,7.1-.04,9.15-4.94,2.05-4.9,1.29-10.64-1.7-12.81-3-2.18-7.1.04-9.15,4.94h-.01Z"/>
        </g>
        <path class="cls-8" d="M236.79,335.42c-3.77-2.34-5.01-8.48-2.8-13.69h0c1.29-3.03,3.48-5.2,6.02-5.93,1.75-.51,3.48-.28,5,.66,3.77,2.34,5.01,8.48,2.8,13.69-1.29,3.03-3.48,5.2-6.02,5.93-.6.18-1.22.26-1.81.26-1.12,0-2.2-.31-3.19-.93ZM240.21,316.41c-2.31.67-4.39,2.75-5.59,5.56-2.1,4.94-.97,10.73,2.54,12.91,1.34.83,2.86,1.03,4.41.58,2.31-.67,4.39-2.75,5.59-5.56,2.1-4.94.97-10.73-2.54-12.91-.88-.54-1.82-.82-2.81-.82-.52,0-1.06.08-1.6.23h0Z"/>
        <path class="cls-8" d="M251.78,330.83c.15,0,.31-.05.43-.15.26-.22.29-.6.05-.85-.08-.08-1.89-1.95-5.5-1.79-.35.01-.63.3-.61.63.02.33.32.59.67.57,2.93-.12,4.41,1.33,4.47,1.39.13.13.3.2.48.2h0Z"/>
        <path class="cls-1" d="M218.09,311.83l.26-.23c-2.02-2.02-.37-4.37-.36-4.39l-.3-.19s-1.83,2.59.39,4.81h.01Z"/>
        <path class="cls-1" d="M214.93,314.62s2.11-1.47,3.69-1.26l.05-.34c-1.71-.21-3.87,1.26-3.96,1.33l.22.27h0Z"/>
      </g>
      <path class="cls-1" d="M152.99,404.64c3.34,3.04,13.37-1.27,22.4-9.63,9.03-8.35,13.63-17.58,10.3-20.62-3.34-3.04-13.37,1.27-22.4,9.63-9.03,8.36-13.63,17.59-10.29,20.62h-.01Z"/>
      <g>
        <path class="cls-10" d="M387.14,487.78h0c1.03-1.04,2.78-1.1,3.9-.14l14.59,12.61c1.11.96,1.18,2.59.15,3.63h0c-1.03,1.04-2.78,1.1-3.9.14l-14.59-12.61c-1.11-.96-1.18-2.59-.15-3.63Z"/>
        <path class="cls-10" d="M382.35,492.59h0c1.03-1.04,2.78-1.1,3.9-.14l18.92,16.34c1.11.96,1.18,2.59.15,3.63h0c-1.03,1.04-2.78,1.1-3.9.14l-18.92-16.34c-1.11-.96-1.18-2.59-.15-3.63Z"/>
        <path class="cls-10" d="M371.01,485.21l.97-.14c1.81-.26,3.52.92,3.8,2.6l2.69,16.44c.27,1.69-.98,3.28-2.79,3.53l-.97.14c-1.81.25-3.52-.92-3.8-2.61l-2.69-16.43c-.27-1.69.98-3.27,2.79-3.53h0Z"/>
        <path class="cls-10" d="M377.54,497.4h0c1.03-1.04,2.78-1.1,3.9-.14l15.47,13.36c1.11.96,1.18,2.59.15,3.63h0c-1.03,1.04-2.78,1.1-3.9.14l-15.47-13.35c-1.11-.96-1.18-2.59-.15-3.63h0Z"/>
        <path class="cls-10" d="M380.56,476.02s15.39,3.15,20.23,12.55c1.68,3.25-8.95,20.2-13.11,19.03-4.15-1.17-17.56-14.27-17.56-14.27l10.44-17.31h0Z"/>
        <path class="cls-10" d="M391.82,483.03l.13-.13c1-1,2.68-1.06,3.75-.13l11.79,10.18c1.07.93,1.14,2.5.14,3.49l-.13.13c-.99,1-2.68,1.06-3.75.13l-11.79-10.18c-1.07-.93-1.14-2.5-.14-3.49Z"/>
      </g>
      <g>
        <path class="cls-3" d="M291.9,478.8l10.68-.39c0-.12-.46-12.32,2.63-24.57,3.76-14.93,10.74-23.01,20.76-24.03,8.5-.87,14.65,1.86,18.84,8.33,3.43,5.31,4.16,11.14,4.17,11.2l10.63-1.05c-.07-.59-1.75-14.71-12.66-22.92-5.99-4.51-13.44-6.35-22.13-5.47-34.85,3.53-33.02,56.63-32.92,58.9h-.01Z"/>
        <path class="cls-1" d="M360.23,447.32c.27,1.09-2.18,2.55-5.46,3.25s-6.16.39-6.43-.69c-.27-1.09,2.18-2.55,5.46-3.25s6.16-.39,6.43.69Z"/>
      </g>
      <path class="cls-16" d="M276.39,490.94l6.4,23.51c.9,3.28,4.02,5.61,7.65,5.69l151.6,3.69c3.58.09,6.81-2.03,7.93-5.21l10.66-30.42c1.68-4.79-2.06-9.75-7.47-9.89l-162.11-4.41c-9.75-.26-17.06,8.23-14.66,17.04h-.01Z"/>
      <g>
        <path class="cls-15" d="M456.49,767.78h-172.79c-8.25,0-15-6.09-15.28-13.77l-7.82-219.53c-.29-8.19,6.88-14.92,15.68-14.7l185.21,4.51c8.4.2,15.05,6.69,14.88,14.51l-4.6,215.01c-.16,7.75-6.96,13.96-15.29,13.96h.01Z"/>
        <path class="cls-1" d="M279.32,738.83l-6.74-189.23c-.13-3.58,1.3-6.97,4.02-9.52,2.72-2.55,6.31-3.91,10.19-3.81l159.65,3.89c7.58.18,13.63,6.08,13.48,13.15l-3.97,185.35c-.15,6.97-6.36,12.64-13.85,12.64h-148.95c-7.51,0-13.58-5.48-13.84-12.47h-.01ZM277.54,540.97c-2.46,2.31-3.75,5.36-3.63,8.6l6.74,189.24c.22,6.31,5.72,11.27,12.5,11.27h148.95c6.76,0,12.38-5.13,12.51-11.42l3.97-185.35c.14-6.38-5.33-11.71-12.18-11.87l-159.65-3.89h-.34c-3.35,0-6.5,1.22-8.86,3.44v-.02Z"/>
        <polygon class="cls-1" points="373.23 749.72 374.56 749.69 369.16 539.48 367.83 539.51 373.23 749.72"/>
      </g>
      <path class="cls-12" d="M239.37,544.36s24.67-105.52,24.76-116.73c.09-11.21,4.54-27.25-24.76-32.3-29.3-5.06-39.1-7.56-44.46,5.11-5.35,12.67-17.43,40.41-40.76,40.28-23.34-.13-28.19,14.72-28.19,14.72l-20.51,81.46,133.92,7.46h0Z"/>
      <path class="cls-6" d="M173.91,568.78l7.34-16.41c4.65-10.31,7.73-15.3,17.71-19.68l-.53-1.05c-10.33,4.54-13.66,9.92-18.34,20.28l-7.34,16.42,1.16.44h0Z"/>
      <g>
        <path class="cls-4" d="M285.38,465.39l-7.78,25.83c-59.79-28.62-105.54-74.83-115.49-86.55-1.46-1.72-1.93-3.99-1.3-6.1.98-3.23,3.11-8.18,7.76-12.94,4.52-4.64,8.29-7.64,10.83-9.44,1.85-1.31,4.48-1.04,5.95.64,10.74,12.33,48.4,63.83,100.04,88.55h0Z"/>
        <path class="cls-1" d="M294.43,502.15l26.15-36.79s9.31.69,13.94-7.99-2.93-7.04-6.73-4.15-8.5,1.07-8.82-2.56,2.74-9.85-2.41-9.95c-5.15-.11-10.66,10.36-4.94,18.93l-25.51,35.87s-21.68-2.8-21.96,15.05c0,0,4.11,5.42,6.92.66,2.8-4.76,7.48-10.52,13.72-5.96s6.28,6.4,4.15,9.95c-2.13,3.54-7.59,6.32-4.23,8.67s6.99,1.87,10.28-3.3c3.29-5.18,4.23-15.02-.56-18.45h.01Z"/>
        <g>
          <path class="cls-4" d="M287.6,485.82l-.41.54c-.93,1.21-.62,2.9.66,3.76l14.6,9.76c1.29.87,3.11.58,4.04-.61l.41-.54c.93-1.21.63-2.9-.66-3.76l-14.6-9.76c-1.29-.87-3.11-.58-4.04.61Z"/>
          <path class="cls-4" d="M292.48,479.49l-.47.61c-.92,1.18-.61,2.84.65,3.7l16.79,11.23c1.27.85,3.05.57,3.97-.6l.47-.61c.91-1.18.61-2.84-.65-3.7l-16.79-11.23c-1.27-.85-3.05-.57-3.97.6Z"/>
          <path class="cls-4" d="M280.45,469.52l.04.73c.11,2.1,2.05,3.75,4.32,3.64l23.48-1.09c2.27-.1,4.02-1.91,3.91-4.02l-.04-.73c-.11-2.1-2.05-3.75-4.32-3.64l-23.48,1.09c-2.27.1-4.02,1.91-3.91,4.02Z"/>
          <path class="cls-4" d="M297.3,473.24l-.41.54c-.93,1.21-.62,2.89.66,3.76l14.79,9.89c1.29.87,3.11.58,4.04-.61l.41-.54c.93-1.21.63-2.9-.66-3.76l-14.79-9.89c-1.29-.87-3.11-.58-4.04.61Z"/>
          <path class="cls-4" d="M271.27,481.79s7.52,15.81,20.31,18.82c4.43,1.05,22.95-14.38,20.52-18.57s-21.81-15.55-21.81-15.55l-19.02,15.3Z"/>
          <path class="cls-4" d="M282.89,491.91l-.65.85c-.86,1.12-.58,2.68.61,3.48l10.6,7.09c1.2.8,2.88.54,3.75-.57l.65-.85c.86-1.12.58-2.68-.61-3.48l-10.6-7.09c-1.2-.8-2.88-.54-3.74.57h-.01Z"/>
        </g>
      </g>
      <path class="cls-12" d="M243.08,356.03s11.14,34.56,10.62,48.57l-9.12-1.55s-6.78-40.78-8.03-47.79c0,0,5.62-2.11,6.52.78h.01Z"/>
      <path class="cls-12" d="M214.26,395.72c.17-.94,4.93-29.9-1.71-46.55,0,0-2.97-2.89-6.31-1.52,0,0,7.69,34.22.84,48.07h7.19Z"/>
      <path class="cls-1" d="M246.09,405.61s-2.84-2.42-1.8-4.32c1.05-1.9,2.8-2.37,4.47-1.75,1.67.62,1.86,3.19,1.31,4.44-.55,1.24-2.98,2.69-3.98,1.63h0Z"/>
      <path class="cls-1" d="M207.73,397.27s1.37-2.64,3.41-3.16c2.04-.52,3.72,1.13,3.49,3.16-.22,2.03-1.53,2.88-3.49,2.77s-3.86-1.17-3.41-2.77Z"/>
    </g>
  </g>
  <g>
    <path class="cls-16" d="M856.19,483.28l-4.72,38.77c-.47,3.88-3.94,6.8-8.07,6.8h-127.62c-4.3,0-7.85-3.16-8.11-7.22l-2.54-40.26c-.28-4.45,3.48-8.19,8.2-8.13l134.88,1.5c4.81.05,8.52,4.03,7.97,8.55h.01Z"/>
    <path class="cls-1" d="M807.4,468.11l6.95-1.85-3.66-11.93c-1.72-5.61-7.25-9.54-13.45-9.54h-34.23c-6.99,0-12.96,4.92-13.89,11.45l-1.49,10.5,7.17.88,1.48-10.49c.45-3.19,3.34-5.6,6.72-5.6h34.23c2.99,0,5.67,1.91,6.51,4.65l3.66,11.93h.01Z"/>
    <path class="cls-3" d="M865.6,471.71v4.7c0,4.05-3.44,7.35-7.73,7.4l-151.23,1.81c-4.36.05-7.94-3.28-7.94-7.4v-4.98c0-4.06,3.45-7.36,7.74-7.4l151.23-1.54c4.36-.04,7.92,3.28,7.92,7.4h.01Z"/>
  </g>
  <g>
    <path class="cls-4" d="M606.78,542.38c45.73,25.36,100.31,22.62,138.05,15.86l-5.82-27.15c-45.29,8.11-77.16.18-106.27-15.24-10.99-5.83-44.8,16.07-25.95,26.52h0Z"/>
    <path class="cls-5" d="M895.94,775.01c-21.19,10.46-158.48,3.93-209.25,1.11-10.62-.59-18.93-8.88-18.97-18.94-.18-44.45-.32-159.99-.37-207.17-.01-11.46,9.65-20.83,21.77-21.11,45.76-1.05,150.63-3.15,187.04-3.71,7.09-.11,12.94,5.2,13.14,11.89,1.45,49.9,26.17,228.29,6.64,237.93h.01Z"/>
    <path class="cls-2" d="M796.42,551.09c1.01-3.97,5.1-7.38,9.41-7.38s9.03,1.15,9.03,8.54c0,4.08-4.71,6.23-9.03,6.23s-10.81-1.86-9.41-7.38h0Z"/>
    <path class="cls-2" d="M766.38,551.09c1.01-3.97,5.1-7.38,9.41-7.38s9.03,1.15,9.03,8.54c0,4.08-4.71,6.23-9.03,6.23s-10.81-1.86-9.41-7.38h0Z"/>
    <path class="cls-2" d="M737.03,551.09c1.01-3.97,5.1-7.38,9.41-7.38s9.03,1.15,9.03,8.54c0,4.08-4.71,6.23-9.03,6.23s-10.81-1.86-9.41-7.38h0Z"/>
    <path class="cls-2" d="M710.01,551.09c1.01-3.97,5.1-7.38,9.41-7.38s9.03,1.15,9.03,8.54c0,4.08-4.71,6.23-9.03,6.23s-10.81-1.86-9.41-7.38h0Z"/>
    <path class="cls-1" d="M836.35,537.68l31.04,1.13c2.8.1,5.07,2.2,5.24,4.84l1,15.36c.2,3.12-2.56,5.69-5.86,5.46l-32.03-2.28c-2.85-.2-5.05-2.45-5.05-5.15v-14.22c0-2.93,2.58-5.27,5.67-5.16h0Z"/>
    <path class="cls-1" d="M693.07,663.84c0-44.07,38.04-84.4,84.41-79.78,57.49,5.72,84.41,35.72,84.41,79.78s-37.79,79.78-84.41,79.78-84.41-35.72-84.41-79.78Z"/>
    <path class="cls-2" d="M687.01,663.84c1.68-47.12,29.44-82.14,90.46-85.5,71.77-3.96,90.46,38.36,90.46,85.5,0,60.22-40.58,85.5-90.46,85.5s-92.68-23.23-90.46-85.5h0ZM704.97,659.33c0,40.83,21.76,71.77,72.5,78.57,42.78,5.73,74.69-25.87,74.69-66.7s-24.27-85.39-74.69-81.41c-43.2,0-72.5,28.72-72.5,69.55h0Z"/>
    <path class="cls-2" d="M709.43,691.6h-10.31v-52.55h11.58c8.84,0,16.02,7.18,16.02,16.02v19.23c0,9.55-7.75,17.3-17.3,17.3h.01Z"/>
    <path class="cls-1" d="M655.34,771.9s.27,10.1,7.5,12.95c7.23,2.85,28.18,5.42,20.35,11.91-4.49,3.73-25.66,1.32-31.63,1.32s-11.59,2.46-16.03-1.32c-4.88-4.16,0-24.86,0-24.86,0,0,5.16,2.54,9.8,2.43,6.69-.16,10.02-2.43,10.02-2.43h-.01Z"/>
    <path class="cls-1" d="M420.52,763.11s-10.68.22-13.72,7.05-5.81,26.61-12.66,19.2c-3.93-4.26-1.32-24.26-1.31-29.91.02-5.65-2.57-10.96,1.44-15.15,4.41-4.6,26.3.07,26.3.07,0,0-2.7,4.86-2.6,9.25.15,6.31,2.54,9.48,2.54,9.48Z"/>
    <path class="cls-12" d="M641.03,779.49c-12.83-2.68-20.72-14.93-17.32-26.93,1.37-4.83,2.82-10.19,4.21-15.78,2.01-8.13,3.24-14.99,4.49-20.64,5.8-26.25-87.05-31.12-87.05-45.13l4.88-29.13-4.88,29.13,9.76-58.28c1.08.16,104,26.32,124.56,46.33,13.63,13.28,22.32,36.55,6.3,80.83-3.42,9.48-6.71,18.42-9.46,25.82-4.16,11.23-16.53,17.74-28.82,15.18l-6.69-1.4h.01ZM638.21,695.62h0ZM634.48,689.87h0Z"/>
    <path class="cls-12" d="M423.84,777.19c-7.17-2.6-13.26-7.01-12.09-14.19l2-12.32c1.08-6.62,6.69-11.75,13.73-12.54,24.62-2.74,81.34,5.28,87.93-1.79,4.61-4.95-12.11-40.73-14.75-86.46-.56-9.69-1.55-18.39-1.82-26.2-.91-26.19,75.55-25.07,81.78,8.17,9.56,50.95,12.11,133.11-7.45,155.81-20.08,23.31-108.63,4.26-149.32-10.48h0ZM517.06,720.51h0Z"/>
    <path class="cls-5" d="M521,501.74s11.16-20,59.29-10.85c14.46,2.75,20.91,10.32,28.09,15.1,11.12,7.4,11.9,13.3,7.47,24.6-10,25.53-22.81,62.83,5.2,101.41,0,0-116.55,30.02-119.16-8.79,0,0-16.77-66.78,19.11-121.48h0Z"/>
    <path class="cls-5" d="M497.19,519.48l35.01-3.81s58.01,26.83,76.8,27.91c18.79,1.09,33.87-26.45,33.87-26.45,0,0-17.2-17.17-55.4-24.82-5.61-1.13-11.18-2.35-16.77-2.98-76.5-8.74-73.52,30.15-73.52,30.15h0Z"/>
    <path class="cls-4" d="M574.89,484.05l6.04-10.36,1.76-3.02,10.35-17.74-3.29,19.01-1.98,11.41-.62,3.62c-.42,2.45-.06,4.56,1.38,7.04.58,1.01,3.02,6.61-3.1,7.85-7.63,1.56-17.81-6.44-21.52-13.21.04,0,8.55.29,10.99-4.6h0Z"/>
    <path class="cls-1" d="M497.19,519.48c.26.92,1.47,1.56,3.41,1.93,4.66.9,13.5.23,23.31-1.99,7.53-1.72,14.1-4.01,18.36-6.23,3.58-1.87,5.55-3.71,5.15-5.14-.42-1.49-3.33-2.26-7.77-2.32-4.9-.07-11.65.74-18.94,2.39-10.03,2.28-18.32,5.57-21.8,8.41-1.33,1.08-1.95,2.09-1.71,2.96h0Z"/>
    <g>
      <path class="cls-1" d="M610.58,448.93s.26,4.83-2.26,10.34c-2.52,5.51-5.63-9.84-5.63-9.84l7.88-.5Z"/>
      <path class="cls-4" d="M608.7,461.07c.89-11.42-6.53-21.25-16.54-21.93-10.02-.69-18.86,8.01-19.75,19.44-.89,11.42,6.53,21.25,16.54,21.93,10.02.69,18.86-8.01,19.75-19.44Z"/>
      <path class="cls-1" d="M573.22,452.66l8.81.84c1.93.18,3.88-.44,5.24-1.76,2.34-2.27,4.75-3.2,12.74-1.34,10.11,2.35,18.09-2.08,20.29-6.91,2.25-4.92-2.21-9.43-7.85-7.98-5.65,1.45-2.14-4.13-6.93-5.73-8.93-2.99-12.12,3.37-19.61,1.69-9.81-2.21-29.04,1.43-24.24,19.5l11.54,1.69h0Z"/>
      <path class="cls-13" d="M591.67,459.15c.1-.04.19-.12.22-.23.06-.18-.05-.38-.25-.43-.11-.03-2.71-1.01-4.65,1.43-.12.15-.1.37.06.49s.36.06.51-.06c1.58-1.22,3.77-1.22,3.87-1.19.08.02.16.02.23,0h.01Z"/>
      <path class="cls-13" d="M589.15,463.23c.06.83.61,1.47,1.26,1.43.63-.04,1.11-.75,1.06-1.57s-.61-1.47-1.26-1.44c-.63.04-1.11.75-1.06,1.57h0Z"/>
      <path class="cls-13" d="M605.26,460.74c.09,0,.17-.04.23-.13.1-.15.08-.37-.04-.49-.07-.07-1.6-1.89-3.77-.32-.14.1-.19.31-.11.47.08.17.24.18.39.13,1.51-.57,3.07.2,3.13.26.05.05.11.07.17.07h-.01Z"/>
      <path class="cls-13" d="M601.2,463.6c-.28.79-.02,1.58.58,1.78.6.19,1.33-.28,1.61-1.08.28-.79.02-1.58-.58-1.78-.6-.19-1.32.28-1.61,1.08Z"/>
      <path class="cls-1" d="M561.68,450.97s3.3,13.31,11.56,15.85c0,0-4.81-10.59,10.82-13.42,0,0-12.79-4.54-22.38-2.43Z"/>
      <path class="cls-4" d="M572.13,460c1.57,1.44,3.95,1.53,5.31.2,1.36-1.33,1.19-3.56-.38-5s-3.95-1.53-5.31-.2-1.19,3.56.38,5Z"/>
      <path class="cls-1" d="M584.06,453.4s-3.37,9.97-1.6,12.33c1.77,2.36,16.09,6.01,23.39,4.86h0c-1.32,6.57-7.46,11.4-14.53,11.15-2.34-.08-4.67-.53-6.92-1.37h0c-4.56-1.7-8.77-4.45-9.81-8.99-.32-1.38,3.11-8.82,3.11-8.82,0,0,1.64-4.43-.64-7.36,0,0,3.85-2.12,7.01-1.8h-.01Z"/>
      <path class="cls-8" d="M601.48,473.57s-5.86.34-11.81-1.4c0,0-.27,5.49,6.1,5.63,3.71.08,5.71-4.22,5.71-4.22h0Z"/>
      <path class="cls-1" d="M611.68,434.53l.09-.46c-2.38-.39-2.19-2.21-2.18-2.29l-.49-.05s-.24,2.33,2.59,2.8h-.01Z"/>
      <path class="cls-8" d="M603.49,448.26s2.97-.23,6.07-1.11c4.13-1.17,6.68-2.96,7.36-5.18.48-1.55.41-2.67-.2-3.4-.97-1.17-3.07-1.11-4.93-1.07-.28,0-.54.01-.81.01v.23c.26,0,.53,0,.82-.02,1.8-.04,3.84-.09,4.73.98.56.67.61,1.72.16,3.2-1.6,5.19-13.1,6.11-13.22,6.12l.02.23Z"/>
      <path class="cls-8" d="M588.8,433.82c1.96,0,3.61-.27,4.87-.6,2.88-.76,4.45-1.91,4.51-1.96l-.16-.18s-1.6,1.19-4.44,1.92c-2.62.68-6.86,1.12-12.24-.66l-.08.22c2.84.95,5.38,1.28,7.53,1.28h0Z"/>
    </g>
    <path class="cls-1" d="M587.26,690.31h.01c.26,0,.46-.21.45-.45l-.77-24.51c.76-4.93,5.92-7.81,5.98-7.84.22-.12.3-.39.17-.59-.13-.21-.41-.28-.64-.15-.23.12-5.64,3.13-6.43,8.51v.07l.77,24.55c0,.24.21.42.47.42h-.01Z"/>
    <path class="cls-12" d="M611.72,534.03s-37.51-12.39-47.82-3.41c-10.31,8.97-21.2,36.99-41.6,40.37-20.41,3.38-28.02,6.66-28.02,6.66,0,0-.16,75.88,12.81,115.76l82.33-42.43,41.94-15.38s-16.44-11.8-17.68-25.22c-1.24-13.41,11.98-72.55-1.95-76.35h0Z"/>
    <g>
      <path class="cls-4" d="M655.99,585.03s11.46-8.62,19.9-7.24c8.45,1.38,18.14,9.17,12.71,9.38s-12.44-1.36-12.44-1.36c0,0,14.8,4,12.32,6.87-2.49,2.87-15.33-.73-15.33-.73,0,0,17.22,6.08,13.94,8.08-3.28,1.99-16.32-2.72-16.32-2.72,0,0,15.78,6.26,11.91,8.5-3.87,2.23-13-5.26-15.5-2.39-2.49,2.87-13.4,13.46-22.68,7.89l11.49-26.26v-.02Z"/>
      <path class="cls-7" d="M676.03,586.07l.26-.54c-.17-.07-4.21-1.78-6.63-.39l.33.5c2.12-1.23,5.98.41,6.02.43h.01Z"/>
      <path class="cls-7" d="M673.01,592.2l.28-.53c-.16-.07-4.05-1.79-7.79-.5l.22.55c3.49-1.2,7.26.46,7.3.48h-.01Z"/>
      <path class="cls-7" d="M670.62,597.56l.27-.54c-.2-.09-4.97-2.11-7.41-.43l.38.47c2.13-1.48,6.72.47,6.77.49h-.01Z"/>
    </g>
    <path class="cls-4" d="M498.9,516.52c.39,1.29.94,2.93,1.69,4.88,3.31,8.58,10.54,23.04,25.39,38.22,36,36.79,89.07,49.12,127.26,52.99l2.75-27.58c-45.83-4.65-73.9-20.96-97.04-43.69-8.73-8.59-14.02-20.62-16.69-28.17-1.49-4.19-2.18-7-2.18-7.06,0,0-.15-.15-.44-.39-4.9-.07-11.65.74-18.94,2.39-10.03,2.28-18.32,5.57-21.8,8.41h0Z"/>
    <g class="cls-17">
      <path class="cls-9" d="M560.13,576.71c-3.51-2.97-4.62-7.11-2.53-9.43.78-.86,1.89-1.35,3.24-1.44,2.2-.13,4.74.84,6.83,2.61,3.51,2.97,4.62,7.11,2.53,9.43-.78.86-1.89,1.35-3.24,1.43-.13,0-.27.01-.41.01-2.09,0-4.46-.96-6.41-2.62h0ZM560.95,567.3c-.63.04-1.53.23-2.15.92-1.5,1.65-.4,5.05,2.39,7.41,1.78,1.51,3.9,2.34,5.67,2.23.63-.04,1.53-.23,2.15-.92,1.5-1.65.4-5.05-2.39-7.41-1.67-1.42-3.65-2.24-5.36-2.24h-.31Z"/>
    </g>
    <path class="cls-12" d="M598.11,494.81s13.75,22.9,12.48,44.04l-8.29-.4s-2.43-31.7-11.38-45.41c0,0,3.97-1.17,7.19,1.77h0Z"/>
    <path class="cls-12" d="M572.87,530.6c.28-1.16-4.61-33.34-15.09-42.57,0,0-4.89-1.77-7.22,0,0,0,13.63,28.64,13.34,44.71l8.97-2.14Z"/>
    <path class="cls-1" d="M608.99,535.72c0-1.64-1.41-2.97-3.14-2.97s-2.75,1.38-3.14,2.97c-.54,2.2,1.41,2.97,3.14,2.97s3.14-1.33,3.14-2.97Z"/>
    <path class="cls-1" d="M572.88,531.76c0-1.64-1.41-2.97-3.14-2.97s-2.75,1.37-3.14,2.97c-.54,2.2,1.41,2.97,3.14,2.97s3.14-1.33,3.14-2.97Z"/>
  </g>
  <g>
    <path class="cls-16" d="M939.1,757.98l-4.72,38.77c-.47,3.88-3.94,6.8-8.07,6.8h-127.62c-4.3,0-7.84-3.16-8.11-7.22l-2.54-40.26c-.28-4.45,3.48-8.19,8.2-8.13l134.88,1.5c4.81.05,8.52,4.03,7.98,8.55h0Z"/>
    <path class="cls-1" d="M890.31,742.81l6.95-1.85-3.66-11.93c-1.72-5.61-7.25-9.54-13.46-9.54h-34.23c-6.99,0-12.96,4.92-13.89,11.45l-1.48,10.5,7.17.88,1.49-10.49c.45-3.19,3.34-5.6,6.72-5.6h34.23c2.99,0,5.67,1.91,6.51,4.65l3.66,11.93h0Z"/>
    <path class="cls-3" d="M948.5,746.4v4.7c0,4.05-3.44,7.35-7.73,7.4l-151.23,1.81c-4.36.05-7.94-3.28-7.94-7.4v-4.98c0-4.06,3.45-7.36,7.74-7.4l151.23-1.54c4.36-.04,7.92,3.28,7.92,7.4h.01Z"/>
  </g>
</svg>