<?xml version="1.0" encoding="UTF-8"?>
<svg xmlns="http://www.w3.org/2000/svg" xmlns:xlink="http://www.w3.org/1999/xlink" viewBox="0 0 900 900">
  <defs>
    <style>
      .cls-1 {
        stroke-width: 3.9px;
      }

      .cls-1, .cls-2, .cls-3, .cls-4, .cls-5, .cls-6, .cls-7, .cls-8, .cls-9, .cls-10, .cls-11, .cls-12 {
        stroke-miterlimit: 10;
      }

      .cls-1, .cls-6 {
        stroke: #ea8b24;
      }

      .cls-1, .cls-12 {
        fill: none;
      }

      .cls-13 {
        fill: #f74123;
      }

      .cls-14 {
        fill: #ffb287;
      }

      .cls-15 {
        fill: #d67063;
      }

      .cls-16, .cls-17 {
        mix-blend-mode: lighten;
      }

      .cls-18 {
        fill: #603a4b;
      }

      .cls-19 {
        fill: #ffbd39;
      }

      .cls-20 {
        fill: #422b27;
      }

      .cls-21 {
        fill: #8e3925;
      }

      .cls-2 {
        fill: #ffe552;
        stroke: #ffe552;
        stroke-width: .44px;
      }

      .cls-22 {
        fill: #177fbf;
      }

      .cls-23, .cls-7 {
        fill: #ffc431;
      }

      .cls-24 {
        fill: #5dd1ce;
      }

      .cls-25 {
        fill: #f58d6c;
      }

      .cls-26 {
        opacity: .4;
      }

      .cls-26, .cls-27, .cls-28, .cls-29, .cls-30, .cls-31, .cls-32, .cls-10, .cls-33 {
        mix-blend-mode: multiply;
      }

      .cls-26, .cls-34, .cls-30, .cls-33 {
        fill: #5b363d;
      }

      .cls-27, .cls-35, .cls-36, .cls-31, .cls-37, .cls-10 {
        opacity: .6;
      }

      .cls-27, .cls-10 {
        fill: #c67560;
      }

      .cls-38 {
        fill: #fff1aa;
      }

      .cls-39 {
        fill: #ad5945;
      }

      .cls-17 {
        fill: #ffdc4a;
      }

      .cls-3 {
        fill: #bcb2af;
        stroke: #472736;
        stroke-width: 3.17px;
      }

      .cls-3, .cls-40 {
        stroke-linecap: round;
      }

      .cls-41 {
        fill: #663b39;
      }

      .cls-42 {
        fill: #c89c9e;
      }

      .cls-43 {
        fill: #ffd55f;
      }

      .cls-44, .cls-45, .cls-37 {
        fill: #fff;
      }

      .cls-46 {
        fill: #16569b;
      }

      .cls-47 {
        fill: #d86619;
      }

      .cls-28, .cls-29 {
        opacity: .7;
      }

      .cls-48, .cls-49 {
        fill: #bad4dd;
      }

      .cls-48, .cls-50, .cls-33 {
        opacity: .3;
      }

      .cls-51 {
        fill: #ffe14e;
      }

      .cls-52 {
        fill: #a96303;
      }

      .cls-45, .cls-53 {
        opacity: .5;
      }

      .cls-54 {
        fill: #d3e9ef;
      }

      .cls-55 {
        fill: #ea2f1b;
      }

      .cls-56 {
        fill: #fca903;
      }

      .cls-57 {
        fill: #ffdc2b;
      }

      .cls-58 {
        fill: #ffab64;
      }

      .cls-59 {
        fill: #473f3c;
      }

      .cls-29 {
        fill: #665089;
      }

      .cls-4 {
        stroke-width: .65px;
      }

      .cls-4, .cls-60, .cls-9 {
        fill: #ffab2e;
      }

      .cls-4, .cls-9 {
        stroke: #ffab2e;
      }

      .cls-61 {
        fill: url(#radial-gradient);
      }

      .cls-62 {
        fill: #e8a81a;
      }

      .cls-63 {
        fill: #211d1e;
      }

      .cls-64 {
        fill: #472736;
      }

      .cls-65 {
        fill: #8271a8;
      }

      .cls-66 {
        fill: #703e28;
      }

      .cls-67 {
        fill: #e5785c;
      }

      .cls-68 {
        fill: #f28f7c;
      }

      .cls-69 {
        fill: #fccf36;
      }

      .cls-70 {
        fill: #1da2d6;
      }

      .cls-35 {
        fill: #9b5334;
      }

      .cls-71, .cls-40 {
        fill: #ffe536;
      }

      .cls-72 {
        fill: #e57857;
      }

      .cls-36, .cls-73 {
        fill: #bd6144;
      }

      .cls-74 {
        fill: #808c8c;
      }

      .cls-75 {
        fill: #231f20;
      }

      .cls-53, .cls-50 {
        mix-blend-mode: overlay;
      }

      .cls-76 {
        isolation: isolate;
      }

      .cls-30 {
        opacity: .2;
      }

      .cls-77 {
        fill: #332a2d;
      }

      .cls-78 {
        fill: #301b24;
      }

      .cls-5 {
        fill: #faefd1;
        stroke-width: 1.98px;
      }

      .cls-5, .cls-11, .cls-12 {
        stroke: #5b363d;
      }

      .cls-79 {
        fill: #d85365;
      }

      .cls-80 {
        fill: #eae3c3;
      }

      .cls-81 {
        fill: #ea8b24;
      }

      .cls-6 {
        fill: #cee6ed;
        stroke-width: 1.21px;
      }

      .cls-82 {
        fill: #cc741d;
      }

      .cls-40 {
        stroke: #eae3c3;
        stroke-linejoin: round;
        stroke-width: 10px;
      }

      .cls-83 {
        fill: #f2be3d;
      }

      .cls-84 {
        fill: #d69238;
      }

      .cls-85 {
        fill: #ca684d;
      }

      .cls-86 {
        fill: #602c34;
      }

      .cls-7 {
        stroke: #ffc431;
        stroke-width: .56px;
      }

      .cls-31 {
        fill: #ab794c;
      }

      .cls-87 {
        fill: #d6a434;
      }

      .cls-87, .cls-88, .cls-89 {
        mix-blend-mode: darken;
      }

      .cls-88 {
        fill: #c47f2c;
      }

      .cls-8 {
        stroke: #fff;
      }

      .cls-8, .cls-11 {
        fill: #d5ef65;
      }

      .cls-8, .cls-11, .cls-12 {
        stroke-width: 2.28px;
      }

      .cls-90 {
        fill: #af8023;
      }

      .cls-91 {
        fill: #8e3e28;
      }

      .cls-92 {
        fill: #c2b9bc;
      }

      .cls-93 {
        fill: #4f3a2a;
      }

      .cls-94 {
        fill: #4f3030;
      }

      .cls-95 {
        fill: #f4b321;
      }

      .cls-9 {
        stroke-width: .85px;
      }

      .cls-96 {
        fill: #aeb0af;
      }

      .cls-97 {
        fill: #e8dfe2;
      }

      .cls-98 {
        fill: #1c1619;
      }

      .cls-10 {
        stroke: #fffcee;
        stroke-width: .93px;
      }

      .cls-99 {
        fill: url(#linear-gradient);
      }

      .cls-100 {
        fill: #ffc229;
      }

      .cls-101 {
        fill: #c7e55a;
      }

      .cls-102 {
        fill: #8faebc;
      }

      .cls-103 {
        fill: #8e2b30;
      }

      .cls-104 {
        fill: #7c4a45;
      }

      .cls-105 {
        fill: #e6fff4;
      }
    </style>
    <linearGradient id="linear-gradient" x1="-954.82" y1="230.09" x2="-919.31" y2="300.56" gradientTransform="translate(959.88 350.91) rotate(-11.01)" gradientUnits="userSpaceOnUse">
      <stop offset=".1" stop-color="#ff4e30"/>
      <stop offset=".17" stop-color="#fa462c"/>
      <stop offset=".49" stop-color="#ea2c21"/>
      <stop offset=".77" stop-color="#e11d1a"/>
      <stop offset="1" stop-color="#de1818"/>
    </linearGradient>
    <radialGradient id="radial-gradient" cx="-2054.01" cy="9606.35" fx="-2054.01" fy="9606.35" r="462.61" gradientTransform="translate(586.17 -2226.55) rotate(-4.33) scale(.3)" gradientUnits="userSpaceOnUse">
      <stop offset="0" stop-color="#bedfed"/>
      <stop offset=".18" stop-color="#adcddb"/>
      <stop offset=".42" stop-color="#9cbbc9"/>
      <stop offset=".69" stop-color="#92b1bf"/>
      <stop offset="1" stop-color="#8faebc"/>
    </radialGradient>
  </defs>
  <g class="cls-76">
    <g id="Layer_1" data-name="Layer 1">
      <path class="cls-96" d="M866.78,836.78s-.04,0-.06,0c-1.38-.03-2.47-1.17-2.44-2.55.19-8.66-5.3-20.23-15.45-32.58-.88-1.07-.72-2.64.34-3.52,1.07-.88,2.64-.72,3.52.34,10.91,13.28,16.8,26.01,16.58,35.86-.03,1.36-1.14,2.44-2.5,2.44Z"/>
      <path class="cls-42" d="M537.89,327.89c9.05,0,21.23-1.87,26.33,19.57,2.83,11.92-8.95,14.78-8.95,14.78,0,0-19.15-13.74-18.52-13.95.62-.21,1.14-20.4,1.14-20.4Z"/>
      <path class="cls-96" d="M542.16,368.27c-2.76,0-5-2.24-5-5v-93.74l-61.14-19.18c-3.41-1.07-5.88-4.44-5.88-8.01v-18.73c0-4.13,3.36-7.49,7.49-7.49h127.38c2.76,0,5,2.24,5,5s-2.24,5-5,5h-124.88v15.06l61.14,19.18c3.41,1.07,5.88,4.44,5.88,8.01v94.91c0,2.76-2.24,5-5,5Z"/>
      <path class="cls-64" d="M729.69,108.72c18.32-5.83,64.32-13.74,64.32,36.84,0,37.39-30.6,56.82-30.6,89.29,0,0-29.22-20.42-17.48-64.32,14.36-53.7-3.54-60.78-22.27-49.85-14.17,8.26,6.04-11.97,6.04-11.97Z"/>
      <path class="cls-47" d="M635.22,109.51c5.34.26,11.29-.28,17.49-.09-1.89,6.04-2.57,12.89-2.32,20.16h0c-39.51,1.98-47.78-21.64-15.18-20.07Z"/>
      <path class="cls-22" d="M771.73,474c.62,7.49,5,14.99,6.87,31.22,2.17,18.77-.62,53.08-14.99,65.56-14.36,12.49-8.12-37.47-8.12-37.47l.62-60.57,15.61,1.25Z"/>
      <g>
        <path class="cls-68" d="M608.87,391.62c-2.53,0-5.08-.45-7.53-1.36l-41.84-15.47c-7.05-2.61-10.65-10.44-8.05-17.49,2.61-7.05,10.44-10.65,17.49-8.05l36.5,13.5,25.15-72.57c2.46-7.1,10.22-10.86,17.32-8.4,7.1,2.46,10.87,10.22,8.4,17.32l-27.02,77.95c-1.92,5.55-5.9,9.98-11.2,12.49-2.94,1.39-6.08,2.09-9.23,2.09Z"/>
        <polygon class="cls-15" points="615.34 332.22 637.07 353.7 641.23 340.79 615.34 332.22"/>
        <path class="cls-15" d="M567.97,348.91c1.67,1.77,2.81,8.53,2.19,17.8-.62,9.26-1.14,11.45-1.14,11.45l-10.72-4.06,9.68-25.18Z"/>
        <path class="cls-42" d="M557.98,374.1l-12.66-4.73c-7.04-2.62-10.63-10.46-8-17.51,2.62-7.05,10.46-10.63,17.51-8l12.66,4.73c1.95,1.04,2.36,6.57-1.59,15.52-2.54,5.75-7.18,10.26-7.91,9.99Z"/>
        <g>
          <path class="cls-71" d="M615.34,332.22l28,9.24,12.37,4.09,6.74-20.7c6.51-20.06,14.69-42.03,19.72-54.74l8-20.24s4.05-3.09,5.63-6.49c1.56-3.42.66-7.14-9.27-8.43-.17-.02-.36-.05-.53-.05-8.61-1.04-16.23.56-22.86,4-.03.01-.05.02-.08.05-.54.26-1.07.57-1.6.86-.03.01-.08.03-.11.06-10.39,6.07-18.18,16.74-23.24,28.83-8.4,20.12-12.92,33.25-16.04,42.85l-6.72,20.68Z"/>
          <polygon class="cls-27" points="628.74 337.05 652.03 277.63 679.33 353.83 628.74 337.05"/>
        </g>
      </g>
      <g class="cls-28">
        <path class="cls-65" d="M756.47,866.97c0-3.03-3.37-5.51-7.49-5.51H222.8c-4.12,0-7.49,2.48-7.49,5.51s3.37,5.51,7.49,5.51h526.18c4.12,0,7.49-2.48,7.49-5.51Z"/>
      </g>
      <g>
        <polygon class="cls-24" points="228.09 470.4 220.79 508.61 230.18 510.4 230.65 507.98 227.46 507.37 234.3 471.58 228.09 470.4"/>
        <path class="cls-2" d="M236.81,455.03l-3.82,19.98-19.98-3.82c-11.03-2.11-18.27-12.76-16.16-23.8,2.11-11.04,12.76-18.27,23.8-16.16,11.03,2.11,18.27,12.76,16.16,23.8Z"/>
        <path class="cls-4" d="M241.23,455.88l-3.82,19.98-19.98-3.82c-11.03-2.11-18.27-12.76-16.16-23.8,2.11-11.04,12.76-18.27,23.8-16.16,11.03,2.11,18.27,12.76,16.16,23.8Z"/>
        <g>
          <path class="cls-63" d="M221.26,467.06c-.94,0-1.9-.09-2.83-.27-8.12-1.55-13.47-9.42-11.92-17.55,1.35-7.06,7.54-12.19,14.72-12.19.94,0,1.9.09,2.83.27,3.94.75,7.34,2.99,9.59,6.31,2.25,3.31,3.08,7.31,2.33,11.24-1.35,7.06-7.54,12.19-14.72,12.19h0Z"/>
          <path class="cls-81" d="M221.23,437.79c.89,0,1.79.08,2.69.26,7.74,1.48,12.81,8.95,11.34,16.69-1.31,6.84-7.29,11.59-14,11.59-.89,0-1.79-.08-2.69-.26-7.74-1.48-12.81-8.95-11.34-16.69,1.31-6.84,7.29-11.59,14-11.59h0ZM221.23,436.32c-7.53,0-14.02,5.38-15.44,12.78-.79,4.13.08,8.32,2.44,11.79,2.36,3.48,5.93,5.82,10.06,6.61.98.19,1.98.28,2.97.28,7.53,0,14.02-5.38,15.44-12.78.79-4.13-.08-8.32-2.44-11.79-2.36-3.48-5.93-5.82-10.06-6.61-.98-.19-1.98-.28-2.97-.28h0Z"/>
        </g>
      </g>
      <g class="cls-28">
        <path class="cls-65" d="M899.74,875.71c0-3.03-3.37-5.51-7.49-5.51h-138c-4.12,0-7.49,2.48-7.49,5.51s3.37,5.51,7.49,5.51h138c4.12,0,7.49-2.48,7.49-5.51Z"/>
      </g>
      <g class="cls-28">
        <path class="cls-65" d="M302.8,875.71c0-3.03-3.37-5.51-7.49-5.51h-138c-4.12,0-7.49,2.48-7.49,5.51s3.37,5.51,7.49,5.51h138c4.12,0,7.49-2.48,7.49-5.51Z"/>
      </g>
      <path class="cls-82" d="M257.93,87.98c-8.64,10.7-13.71,20.72-12.06,27.22,2.12,8.36,14.41,6.38,64.17,4.93,49.16-1.44,70.26-16.03,60.72-41.67-5.71-15.34-112.83,9.52-112.83,9.52Z"/>
      <g>
        <g>
          <g>
            <path class="cls-84" d="M373.05,810.71c-.31,3.85-.67,7.95-1.05,11.71-.02.2-.05.4-.06.59-.74,7.02-1.52,12.74-2.14,13.25-.92.79-14.11,2.02-25.6.22-.84-.14-1.67-.29-2.49-.45-7.31-1.49-13.44-4.38-14.54-9.67-.14-.67-1.76-2.21-1.2-5.13.05-.29.12-.59.22-.91.09-.29.22-.74.37-1.34,1.69-6.27,6.84-28.1,7.04-31.56.02-.26.01-.41-.04-.45-.55-.41.05-.13,1.22.45,2.45,1.2,7.41,3.7,9.83,3.95,2.73.26,17.98,1.41,25.28,2.75,2.26.42,3.76.85,3.88,1.29.21.75-.15,7.49-.75,15.3Z"/>
            <path class="cls-93" d="M325.6,826.12s-1.47,7.8,12.54,7.41c13.37-.38,20.69-16.01,20.69-16.01l21.64-1.29s1.51,9.83,3.22,12.19c4.67,6.43,16.77,18.89,16.77,18.89l24.9.44s1.95,19.97-5.69,20.18c-7.64.22-22.76.52-29.13.7s-39.98-7.54-39.98-7.54c0,0-28.64,1.17-28.64.8-.05-27.04,3.67-35.78,3.67-35.78Z"/>
            <polygon class="cls-93" points="321.43 867.21 364.87 867.25 365.07 860.68 345.79 856.42 320.91 856.66 321.43 867.21"/>
            <path class="cls-84" d="M428.17,851.71v.05c-.02.34-.11,1.95-.4,3.32-.14.55-.27,1.04-.41,1.54-.01.05-.07.16-.07.21-.06.16-.12.32-.19.5-.01.1-.08.21-.08.26-.11.16-.17.32-.25.49,0,.11-.06.17-.06.22-.12.27-.25.54-.42.81-.06.11-.12.21-.19.32-.06.11-.12.21-.19.32-.11.16-.18.26-.3.37-.06.1-.11.16-.18.26-.12.16-.3.37-.47.54l-.17.15c-.11.16-.24.27-.35.37-.06.05-.17.1-.24.15-.11.11-.29.21-.46.31-.05,0-.05.05-.11.05-.17.16-.4.26-.62.3-.05.06-.11.05-.17.11-.16.04-.34.09-.5.14-.06,0-.11.05-.22.04-.22.05-.45.09-.67.07-3.4.1-8.23.24-13.08.37-4.78.15-9.69.27-13.19.37-.84.01-1.62.02-2.22.05-.22.05-.45.04-.67.02l-.77-.04c-.16-.01-.34-.02-.5-.09l-1.05-.05c-.11-.06-.27-.08-.39-.08-.27-.01-.5-.09-.77-.1l-.39-.02c-.27-.06-.55-.08-.89-.15h-.27c-.32-.09-.66-.16-1.05-.19-.05,0-.11,0-.21-.06-.39-.02-.77-.1-1.21-.17-6.34-1-14.81-2.66-21.69-4.07-6.87-1.41-12.2-2.57-12.2-2.57,0,0-29.78,1.06-29.82.72-.02-3.78.1-7.22.26-10.33l.06-1.21c.47-7.71,1.36-13.24,2.25-17.05,1.16-5.11,2.29-7.12,2.29-7.12,0,0,.85,6.47,8.82,8.17,2.07.45,4.65.56,7.81.15,5.27-.69,8.88-3.55,11.29-6.78,2.5-3.31,3.73-7.01,4.27-9.09.32-1.04.41-1.7.41-1.7l5.18-.17,3.96-.11,8.5-.24,4.62-.15s.21,1.4.55,3.25v.06c.05.27.15.5.19.79,0,.05-.01.11.04.22.05.27.09.56.19.84-.01.06-.01.11.04.17.05.27.09.56.19.84-.01.06-.01.11-.01.11.1.34.19.62.22.96.06.05.05.11.05.16.1.34.19.62.24.9.05.01.05.06.05.06.05,1.04.42,2.11.9,3.07.85,1.74,2,3.08,2,3.08,4.85,6.06,13.59,14.81,15.14,16.35.15.15.24.24.24.24,0,0,7.28,1.1,14.01.89,6.73-.15,13.21,2.3,13.36,8.09-.01.21-.02.44.02.66Z"/>
            <path class="cls-84" d="M382.6,820.56s-3.36.71-8.24,1.87c-.76.19-1.56.37-2.41.59-4.83,1.19-10.7,2.71-16.16,4.38-4.9,1.5-8.73,5.18-11.58,9.09-.84,1.15-1.59,2.31-2.26,3.45-2.81,4.78-4.15,9.04-4.15,9.04l-16.43-3.92c1.1-18.06,4.53-24.17,4.53-24.17,0,0,.02.13.09.35.45,1.45,2.93,6.84,15.22,5.59.39-.04.79-.09,1.19-.14,3.9-.51,6.73-2.16,8.82-4.27,3.66-3.67,5.01-8.7,5.67-11.31l16.17-.4,7.91-.2,1.64,10.04Z"/>
          </g>
          <path class="cls-46" d="M375.04,817.57h-18.62c-16.27,0-10.81-22.61-10.81-22.61,0,0-25.47,2.46-27.06-28.74-4.21-82.62-12.42-238.92-16.28-307.24-.38-6.63-6.23-12.8-4.3-11.14l3.63-25,65.98,5.1s2.24,21.08,3.2,52.75c3.18,106.81,5.85,336.89,4.26,336.89Z"/>
          <g>
            <g>
              <path class="cls-84" d="M243.2,823.68c-1.07,3.54,2.31,1.96,2.47,2.69,2.89,13.98,41.02,11.25,42.62,9.89,1.6-1.36,4.52-39.02,3.99-40.84-.53-1.82-25.57-3.68-29.17-4.04-3.59-.35-12.73-5.65-11.05-4.39.7.53-5.9,26.85-8.86,36.69Z"/>
              <path class="cls-66" d="M244.07,826.12s-1.47,7.8,12.54,7.41c13.37-.38,20.69-16.01,20.69-16.01l21.64-1.29s1.51,9.83,3.22,12.19c4.67,6.43,16.77,18.89,16.77,18.89l24.9.44s1.95,19.97-5.69,20.18c-7.64.22-22.76.52-29.13.7-6.37.18-39.98-7.54-39.98-7.54,0,0-28.64,1.17-28.64.8-.05-27.04,3.67-35.78,3.67-35.78Z"/>
              <polygon class="cls-66" points="239.91 867.21 283.34 867.25 283.55 860.68 264.27 856.42 239.39 856.66 239.91 867.21"/>
              <path class="cls-84" d="M346.64,851.71v.05c-.02.34-.11,1.95-.4,3.32-.14.55-.27,1.04-.41,1.54,0,.05-.06.16-.07.21-.06.16-.12.32-.19.5,0,.1-.06.21-.07.26-.11.16-.17.32-.24.49-.01.11-.07.17-.07.22-.12.27-.25.54-.42.81-.06.11-.12.21-.19.32-.06.11-.12.21-.19.32-.11.16-.17.26-.29.37-.06.1-.12.16-.19.26-.12.16-.3.37-.47.54l-.17.15c-.11.16-.24.27-.35.37-.06.05-.17.1-.22.15-.12.11-.3.21-.46.31-.06,0-.06.05-.11.05-.17.16-.41.26-.64.3-.05.06-.11.05-.16.11-.17.04-.35.09-.51.14-.06,0-.11.05-.22.04-.22.05-.45.09-.67.07-3.4.1-8.23.24-13.08.37-4.78.15-9.68.27-13.19.37-.84.01-1.61.03-2.22.05-.22.05-.45.04-.67.02l-.77-.04c-.16-.01-.34-.02-.5-.09l-1.05-.05c-.11-.06-.27-.08-.39-.08-.27-.01-.5-.09-.77-.1l-.39-.02c-.27-.06-.55-.08-.87-.15h-.29c-.32-.09-.65-.16-1.04-.19-.06,0-.11,0-.22-.06-.39-.02-.77-.1-1.21-.17-6.34-1-14.81-2.66-21.68-4.07-6.88-1.41-12.21-2.57-12.21-2.57,0,0-11.89.42-20.66.65-5.11.14-9.15.2-9.17.07-.02-3.78.1-7.22.26-10.33l.06-1.21c.36-5.74.95-10.29,1.59-13.8,1.36-7.53,2.95-10.37,2.95-10.37,0,0,1.36,10.3,16.63,8.32,5.27-.69,8.87-3.55,11.28-6.78,2.5-3.31,3.73-7.01,4.27-9.09.32-1.04.42-1.7.42-1.7l5.17-.17,2.41-.06,10.05-.29,4.62-.15s.02.14.06.37c.09.55.26,1.6.5,2.87v.06c.04.27.14.5.17.79,0,.05-.01.11.05.22.04.27.07.56.17.84,0,.06-.01.11.05.18.04.27.07.56.17.84,0,.06-.01.11-.01.11.1.34.2.62.24.96.05.05.05.11.04.16.1.34.2.62.24.9.05.01.05.06.05.06.12,2.9,2.91,6.16,2.91,6.16,5.32,6.67,15.36,16.58,15.36,16.58,0,0,7.28,1.1,14.01.89,6.73-.15,13.21,2.3,13.36,8.09-.01.21-.02.44.02.66Z"/>
            </g>
            <g>
              <g>
                <path class="cls-22" d="M302.62,785.08c8.94-3.46,12.32-356.25,12.32-356.25l-65.03-6-5.05,25c-1.84-1.67-5.92,11.14-5.92,11.14l7.07,323.91c49.95,7.49,43.7,7.19,56.61,2.2Z"/>
                <path class="cls-68" d="M361.49,460.54c-3.2,0-6.42-1.09-9.06-3.33-5.9-5.01-6.62-13.85-1.61-19.74l40-47.12c.33-.59.65-1.91.62-2.59l-26.7-110.04c-1.82-7.52,2.79-15.09,10.31-16.92,7.52-1.83,15.09,2.79,16.92,10.31l26.74,110.22c2.16,8.91-.47,20.02-6.41,27.01l-40.12,47.26c-2.77,3.26-6.72,4.94-10.69,4.94ZM391.47,387.93h.01-.01ZM391.42,387.67h0Z"/>
                <g>
                  <path class="cls-71" d="M405.06,324.06l-29.62,5.7-13.09,2.53-4.81-22.02c-4.64-21.34-10.81-44.84-14.68-58.48l-6.15-21.72s-3.84-3.69-5.11-7.37c-1.25-3.69.05-7.37,10.35-7.37.18,0,.37,0,.55.02,8.93.09,16.58,2.73,23.02,7.12.03.02.05.03.08.06.53.34,1.04.72,1.56,1.09.03.01.08.04.11.07,10.03,7.58,16.94,19.5,20.89,32.51,6.58,21.65,9.88,35.65,12.11,45.86l4.8,22Z"/>
                  <polygon class="cls-27" points="386.44 327.7 369.69 256.9 344.06 335.31 386.44 327.7"/>
                </g>
                <path class="cls-22" d="M371.15,422.25l-126.5,58.71-4.59,53.93c.64,14.89,11.89,5.13,26.62,2.92l77.84-23.9c14.74-2.21,28.43-4.32,28.4-19.23l-1.78-72.43Z"/>
                <path class="cls-71" d="M367.59,451.19s.3-.52.62-1.21c.1.71-.62,1.21-.62,1.21Z"/>
                <path class="cls-71" d="M373.43,254.6s-.72,34.97-1.58,75.16c-1.09,50.7-2.36,109.69-2.63,117.26-.03.8-.56,2.04-1,2.95-.22-1.86-5.85-5.13-43.35-4.85-61.14.49-85.58,46.38-85.58,46.38v-238.02c0-21.19,19.36-38.46,39.23-38.3h61.33c.9.01,1.79.06,2.66.15,5.22.46,9.96,2.2,14.08,4.91,10.42,6.83,16.84,19.86,16.84,34.35Z"/>
                <polygon class="cls-10" points="275.14 266.46 269.33 266.43 267.81 266.43 234.79 333.03 248.7 332.36 248.31 373.38 295.91 356.61 275.53 353.16 275.14 266.46"/>
                <path class="cls-22" d="M372.97,452.65s-4.35,2.37-11.45,6.08c-32.11,16.7-120.7,60.6-122.24,36.66-.12-1.62-.17-3.45-.28-5.56-.06-1-.06-1.99-.06-2.94-.63-19.9-.47-60.5-.12-97.96.38-42.25,1-80.48,1-80.48l12.42-3.5-.84,47.92c1.39,0,16.13-1.41,23.34-2.03,2.05-.18,3.5-.29,3.85-.29,7.76,0,9.75-28.24,10.24-51.45.22-11.03.11-6.18.11-11.36h75.47c0,77.08.77,62.31,7.97,62.31,0,0,.06,1.8.15,5.2.33,12.92,1.05,49.05.44,97.41Z"/>
                <g>
                  <path class="cls-21" d="M252.79,123.76c.58,29.35,12.45,35.71,24.22,35.71,9.65,0,17.65-13.32,17.3-16.43-.35-3.11-3.81-21.45-6.57-22.49-2.77-1.04-34.94,3.22-34.94,3.22Z"/>
                  <path class="cls-21" d="M283.18,153.07c-1.91-3.84-3.09,8.36-3.12,6.9-.49-25.63-25.55-6.47-27.28-34.84-1.48-24.19,1.43-24.48.78-36.23-1.3-23.35,12.27-48.13,62.18-47.75,27.79.21,34.92,11,41.18,25.16,11.67,26.36,2.25,60.22,2.25,60.22l-76,26.55Z"/>
                  <path class="cls-14" d="M328.1,216.99s.38,9.86-15.68,9.86c-16.06,0-26.07-9.86-26.07-9.86v-48.92l41.75-2.31v51.23Z"/>
                  <path class="cls-67" d="M328.1,206.52c-10.94,1.34-41.45-2.58-41.45-9.77s-.29-39.07-.29-39.07l41.75.28v48.56Z"/>
                  <path class="cls-67" d="M364.17,142.02c0,9.61-8.38,31.77-13.58,38.4-2.22,2.83-5.28,9.25-12.32,11.39-6.41,1.94-10.2,3.31-10.2,6.77,0,3.76-7.88-3.52-10.58-3.52-32,0-47.82-34.47-47.82-57.95l9.86-30.81c0-25.71,17.06-44.19,41.89-44,24.83.19,44.83,17.12,44.83,42.83l-2.09,36.89Z"/>
                  <path class="cls-14" d="M366.91,104.13l-.33,10.21-.19,5.81-.69,21.9c-.95,26.97-7,51.88-39.75,51.61-32.68-.22-41.45-39.79-40.56-65.44l1.55-22.31c0-.93,0-1.88.06-2.76.66-33.47,14.26-45.73,38.28-45.73,30.01,0,40.69,17.6,41.61,40.28.09,2.11.09,4.26.01,6.44Z"/>
                  <path class="cls-67" d="M337.79,148.23c4.66,0,8.63-2.63,8.42-5.31-.07-.98-1.05-2.16-2.88-1.3-.84.39-3.1.86-5.51.84-2.41-.02-3.71-.5-5.07-.91-2.96-.89-3.9.28-3.97,1.25-.21,2.68,4.36,5.37,9.02,5.42Z"/>
                  <path class="cls-67" d="M285.88,125.87c.68,9.58-4.19,17.81-10.88,18.38-6.69.57-12.66-6.73-13.34-16.31-.68-9.58,3.05-17.04,9.67-18.22,6.62-1.18,13.87,6.57,14.55,16.15Z"/>
                  <path class="cls-20" d="M314.19,123.75c0,2.28,1.86,4.14,4.15,4.15,2.29.02,4.15-1.81,4.15-4.09s-1.86-4.14-4.15-4.15c-2.29-.02-4.15,1.81-4.15,4.09Z"/>
                  <path class="cls-20" d="M350.88,124.39c0,2.28,1.86,4.14,4.15,4.15,2.29.02,4.15-1.81,4.15-4.09s-1.86-4.14-4.15-4.15c-2.29-.02-4.15,1.81-4.15,4.09Z"/>
                  <path class="cls-21" d="M306.97,109.43c-1.41,0-2.57-1.13-2.6-2.54-.03-1.43,1.11-2.62,2.54-2.65l18.7-.38c1.43,0,2.62,1.11,2.65,2.54.03,1.43-1.11,2.62-2.54,2.65l-18.7.38s-.04,0-.05,0Z"/>
                  <path class="cls-21" d="M363.89,110.59s-.04,0-.05,0l-18.7-.38c-1.43-.03-2.57-1.21-2.54-2.65.03-1.43,1.22-2.56,2.65-2.54l18.7.38c1.43.03,2.57,1.21,2.54,2.65-.03,1.42-1.19,2.54-2.6,2.54Z"/>
                  <path class="cls-21" d="M275.81,102.41c0-14.56,6.52-27.57,16.69-36.08-4.9-6.09-6.68-15.19-5.63-16.02,1.73-1.38,24.16-18.05,50.63-2.74,18.13,10.48,26.42,17.52,23.32,24.96.04.09.08.17.12.25-.05-.05-.1-.11-.16-.16-2.81,6.61-9.03,10.91-14.57,10.91-23.18,0-22.69-13.61-39.96-12.28-6.75.52-16.04,2.23-16.04,19.1,0,18.29-3.95,39.94-4.06,39.95-5.43.35-5.5-3.17-5.5-3.17,0-9.69-1.45-15.11-7.61-17.99l2.79-6.72Z"/>
                </g>
                <path class="cls-67" d="M333.89,169.22h-.04c-6.49,0-11.09-.92-13.67-2.74-1.28-.9-1.59-2.67-.69-3.95.9-1.28,2.67-1.59,3.95-.69,1.51,1.07,5.41,1.7,10.41,1.7,2.76.02,6.6-.17,8.75-1.69,1.28-.9,3.05-.6,3.95.68.9,1.28.6,3.05-.68,3.95-3.42,2.41-8.2,2.73-11.99,2.73Z"/>
                <g>
                  <path class="cls-86" d="M343.54,522.58c0-.07,0-.14,0-.21,0,.07,0,.14,0,.21Z"/>
                  <path class="cls-86" d="M343.48,520.47s0,.05,0,.08c0-.03,0-.05,0-.08Z"/>
                  <path class="cls-86" d="M343.51,518.49s0,.08,0,.12c0-.04,0-.08,0-.12Z"/>
                  <path class="cls-86" d="M344.28,529.13c-.03-.14-.05-.29-.08-.43.03.14.05.29.08.43Z"/>
                  <path class="cls-86" d="M343.91,526.77c0-.07-.02-.13-.02-.2,0,.07.01.13.02.2Z"/>
                  <path class="cls-86" d="M343.69,524.78c0-.1-.02-.21-.03-.31,0,.1.02.21.03.31Z"/>
                </g>
              </g>
              <path class="cls-22" d="M305.05,289.19l-7.5.4-8.6-.4c.27-20.76-4.15-64.12-23.06-70.97-.87-1.13-1.83-1.69-2.86-1.5-.93.16-1.84.35-2.72.58-.23-.01-.48,0-.71.01,0,0,5.42-1.03,9.23-1.56,3.8-.55,9.67-.55,9.67-.55,21.77,0,26.84,51.09,26.55,73.99Z"/>
              <path class="cls-22" d="M338.18,215.2s-5.86-.57-9.67-.03c-.13.02-.28.04-.41.06v1.75s.02.63-.2,1.56c16.93,6.23,20.98,52.24,20.73,72.12l9.33-.72,6.46.72c.29-22.9-4.48-75.47-26.25-75.47Z"/>
            </g>
            <path class="cls-27" d="M365.3,222.47c-2.11-1.3-5.16-1.98-8.72-2.22-7.48-.52-17.18.89-25.21,2.45-2.98.59-5.72,1.2-8.04,1.74,4.94-2.91,4.76-7.46,4.76-7.46v-1.79h11.75c.9.01,1.79.06,2.66.15,8.92.09,16.49,2.73,22.8,7.12Z"/>
            <path class="cls-70" d="M278.87,807.03c-6.92,5.03-19.84,4.57-19.84,4.57l-2.36-4.57-8.57-21.75c-2.5-1.05-6.96-6.06-8.22-16.34-5.26-42.74-1.09-152.98-1.28-260.74-.05-25.03-.1-49.28-.12-71.73-.15-73.13-.26-127.23-.26-127.23l14.05-4.28-.85,47.92c1.39,0,16.13-1.41,23.34-2.04v113.13l-.21,4.21-1.1,21.12-1,18.91-1.51,29.04s-14.12,149.04-2.5,219.46c2.15,13,5.17,23.2,9.33,29.11,7.93,11.28,6.04,17.65,1.11,21.23Z"/>
          </g>
          <path class="cls-22" d="M391.03,773.84c-.32,1.62-.69,3.15-1.09,4.57-2.1,7.53-5.07,8.24-7.28,9.47l-5.91,6.68-20.33,23.02-10.94-.56-1.9-26.62-.5-7.09-18.93-262.24,48.24-40.01c2.65,89.1,29.28,240.3,18.64,292.8Z"/>
          <polygon class="cls-46" points="320.86 542.11 335.63 515.51 313.73 523.37 320.86 542.11"/>
          <path class="cls-27" d="M366.96,101.01c0-.1,0-.21,0-.31-.09-24.11-10.34-43.3-41.67-43.3-24.03,0-34.34,16.7-36.2,51.41.41-4.92,9-6.7,20.32-8.5,5.01,5.7,30.91,20.07,56.99,13.91l.19.11.19-5.91.14-4.3c.04-1.05.05-2.09.05-3.12Z"/>
          <path class="cls-46" d="M274.75,350.84v84.87h-36.25c.11-66.51.16-127.26.16-127.26l13.59-3.5-.84,47.92c1.39,0,16.13-1.41,23.34-2.03Z"/>
          <path class="cls-46" d="M289.82,442.29v60.07c0,3.21-2.62,5.83-5.83,5.83h-45.4c-.05-25.03-.09-49.28-.13-71.73h47.86c1.62,0,.77.68,1.82,1.76,1.05,1.05,1.68,2.48,1.68,4.07Z"/>
        </g>
        <rect class="cls-59" x="287.24" y="269.68" width="19.21" height="14.89" rx="2.96" ry="2.96"/>
        <rect class="cls-59" x="347.08" y="269.68" width="19.21" height="14.89" rx="2.96" ry="2.96"/>
        <rect class="cls-22" x="293.15" y="273.72" width="11.82" height="5.35" rx="2" ry="2"/>
        <rect class="cls-22" x="352.81" y="273.72" width="11.82" height="5.35" rx="2" ry="2"/>
        <rect class="cls-46" x="238.42" y="437.93" width="132.99" height="26.09" rx="3.5" ry="3.5"/>
        <rect class="cls-41" x="235.29" y="430.93" width="138.87" height="26.09" rx="5.83" ry="5.83"/>
        <path class="cls-41" d="M292.1,453.54c.21,1.91-1.19,3.48-3.11,3.48h-19.88c-1.92,0-3.5-1.28-3.5-2.84s0-2.84,0-2.84,0-1.57,0-3.5v-9.72c0-1.92,1.57-3.5,3.5-3.5h.19c1.92,0,3.36-.83,3.2-1.84-.17-1.01,1.27-1.84,3.2-1.84h10.39c1.92,0,3.67,1.57,3.89,3.48l2.12,19.13Z"/>
        <path class="cls-22" d="M265.9,218.23c-1.74-.64-3.59-.97-5.58-.92.87-.23,1.78-.42,2.72-.58,1.03-.19,1.98.37,2.86,1.5Z"/>
        <path class="cls-22" d="M308.56,705.87c-2.19,29.04,9.78,70.87-7.15,80.6-.5.28-1.52.55-2.13.94-6.92,4.41-17.78,19.63-17.78,19.63h-24.84l-9.72-19.99c-6.66-2.91-8.74-12.49-8.33-37.05-.21,17.52,3.43,24.14,16.85,23.77,7.76-.22,14.86-7.16,12.96-17.07-.25-1.3-.04-2.72-.25-4.2-3.33-22.89,41.6-62.83,40.38-46.62Z"/>
        <path class="cls-46" d="M391.03,773.84c-.32,1.62-.69,3.15-1.09,4.57-2.1,7.53-5.07,8.24-7.28,9.47l-5.91,6.68c-8.79-.4-22.49-2.31-33.17-4.17-7.43-1.3-13.41-2.59-15.25-3.33-2.35-.96-3.63-2.71-4.36-4.68,4.47.59,11.41.95,19.11.92,17.62-.09,43.05-3.11,47.94-9.45Z"/>
        <path class="cls-46" d="M289.95,531.64c-3.38-.58-6.07-3.86-5.96-7.3l1.98-64.16c.11-3.43,1.92-6.41,4.04-6.61,2.12-.2,5.37,1.99,7.24,4.88l1.79,2.77c1.86,2.88,3.3,8.05,3.19,11.48l-1.74,54.46c-.11,3.43-2.97,5.77-6.35,5.19l-4.19-.72Z"/>
      </g>
      <path class="cls-38" d="M273.56,42.59c1.46-5.95,6.29-14.6,21.08-15.3,14.74-.7,14.97,11.08,13.61,13.18-1.36,2.1-5.51,6.73-5.51,6.73l-13.95,2.63-15.22-7.25Z"/>
      <path class="cls-18" d="M252.34,115.55c-.05,2.13-3.3-1.72-3.82-3.41-.74-2.39-1.82-4.63-.03-6.4.95-.94,23.92-22.99,84.09-21.29,26.02.73,33.69,3.36,36,11.42,2.3,8-2.72,14.62-2.48,13.32.41-2.22.88-7.23-1.12-9.89-.03-.04-2.44-5.09-32.58-5.9-56.3-1.53-77.18,18.53-77.38,18.73-.92.91-2.81,2.26-2.67,3.42Z"/>
      <path class="cls-57" d="M368.93,88.07c-2.1-1.68-4.25-2.05-8.65-2.12-1.61-.03-3.53-.01-5.86,0-3.12.02-6.99.01-11.85-.12-20.86-.59-42.34,1.85-59.76,6.58-17.7,4.78-31.19,13.3-35.95,20.93-1.4.96-2.76-8.78-3.35-18.89-.19-3.33-.3-6.7-.3-9.74-.03-.68-.02-1.33,0-1.98.1-4.83.82-9.6,2.13-14.18,4.92-16.85,18.3-31.26,41.33-37.51,2.61-.72,5.33-1.33,8.17-1.81,1.58-.27,3.2-.52,4.87-.71.12,0,.24-.07.32-.06,3.27-.38,6.67-.62,10.28-.75.2,0,.39-.02.6-.02,1.36-.03,2.65-.03,3.96.02,8.04.18,11.88.7,17.95,2.94,4.09,1.51,6.47,4.87,6.89,5.08,15.5,6.21,22.29,14.52,26.95,25.68,5.79,13.78,5.06,26.51,2.28,26.66Z"/>
      <path class="cls-37" d="M360.27,85.95c-.38,1.15-.88,1.8-1.51,1.83-1.26-1.02-2.56-1.56-4.35-1.83-3.74-.6-9.65-.06-22.08-.41l-12.1-.68c3.01-.15,3.81-13.8-2.43-28.57-4.07-9.74-14.84-25.43-24.89-26.78,1.58-.27,5.11-.79,6.78-.98.12,0,.24-.07.32-.06,3.27-.38,6.67-.62,10.28-.75,5.71.57,10.83,1.81,15.42,3.54.43.16.86.31,1.28.52,15.55,6.22,24.8,18.14,29.48,29.32,4.52,10.74,5.07,20.84,3.79,24.86Z"/>
      <path class="cls-57" d="M360.7,61.22c-4.66-11.18-16.05-24.93-30.46-31.75-.41-.2-.84-.36-1.27-.52-6.07-2.28-13.99-2.18-22.05-2.36-1.31-.05-2.61-.05-3.96-.02-2.84.08-5.69.46-8.32.7,2.64.37,5.23,1.41,6.38,1.93,9.61,4.34,17.35,17.15,21.23,26.42,6.22,14.76,5.25,29.18,2.26,29.34l12.08.68c18.35.52,22.5-.88,26.4,2.25,2.79-.15,3.52-12.9-2.28-26.69Z"/>
      <path class="cls-62" d="M245.87,114.95c4.1-8.51,19.23-17.76,36.93-22.54,17.42-4.72,38.89-7.17,59.76-6.58,18.33.51,22.47-.88,26.36,2.25,2.78-.15,3.51-12.89-2.28-26.67-4.66-11.18-11.06-19.46-26.57-25.67,13.1,8.6,15.52,31.02,15.7,37.83.07,2.73-15.12-.08-60.67,9.63-36.67,7.81-56.67,20.74-49.23,31.76Z"/>
      <path class="cls-71" d="M390.24,83.15s-14.87,3.52-22.27,5.26c0,0-1.7-1.34-7.02-2.7-4.54-1.14-11.71-2.3-22.73-2.61-6.41-.18-16.19,1.2-25.23,2.83-11.89,2.12-22.51,4.7-22.51,4.7l-.77-6.02s6.75-4.35,23.47-7.79c11.23-2.32,26.93-4.23,48.02-4.1,2.75,0,5.61.06,8.55.15,19.32.58,19,3.14,20.41,5.04.63.85.08,5.24.08,5.24Z"/>
      <path class="cls-45" d="M361.19,72.71l-.25,13.01c-4.54-1.14-11.71-2.3-22.73-2.61-6.41-.18-16.19,1.2-25.23,2.83l.18-9.12c11.23-2.32,26.93-4.23,48.02-4.1Z"/>
      <path class="cls-82" d="M369.66,77.32c-59.11-1.73-79.83,13.42-79.83,13.42,0,0,24.27-3.83,48.29-3.16,23.89.67,29.75,5.29,29.75,5.29,6.36-1.49,45.63-13.97,1.78-15.55Z"/>
      <path class="cls-39" d="M284.28,430.92v60.07c0,3.21-2.62,5.83-5.83,5.83h-50.16c-3.21,0-5.83-2.62-5.83-5.83v-60.07c0-3.21,2.62-5.83,5.83-5.83h50.16c1.62,0,3.1.68,4.15,1.76,1.05,1.05,1.68,2.48,1.68,4.07Z"/>
      <path class="cls-41" d="M282.43,425.86c.1-.43-.03-.69-2.74-.75-.03,0-.05,0-.08,0h-.46c-.23,0-.45,0-.71,0-.09,0-.17,0-.25,0h-.91c-.23,0-.44.04-.66.07-4.43.36-4.97,1.97-4.97,1.97-1.66,2.23-1.66,5.14-1.66,7.58v23.04c0,4.18-3.41,7.58-7.58,7.58h-32.37c-4.18,0-7.58-3.41-7.58-7.58v8.08c1.98,1.87,4.65,3,7.58,3h32.37c3.73,0,7.03-1.86,9.04-4.7v26.86c0,3.21,2.62,5.83,5.83,5.83h2.33c3.21,0,5.83-2.62,5.83-5.83v-60.06c0-2.18-1.23-4.07-3.02-5.07Z"/>
      <rect class="cls-84" x="247.07" y="787.44" width="52.23" height="34.99"/>
      <rect class="cls-84" x="326.59" y="787.44" width="56.81" height="34.99"/>
      <path class="cls-88" d="M383.39,787.44v.95c-3.81,3.11-8.57,4.82-13.47,5.74-9.74,1.86-20.02.57-24.31.82-5.23.3-5.91,2.78-4.63,27.47.07,1.4.15,2.86.24,4.41.15,2.81.32,5.87.51,9.2.02.34.04.69.06,1.04,7.03.96,14.25,3.12,18.75,8.72,1.05,1.3,1.87,2.64,2.51,4,.11.14.22.27.34.41.41.56.52,1.09.46,1.57,1.34,4.01,1.27,8.29.41,12.84-.6,3.16-5.42,1.82-4.82-1.32.06-.32.11-.65.16-.96-.95.07-1.84-.34-2.34-1.1-.24.17-.46.35-.71.51-1.9,1.17-4.22-.75-3.67-2.82.04-.15.05-.27.07-.41-.82,1.16-1.9,2.09-3.21,2.55-2.57.92-3.81-.65-4.48-2.97.06-.16.12-.32.24-.49.01-.05.07-.16.07-.26.06-.17.12-.34.19-.5.01-.05.07-.16.07-.21.14-.5.27-.99.41-1.54.29-1.37.37-2.98.39-3.32v-.05c-.04-.22-.02-.45-.01-.66-.15-5.79-6.63-8.24-13.36-8.09-3.21.1-6.53-.1-9.14-.32-.19-.02-.37-.04-.56-.05-.07-.01-.14-.02-.21-.02-.24-.02-.46-.05-.67-.07-.24-.01-.45-.04-.66-.06-.15-.01-.3-.04-.45-.05,1.25-15.99,5.03-24.31,5.03-32.28v-22.66h56.81Z"/>
      <path class="cls-35" d="M330.62,838.98c-.05,1.21-.14,2.56-.21,4-3.63-.05-7.11-.4-9.19-.64.35-4.48.85-8.14,1.39-11.08,4.33.49,8.25,2.37,8.02,7.72Z"/>
      <path class="cls-52" d="M319.24,842.07c-33.44,0-33.17-8.4-33.99-16.73-.09-.86-.15-1.85-.2-2.91-.16-3.21-.22-7.16-.49-11.03-.49-7.14-1.69-13.99-5.56-15.2-5.86-1.84-24.84-4.3-31.93-5.99v-2.77h52.23v23.9c.09.55.26,1.6.5,2.87v.06c.04.27.14.5.17.79,0,.05-.01.11.05.22.04.27.07.56.17.84,0,.06-.01.11.05.17.04.27.07.56.17.84,0,.06-.01.11-.01.11.1.34.2.62.24.96.05.05.05.11.04.16.1.34.2.62.24.9.05.01.05.06.05.06.12,2.9,2.91,6.16,2.91,6.16,5.32,6.67,15.36,16.58,15.36,16.58Z"/>
      <path class="cls-46" d="M303.85,781.86c-7.14,3.03-46.02,2.52-61.26.5.73,1.97,2.01,3.73,4.36,4.68,5.62,2.29,45.69,2.88,52.35.39,4.74-1.77,6.85-4.27,8.41-8.39-.96,1.42-2.17,2.09-3.86,2.81Z"/>
      <path class="cls-46" d="M373.6,780.59c-15.3,2.5-30.6,4.47-31.33-6.97-.66-10.39-15.1,6.66-21.65,3.85,1.04,3.33,3.33,8.95,6.04,10.2,5.51,2.54,51.99,5.18,56.62-.21,5.82-6.78-5.53-2.75-3.96-6.86-.96,1.42-3.91-.3-5.72,0Z"/>
      <path class="cls-52" d="M400.53,841.84c-.3-.01-.6-.02-.91-.05-25.74-1.96-30.11-9.12-31.26-19.36-.31-2.8-.39-5.83-.59-9.05-.04-.7-.09-1.37-.14-2.02-1.04-13.14-3.48-14.89-7.36-15.77-16.31-3.76-29.97-6.56-33.69-8.14h56.81v34.97c.85,1.74,2,3.08,2,3.08,4.85,6.06,13.59,14.81,15.14,16.35Z"/>
      <path class="cls-46" d="M323.98,782.37c1.86,1.97.03,3.17,2.61,5.07s52.14,4.76,56.81,0c0,0,1.76-.96,2.75-6.38,0,0-3.49,1.82-8.64,2.76-5.15.94-9.78.31-12.02.21-2.24-.1-21.65-2.39-24.46-2.13-2.81.26-13.06-.57-13.06-.57,0,0-4.53.99-4.32.99l.33.06Z"/>
      <path class="cls-35" d="M248.68,856.52c-5.11.14-9.15.2-9.17.07-.02-3.78.1-7.22.26-10.33l.06-1.21c.36-5.74.95-10.29,1.59-13.8,4.33.49,8.25,2.37,8.02,7.72-.21,4.93-.87,12.36-.76,17.55Z"/>
      <g>
        <g>
          <path class="cls-102" d="M300.03,412.25c5.11,3.32,7.99,9.49,6.82,15.86-1.17,6.37-6.06,11.11-12.01,12.4l-2.27-10.91,5.01-3.99,2.45-13.36Z"/>
          <path class="cls-30" d="M294.98,427.69l2.52-1.98-.38,2.38s7.3,1.41,9.3,1.8c-.49,1.61-1.23,3.08-2.16,4.4-3.91-.67-9.54-1.76-9.85-1.81-.2-.03-.83-.62-1.51-1.31l-.32-1.55,2.41-1.93Z"/>
          <path class="cls-49" d="M287.14,409.13l-2.62,14.29,3.02,4.18,21.49,3.95c-.13.31-.29.62-.46.94-.01.02-.02.05-.04.07-.01.02-.02.04-.03.06-.64,1.16-1.42,2.23-2.31,3.17-1.96,2.27-4.33,4.4-5.86,5.89-4.25,4.14-5.1,7.36-5.93,18.6l-5,54.74-11.45,1.25,4.16-67.79c0-.18.01-.36.03-.55.7-11.76-5.87-14.41-6.91-20.65-.26-1.59-.33-2.5-.27-3,0-.91.09-1.83.25-2.75,1.16-6.33,6-11.06,11.91-12.38Z"/>
          <path class="cls-104" d="M284.22,435.28c-.13,1.17.72,2.31,1.88,2.52l7.55,1.39c1.16.21,2.36-.55,2.65-1.69l.84-3.21c.3-1.14-.41-2.25-1.57-2.47l-8.66-1.59c-1.16-.21-2.22.57-2.34,1.75l-.36,3.29Z"/>
          <path class="cls-95" d="M282.74,525.08c-3.38-.58-5.98-3.86-5.76-7.29l3.54-55.54c.22-3.43,2.08-5.02,4.13-3.55,2.05,1.48,5.28,2.16,7.18,1.51,1.89-.64,3.36,1.64,3.25,5.07l-1.77,55.33c-.11,3.43-2.97,5.77-6.35,5.19l-4.21-.72Z"/>
          <path class="cls-43" d="M280.32,522.87l3.72-58.34c.23-3.6,2.18-5.28,4.34-3.73,1.79,1.29,4.43,1.99,6.41,1.8-.51-1.83-1.61-2.85-2.95-2.4-1.89.64-5.12-.04-7.18-1.51-2.05-1.48-3.91.12-4.13,3.55l-3.54,55.55c-.16,2.56,1.24,5.04,3.38,6.37-.05-.43-.07-.86-.05-1.29Z"/>
          <polygon class="cls-31" points="295.24 463.34 280.72 459.54 280.1 467.52 294.92 469.84 295.24 463.34"/>
        </g>
        <path class="cls-74" d="M284.18,435.64c-.02.15.09.29.23.31l11.49,2.11c.14.03.29-.07.33-.21l.91-3.56c.04-.14-.05-.28-.2-.31l-12.09-2.19c-.14-.03-.27.07-.29.22l-.38,3.62Z"/>
        <path class="cls-19" d="M278.69,458.66c-.24,1.2.54,2.36,1.74,2.6l14.9,3.16c1.2.24,2.36-.54,2.6-1.74h0c.24-1.2-.55-2.36-1.74-2.6l-14.9-3.16c-1.2-.24-2.36.54-2.6,1.74h0Z"/>
      </g>
      <path class="cls-41" d="M296.27,454.65c-.38,0-.76-.08-1.12-.26l-21.23-10.62c-1.23-.62-1.73-2.12-1.12-3.35.62-1.23,2.12-1.73,3.35-1.12l21.23,10.62c1.23.62,1.73,2.12,1.12,3.35-.44.88-1.32,1.38-2.24,1.38Z"/>
      <rect class="cls-49" x="239.66" y="464.43" width="9.57" height="8.53" rx="2.5" ry="2.5"/>
      <g>
        <g>
          <g>
            <path class="cls-102" d="M72.82,684.95c-7.22,5.37-10.91,14.73-8.61,24,2.3,9.28,9.94,15.82,18.84,17.19l2.35-16.29-7.75-5.43-4.84-19.48Z"/>
            <path class="cls-30" d="M81.67,707.24l-3.89-2.69.77,3.47s-10.63,2.74-13.54,3.5c.87,2.32,2.1,4.43,3.59,6.29,5.7-1.34,13.9-3.47,14.36-3.56.29-.06,1.17-.99,2.11-2.07l.34-2.32-3.73-2.62Z"/>
            <path class="cls-49" d="M91.54,679.17l5.17,20.82-4.07,6.44-31.33,7.78c.22.44.48.89.77,1.34.02.03.04.07.06.1.02.03.04.06.06.09,1.05,1.65,2.29,3.15,3.69,4.47,3.09,3.17,6.78,6.09,9.17,8.14,6.65,5.71,9.13,16.96,10.03,23.58l9.4,99.95,21.83-5.15-13.79-110.02c-.03-.26-.05-.53-.09-.81-2.11-17.27,7.34-21.77,8.3-31.07.24-2.36.27-3.71.12-4.44-.09-1.34-.29-2.69-.63-4.03-2.29-9.23-9.86-15.75-18.69-17.17Z"/>
            <path class="cls-102" d="M110.23,696.34c-2.14-8.61-8.87-14.87-16.94-16.81,7.37,2.34,13.39,8.33,15.39,16.38.33,1.35.54,2.7.63,4.03.15.73.13,2.08-.12,4.44-.96,9.29-10.41,13.8-8.3,31.07.03.28.06.55.09.81l13.79,110.02-20.36,4.8.07.78,21.83-5.15-13.79-110.02c-.03-.26-.05-.53-.09-.81-2.11-17.27,7.34-21.77,8.3-31.07.24-2.36.27-3.71.12-4.44-.09-1.34-.29-2.69-.63-4.03Z"/>
            <g>
              <path class="cls-44" d="M83.89,723.64c-1.23,0-2.4-.83-2.77-1.97l-1.53-4.65c-.22-.66-.16-1.34.16-1.92.32-.58.87-1,1.54-1.16l12.62-3.13c.2-.05.41-.08.61-.08,1.18,0,2.14.82,2.34,2.01l.83,4.82c.25,1.45-.71,2.92-2.14,3.28l-11.01,2.73c-.21.05-.43.08-.65.08Z"/>
              <path class="cls-102" d="M94.53,711.26c.91,0,1.65.64,1.81,1.56l.83,4.82c.2,1.16-.6,2.38-1.74,2.66l-11.01,2.73c-.17.04-.35.06-.52.06-1,0-1.96-.67-2.26-1.6l-1.53-4.65c-.17-.51-.12-1.04.13-1.49.25-.45.68-.77,1.2-.9l12.62-3.13c.16-.04.32-.06.48-.06h0ZM94.53,710.18c-.24,0-.49.03-.74.09l-12.62,3.13c-1.69.42-2.63,2.12-2.09,3.78l1.53,4.65c.46,1.4,1.84,2.34,3.28,2.34.26,0,.52-.03.78-.1l11.01-2.73c1.69-.42,2.84-2.17,2.54-3.89l-.82-4.82c-.25-1.47-1.47-2.45-2.87-2.45h0Z"/>
            </g>
            <polygon class="cls-99" points="84.15 754.11 105.31 749.75 117.57 847.59 93.47 853.27 84.15 754.11"/>
            <polygon class="cls-31" points="105.46 750.86 84.51 756.69 85.4 767.42 107.56 767.48 105.46 750.86"/>
          </g>
          <rect class="cls-74" x="79.86" y="714.46" width="17.68" height="6.22" rx=".39" ry=".39" transform="translate(-170.3 42.52) rotate(-13.94)"/>
          <path class="cls-55" d="M107.23,749.81c.31,1.17-.39,2.37-1.56,2.67l-20.08,5.41c-1.17.31-2.37-.39-2.67-1.56h0c-.31-1.17.39-2.37,1.56-2.67l20.08-5.41c1.17-.31,2.37.39,2.67,1.56h0Z"/>
        </g>
        <g>
          <g>
            <g>
              <polygon class="cls-61" points="253.72 747.09 260.08 744.54 258.52 733.24 226.88 722.67 225.02 727.12 191.11 732.02 154.77 843.83 190.84 868.4 198.56 863.85 197.83 854.92 205.55 850.38 204.81 841.44 212.53 836.9 211.8 827.97 219.52 823.42 218.78 814.49 226.51 809.94 225.77 801.01 233.5 796.46 232.76 787.53 240.48 782.98 239.75 774.05 247.47 769.5 246.73 760.57 254.46 756.02 253.72 747.09"/>
              <path class="cls-33" d="M258.05,731.51l-30.37-10.81-1.85,4.46-33.92,4.9-4.44,13.65c.56.41,1.25.72,2.09.91,1.6.34,23.6,8.12,25.07,8.42,7.71,2.59,11.63,3.13,19.42-.15,9.44-3.98,18.74-11.38,25.63-16l-1.63-5.37Z"/>
              <path class="cls-9" d="M274.6,688.32c-2.19-2.53-4.63-3.27-8.41-1.68-2.58,1.09-5.47,3.1-7.71,4.65-2.7,1.87-4.83,1.34-7.38.03-7.19-3.7-14.66-6.73-22.54-8.63-1.23-.3-1.98-.87-2.51-1.92-1.22-2.39-2.68-4.69-3.28-7.33-.86-3.79-3.75-4.32-6.89-4.41-3.48-.1-5.98,2-6.09,5.07-.18,5.31-3.03,8.95-5.77,13.01-4.5,6.66-8.88,15.92-6.24,28.95,1.02,3.77-.46,6.45-4.58,9.15-2.44,1.6-5,3.02-6.66,5.55-1.73,2.64-2.47,9,2.77,10.16,1.54.33,22.8,7.84,24.21,8.14,7.45,2.5,11.23,3.03,18.75-.15,9.46-3.99,20.24-11.5,26.85-15.92,7.18-5.47,11.49-19.81,10.54-26.8-.07-2.46,1.12-4.52,2.59-6.42.61-.8,2.06-2.21,2.72-2.93,2.54-2.82,1.84-5.96-.38-8.53ZM249.08,713.72c-1.46,4.34-6.35,6.64-10.88,5.12l-20.58-6.91c-4.53-1.52-7.04-6.32-5.58-10.65s6.35-6.64,10.88-5.12l20.58,6.91c4.53,1.52,7.04,6.32,5.58,10.65Z"/>
            </g>
            <path class="cls-6" d="M196.17,731.08c1.7.57,2.61,2.41,2.04,4.11-.57,1.7-2.41,2.61-4.11,2.04s-2.61-2.41-2.04-4.11c.57-1.7,2.41-2.61,4.11-2.04Z"/>
            <path class="cls-6" d="M222.54,738.93c1.7.57,2.61,2.41,2.04,4.11s-2.41,2.61-4.11,2.04c-1.7-.57-2.61-2.41-2.04-4.11s2.41-2.61,4.11-2.04Z"/>
            <path class="cls-6" d="M247.32,729.18c1.7.57,2.61,2.41,2.04,4.11s-2.41,2.61-4.11,2.04c-1.7-.57-2.61-2.41-2.04-4.11s2.41-2.61,4.11-2.04Z"/>
            <path class="cls-1" d="M250.43,714.18c-1.56,4.65-6.82,7.13-11.67,5.49l-22.07-7.42c-4.86-1.63-7.55-6.77-5.99-11.43,1.56-4.65,6.82-7.13,11.67-5.49l22.07,7.42c4.86,1.63,7.55,6.77,5.99,11.43Z"/>
            <path class="cls-81" d="M275.33,697.17c1.31-1.45,2.33-3.12,1.44-6-.33.96.46,2.34-2.02,4.62-2.87,2.62-7.64,3.56-7.4,11.39.4,12.72-3.97,19.01-7.87,22.72s-17.66,12.55-22.6,15.01c-4.94,2.46-11.88,5.78-17.23,4.41-3.66-.93-17.48-5.15-25.96-7.97-6.2-2.06-7.64-2.71-8.7-4.09.52,1.86,1.79,3.62,3.89,4.08,1.54.33,22.8,7.84,24.21,8.14,7.45,2.5,11.86,3.21,19.39.04,9.46-3.99,19.84-11.17,26.45-15.59,2.13-1.5,4.38-3.08,5.87-5.19,4.95-6.99,6.09-16.69,5.35-22.06-.07-2.46,1.07-4.84,2.53-6.74.61-.8,1.98-2.04,2.64-2.76Z"/>
            <polygon class="cls-26" points="198.4 809.91 198.4 811.17 228.2 758.9 182.02 759.98 179.17 768.75 205.22 768.75 176.43 809.91 198.4 809.91"/>
          </g>
          <g>
            <polygon class="cls-72" points="251.32 764.32 38.5 764.45 38.5 753.78 251.32 753.78 251.32 764.32"/>
            <rect class="cls-58" x="38.5" y="753.22" width="212.82" height="4.06"/>
            <rect class="cls-31" x="237.52" y="753.22" width="6.37" height="11.1"/>
            <path class="cls-29" d="M179.24,753.37l-14.36,5.84,1.83-6h-11.21c-.24,5.89,3.9,9.56,6.26,11.16h18.17c2.31-1.61,3.47-7.02,3.47-7.02l3.26-4.13h-7.4l-.02.15Z"/>
            <path class="cls-29" d="M117.89,763.15c0,.43.02.84.05,1.25h23.33c.02-.52.03-1.05.02-1.61-.02-1.09-.59-5.47-.59-5.47l1.61-4.1h-23.53c-.55,4.2-.92,7.87-.88,9.94ZM129.28,754.92h0s0,.06,0,.06c2.81.26,4.67,2.2,4.71,4.52.04,2.43-1.98,4.4-4.94,4.61-2.95-.12-4.71-2.16-4.75-4.6-.04-2.54,1.8-4.55,4.98-4.6Z"/>
            <polygon class="cls-29" points="71.92 762.91 75 764.45 77.96 764.45 76.16 757.25 78.86 753.14 70.69 753.14 70.25 755.71 71.92 762.91"/>
          </g>
          <g>
            <path class="cls-49" d="M152.97,833.16l8.1-3.64,1.32-9.35-6.78-5.71h-.02s7.92-56.27,7.92-56.27h.02s9.4-4.82,9.4-4.82l1.55-11.03s6.37,4.26,4.99,13.89c-1.3,9.08-11.17,10.68-11.17,10.68l-6.21,44.08,7.21,6.08-2.44,17.34-15.01,6.74h-.02s1.12-8,1.12-8h.02Z"/>
            <path class="cls-54" d="M153.2,833.2l-6.76-5.75,1.35-9.35,8.11-3.6h.02s8.14-56.23,8.14-56.23h-.02s-7.67-7.25-7.67-7.25l1.6-11.02s-7.31,2.32-8.68,11.95c-1.3,9.08,7.73,13.37,7.73,13.37l-6.38,44.05-8.62,3.83-2.51,17.33,12.53,10.65h.02s1.16-7.99,1.16-7.99h-.02Z"/>
            <g>
              <rect class="cls-60" x="75.53" y="791.98" width="10.32" height="11.46" transform="translate(-199.95 46.65) rotate(-14.71)"/>
              <rect class="cls-102" x="70.69" y="749.34" width="5.73" height="42.41" transform="translate(-193.32 43.96) rotate(-14.72)"/>
              <polygon class="cls-102" points="70.71 741.67 61.84 744 65.4 750.77 70.94 749.31 70.71 741.67"/>
              <polygon class="cls-49" points="70.71 741.67 61.84 744 59.28 727.49 64.83 726.03 70.71 741.67"/>
              <path class="cls-7" d="M88.48,790.15c.31,1.17-.39,2.37-1.56,2.67l-14,3.69c-1.17.31-2.37-.39-2.67-1.56h0c-.31-1.17.39-2.37,1.56-2.67l14-3.69c1.17-.31,2.37.39,2.67,1.56h0Z"/>
              <path class="cls-60" d="M84.75,799.27h3.24c4.48,0,8.12,3.64,8.12,8.12v23.87c0,4.48-3.64,8.12-8.12,8.12h-3.24c-4.48,0-8.12-3.64-8.12-8.12v-23.87c0-4.48,3.64-8.12,8.12-8.12Z" transform="translate(-205.39 48.85) rotate(-14.72)"/>
              <g>
                <path class="cls-81" d="M87.93,831.66c.32,1.22-.41,2.48-1.63,2.8h0c-1.23.32-2.48-.41-2.8-1.64l-6.26-23.83c-.32-1.22.41-2.48,1.63-2.8h0c1.23-.32,2.48.41,2.8,1.64l6.26,23.83Z"/>
                <path class="cls-81" d="M95.5,829.67c.32,1.22-.41,2.48-1.64,2.8h0c-1.22.32-2.48-.41-2.8-1.63l-6.26-23.84c-.32-1.22.41-2.48,1.64-2.8h0c1.22-.32,2.48.41,2.8,1.64l6.26,23.84Z"/>
              </g>
            </g>
            <path class="cls-102" d="M161.35,769.54c-.7-.1-1.36.39-1.47,1.1l-6.24,42.34c-.1.7.39,1.36,1.09,1.46l1.93.27c.7.1,1.36-.39,1.46-1.1l6.18-42.35c.1-.7-.39-1.36-1.09-1.46l-1.86-.26Z"/>
            <g>
              <rect class="cls-13" x="115.79" y="761.97" width="220.23" height="35.36" rx="4.94" ry="4.94" transform="translate(-542.44 517.86) rotate(-55.03)"/>
              <path class="cls-22" d="M269.15,717.85c-5.24-3.66-6.51-10.88-2.85-16.12,3.66-5.24,10.88-6.51,16.12-2.85,5.24,3.66,6.51,10.88,2.85,16.12-3.66,5.24-10.88,6.51-16.12,2.85Z"/>
              <g>
                <g>
                  <path class="cls-101" d="M222.61,753.52l7.49,5.24c1.13.79,1.4,2.35.61,3.48l-19.97,28.54c-.79,1.13-2.35,1.4-3.48.61l-7.49-5.24,22.83-32.64Z"/>
                  <path class="cls-34" d="M208.7,793.08c-.74,0-1.48-.22-2.13-.67l-7.49-5.24,1.41-2.02,7.49,5.24c.57.4,1.36.26,1.76-.31l19.97-28.54c.4-.57.26-1.36-.31-1.76l-7.49-5.24,1.41-2.02,7.49,5.24c1.69,1.18,2.1,3.51.92,5.2l-19.97,28.54c-.73,1.04-1.89,1.59-3.06,1.59Z"/>
                </g>
                <path class="cls-5" d="M216.77,761.87l9.3,6.51-9.3-6.51Z"/>
                <path class="cls-5" d="M205.77,777.6l9.3,6.51-9.3-6.51Z"/>
                <path class="cls-44" d="M218.4,774.33c-1.5,2.15-3.92,3.05-5.4,2.02-1.48-1.04-1.46-3.62.04-5.77,1.5-2.15,3.92-3.05,5.4-2.02s1.46,3.62-.04,5.77Z"/>
              </g>
              <path class="cls-101" d="M264.32,706.88l16.8,11.75c1.61-.83,3.04-2.05,4.15-3.63s1.76-3.35,1.99-5.15l-16.8-11.75c-1.61.83-3.04,2.05-4.15,3.63s-1.76,3.35-1.99,5.15Z"/>
              <path class="cls-11" d="M267.7,709.26l6.19-8.85-6.19,8.85Z"/>
              <path class="cls-8" d="M251.3,737.06l9.71-13.92-9.71,13.92Z"/>
              <path class="cls-8" d="M255.09,739.71l6.06-8.71-6.06,8.71Z"/>
              <path class="cls-11" d="M277.31,715.99l6.19-8.85-6.19,8.85Z"/>
              <path class="cls-44" d="M277.23,706.46c1.43,1,1.97,2.71,1.2,3.8s-2.55,1.18-3.99.17c-1.43-1-1.97-2.71-1.2-3.8s2.55-1.18,3.99-.17Z"/>
              <path class="cls-12" d="M269.15,717.85c-5.24-3.66-6.51-10.88-2.85-16.12,3.66-5.24,10.88-6.51,16.12-2.85,5.24,3.66,6.51,10.88,2.85,16.12-3.66,5.24-10.88,6.51-16.12,2.85Z"/>
              <path class="cls-44" d="M164.77,852.79c-1.11-6.29,3.09-12.3,9.38-13.41,6.29-1.11,12.3,3.09,13.41,9.38,1.11,6.29-3.09,12.3-9.38,13.41-6.29,1.11-12.3-3.09-13.41-9.38Z"/>
              <path class="cls-101" d="M169.11,841.61l3.57,20.19c1.72.55,3.6.7,5.5.37,1.91-.34,3.61-1.13,5.05-2.23l-3.57-20.19c-1.72-.55-3.6-.7-5.5-.37-1.9.34-3.61,1.13-5.05,2.23Z"/>
              <path class="cls-11" d="M169.82,845.68l10.64-1.88-10.64,1.88Z"/>
              <path class="cls-11" d="M171.86,857.24l10.64-1.88-10.64,1.88Z"/>
              <path class="cls-44" d="M178.54,850.44c.3,1.72-.52,3.31-1.84,3.54-1.32.23-2.64-.97-2.94-2.7-.3-1.72.52-3.31,1.84-3.54,1.32-.23,2.64.97,2.94,2.7Z"/>
              <path class="cls-12" d="M164.77,852.79c-1.11-6.29,3.09-12.3,9.38-13.41,6.29-1.11,12.3,3.09,13.41,9.38,1.11,6.29-3.09,12.3-9.38,13.41-6.29,1.11-12.3-3.09-13.41-9.38Z"/>
              <path class="cls-94" d="M272.07,682.83l1.63-2.33c.47-.67,1.4-.83,2.06-.36l26.55,18.57c.67.47.83,1.4.36,2.06l-1.63,2.33-28.97-20.27Z"/>
              <path class="cls-94" d="M180.93,874.79l-2.71,3.88c-.47.67-1.4.83-2.06.36l-26.55-18.57c-.67-.47-.83-1.4-.36-2.06l2.71-3.88,28.97,20.27Z"/>
            </g>
            <g>
              <path class="cls-102" d="M121.16,729.01l2.94,25.94c-.12,0-.24-.03-.37-.02-3.18.05-5.02,2.06-4.98,4.6.04,2.54,1.94,4.66,5.12,4.61l-9.07,9.35s-2.36-3.42-2.46-10.33c-.12-7.41,4.9-35.19,4.9-35.19l3.92,1.04Z"/>
              <g>
                <path class="cls-60" d="M148.65,845.19c-1.75-8.6-6.14-17.89-10.39-26.88-3.82-8.09-7.43-15.73-8.8-22.33-.08-.38-.14-.79-.2-1.21l-.07-.48.48-.11,8.49-1.76.07.57c.05.44.11.83.17,1.14,1.14,5.53,4.52,12.68,8.11,20.26,4.5,9.52,9.12,19.31,11.09,28.97l.11.52-8.93,1.82-.11-.52Z"/>
                <path class="cls-60" d="M137.7,793.06c.05.45.11.86.18,1.19,1.15,5.59,4.55,12.78,8.15,20.4,4.46,9.45,9.08,19.22,11.04,28.83l-7.9,1.61c-1.76-8.66-6.17-17.98-10.43-27-3.81-8.06-7.41-15.68-8.76-22.21-.08-.37-.14-.77-.2-1.18.01,0,.03,0,.04,0l7.88-1.64h0ZM138.62,791.79l-1.13.24-7.81,1.62h-.08s-1,.19-1,.19l.15,1.01c.06.44.13.86.21,1.25,1.38,6.66,5,14.33,8.84,22.45,4.23,8.96,8.61,18.22,10.35,26.76l.21,1.03,1.03-.21,7.9-1.61,1.03-.21-.21-1.03c-1.98-9.73-6.62-19.55-11.11-29.05-3.58-7.58-6.96-14.72-8.08-20.18-.06-.27-.11-.63-.16-1.1l-.13-1.15h0Z"/>
              </g>
              <path class="cls-102" d="M128.69,783.46c-.32-1.21-1.24-1.5-1.87-1.52l-.13-8.06c2.68-.04,8.18,1.47,9.79,7.51.51,1.9.7,4.53.87,7.13-.19,0-.38,0-.57.04l-7.41,1.54c-.01-.17-.02-.33-.03-.5-.15-2.28-.31-4.86-.65-6.13Z"/>
              <g>
                <path class="cls-23" d="M129.3,795.44c-1.25,0-2.34-.89-2.6-2.11-.14-.69,0-1.4.38-2,.39-.59.99-1,1.68-1.14l7.89-1.64c.16-.03.32-.05.51-.05h.14c1.22.06,2.24.92,2.49,2.11.3,1.43-.63,2.84-2.06,3.14l-7.89,1.64c-.21.04-.38.05-.54.05Z"/>
                <path class="cls-23" d="M137.17,788.85s.09,0,.13,0c1.03.04,1.94.77,2.15,1.83.26,1.25-.54,2.46-1.79,2.72h-.02s-7.87,1.64-7.87,1.64c-.01,0-.02,0-.04,0-.15.03-.29.04-.43.04-1.07,0-2.02-.75-2.25-1.83-.26-1.25.54-2.46,1.79-2.72l.49-.1,7.41-1.54c.15-.03.29-.04.44-.04h0ZM137.17,788.15c-.21,0-.4.02-.58.06l-7.41,1.54-.49.1c-.79.16-1.46.62-1.9,1.29-.44.67-.59,1.47-.43,2.26.29,1.39,1.53,2.39,2.94,2.39.17,0,.35-.02.52-.05h.03s.08-.02.08-.02l7.86-1.63c1.64-.34,2.68-1.93,2.35-3.56-.28-1.34-1.44-2.33-2.81-2.39h-.16Z"/>
              </g>
              <g>
                <path class="cls-60" d="M89.9,844.94l.09-.52c1.67-9.73,5.99-19.66,10.17-29.27,3.36-7.72,6.52-14.98,7.48-20.53.06-.32.1-.71.14-1.15l.05-.57,8.49,1.49.51.07-.04.51c-.05.43-.1.84-.16,1.22-1.16,6.64-4.53,14.39-8.1,22.59-3.96,9.11-8.06,18.53-9.55,27.18l-.09.52-8.98-1.54Z"/>
                <path class="cls-60" d="M108.3,793.51l7.92,1.39s.02,0,.04,0c-.05.41-.1.82-.16,1.19-1.15,6.57-4.51,14.29-8.07,22.47-3.98,9.14-8.09,18.6-9.58,27.31l-7.94-1.36c1.66-9.67,5.97-19.58,10.14-29.16,3.36-7.72,6.54-15.02,7.51-20.64.06-.33.1-.74.14-1.2h0ZM107.35,792.27l-.1,1.15c-.04.48-.08.84-.13,1.1-.96,5.49-4.1,12.72-7.43,20.38-4.21,9.67-8.54,19.63-10.22,29.43l-.18,1.04,1.04.18,7.94,1.36,1.04.18.18-1.04c1.47-8.59,5.56-17.98,9.51-27.06,3.58-8.24,6.97-16.01,8.14-22.71.07-.39.12-.82.17-1.25l.11-1.02-1.02-.14h-.05s0,0,0,0l-7.86-1.38-1.13-.2h0Z"/>
              </g>
              <path class="cls-102" d="M117.01,783.64c.29-1.22,1.2-1.54,1.82-1.58l-.12-8.06c-2.68.04-8.13,1.73-9.55,7.81-.45,1.92-.56,4.55-.65,7.15.19-.01.38-.01.57.02l7.45,1.31c0-.17.01-.33.02-.5.07-2.28.16-4.86.46-6.15Z"/>
              <g>
                <path class="cls-23" d="M116.57,795.64c-.14,0-.28-.01-.42-.03l-7.97-1.4c-.71-.13-1.32-.51-1.73-1.09-.41-.58-.56-1.29-.44-1.98.21-1.19,1.2-2.09,2.42-2.18.08,0,.16,0,.24,0,.14,0,.27,0,.41.03l7.94,1.4c.7.12,1.31.51,1.71,1.09.41.58.56,1.29.44,1.98-.22,1.27-1.32,2.19-2.61,2.19h0Z"/>
                <path class="cls-23" d="M108.68,789.29c.12,0,.23,0,.35.03l7.45,1.31.49.09c1.25.22,2.09,1.41,1.87,2.67-.2,1.12-1.17,1.9-2.26,1.9-.12,0-.24,0-.36-.03-.01,0-.03,0-.04,0l-7.92-1.39h-.02c-1.25-.22-2.09-1.42-1.87-2.67.19-1.06,1.07-1.81,2.1-1.89.07,0,.14,0,.22,0h0ZM108.68,788.59c-.09,0-.18,0-.27.01-1.38.1-2.5,1.12-2.74,2.47-.14.79.04,1.59.5,2.25.46.66,1.15,1.1,1.94,1.24l7.94,1.39h.05s.04.01.04.01c.15.02.29.03.44.03,1.46,0,2.7-1.04,2.96-2.48.29-1.63-.81-3.2-2.44-3.48l-.49-.09-7.45-1.31c-.15-.03-.31-.04-.47-.04h0Z"/>
              </g>
              <path class="cls-49" d="M120.87,763.82c.68.22,1.43.33,2.21.32,3.18-.05,5.39-2.09,5.35-4.63-.04-2.33-1.9-4.26-4.71-4.52l2.14-26.08,3.95-.84s5.81,27.38,5.92,34.73c.08,5.08-1.11,8.3-1.75,9.66.12.61.19,1.24.2,1.88.09,6.04-4.73,11.01-10.77,11.11-6.04.09-11.01-4.73-11.11-10.77-.08-5.28,3.6-9.75,8.57-10.85Z"/>
              <path class="cls-102" d="M118.07,774.58c.04,2.86,2.4,5.15,5.26,5.1,2.86-.04,5.14-2.4,5.1-5.26-.04-2.86-2.4-5.15-5.26-5.1-2.86.04-5.15,2.4-5.1,5.26Z"/>
            </g>
          </g>
          <g>
            <rect class="cls-85" x="40.84" y="808.45" width="204.16" height="72.85"/>
            <path class="cls-72" d="M41.61,847.16l102.37-.94,100.19.47-.22,2.71-13.49.03s-10.27,5.85-28.03,5.85-18.58-5.3-34.09-5.3-39.58-.57-39.58-.57l-35.49,1.74-51.91-1.76.24-2.22Z"/>
            <path class="cls-72" d="M152.69,843.71s1.43-3.71,12.37-3.96c10.94-.25,40.68-2.44,40.68-8.05s-11.24-5.43-18.46-5.83c-7.22-.41-7.65-6.79.25-7.42,7.9-.63,51.02,0,51.02,0l5.61,4.82-1.26,5.81s-8.03,3.26-14.15,3.26-15.87-.02-15.87,3.13,2.62,4.77,7.51,4.77c4.36,0,23.77-.36,23.77-.36l-.21,5-56.03.32-35.23-1.48Z"/>
            <path class="cls-72" d="M185.56,879.55l51.48-.42s-24.37-12.54-52.78-12.54c-10.74,0-13.5-7.79-54.92-7.79-20.5,0-29.92.13-29.92,5.93s17.42,5.81,17.42,5.81l21.4,9.53,47.32-.53Z"/>
            <path class="cls-73" d="M41.59,813.61h19.57s16.86,9.28,41.86,9.28c20.08,0,20.26,16.48-.95,16.48-17.05,0-24.24,4.92-24.24,4.92l-32.95-.38-3.12-14.06-.16-16.24Z"/>
            <path class="cls-73" d="M41.74,879.33l-.37-18.05,16.97,3.15s14.8-2.77,27.09-2.77,6.56,8.58,28,8.58,33.03,9.09,33.03,9.09H41.74Z"/>
            <rect class="cls-91" x="42.65" y="843.22" width="200.26" height="3.94"/>
          </g>
          <rect class="cls-58" x="43.07" y="808.31" width="197.3" height="4.57"/>
          <rect class="cls-91" x="41.2" y="808.31" width="6.68" height="73.08"/>
          <rect class="cls-91" x="236.15" y="808.31" width="7.74" height="72.84"/>
          <rect class="cls-91" x="32.52" y="878.69" width="214.9" height="6.53"/>
          <path class="cls-73" d="M249.71,792.61h-2.36c-3.98,0-7.2,3.22-7.2,7.2v85.41h16.76v-85.41c0-3.98-3.22-7.2-7.2-7.2Z"/>
          <path class="cls-73" d="M36.29,743.62h-2.36c-3.98,0-7.2,3.22-7.2,7.2v134.39h16.76v-134.39c0-3.98-3.22-7.2-7.2-7.2Z"/>
          <rect class="cls-72" x="26.73" y="741.17" width="16.76" height="64.33" rx="7.2" ry="7.2"/>
          <polygon class="cls-29" points="47.3 753.22 43.35 753.22 43.35 743.68 39.79 744.82 36.16 750.12 37.87 754.58 26.61 754.86 26.61 770.77 43.5 795.2 43.5 764.32 47.3 764.32 47.3 753.22"/>
          <g>
            <polygon class="cls-34" points="68.19 808.31 52.65 808.31 15.67 735.95 27.99 729.66 68.19 808.31"/>
            <polygon class="cls-94" points="40.13 753.29 29.43 762.76 25.93 756.03 38.33 749.69 40.13 753.29"/>
            <polygon class="cls-94" points="60.42 808.31 52.65 808.31 15.67 735.95 21.83 732.8 60.42 808.31"/>
            <polygon class="cls-74" points="5.09 767.78 55.85 742.02 47.11 724.92 12.47 742.44 .94 759.66 5.09 767.78"/>
            <polygon class="cls-49" points="1.89 760.29 0 759.02 11.69 741.56 46.6 723.91 47.62 725.93 13.25 743.32 1.89 760.29"/>
            <polygon class="cls-48" points="23.15 758.61 34.26 752.98 33.31 731.9 22.21 737.51 23.15 758.61"/>
          </g>
          <path class="cls-85" d="M113.89,830.98c.04,2.43-3.46,4.25-7.8,4.08-4.34-.17-7.9-2.28-7.93-4.71s3.46-4.25,7.8-4.08c4.34.17,7.9,2.28,7.93,4.71Z"/>
          <path class="cls-85" d="M219.18,868.16c.11,3.09-4.29,5.51-9.82,5.4-5.54-.11-10.12-2.7-10.23-5.79s4.29-5.51,9.82-5.4c5.54.11,10.12,2.7,10.23,5.79Z"/>
          <path class="cls-36" d="M114.6,864.56c.06,1.17-1.59,2.12-3.7,2.11-2.11,0-3.86-.96-3.92-2.14s1.59-2.12,3.7-2.11,3.86.96,3.92,2.14Z"/>
          <path class="cls-72" d="M214.57,867.43c.06,1.17-1.59,2.12-3.7,2.11-2.1,0-3.86-.96-3.92-2.13-.06-1.17,1.59-2.12,3.7-2.11,2.1,0,3.86.96,3.92,2.13Z"/>
        </g>
        <path class="cls-72" d="M240.15,789.96v11.15c0,3.98,3.22,4.38,7.2,4.38h2.36c3.98,0,7.2-.41,7.2-4.38v-35.11l-16.76,23.96Z"/>
        <polygon class="cls-29" points="240.15 794.97 256.91 782.57 256.91 766 240.15 789.96 240.15 794.97"/>
      </g>
      <path class="cls-54" d="M280.25,802.45c-1.36,0-2.5,1.14-2.5,2.5v2.08c0,1.36,1.14,2.5,2.5,2.5s2.5-1.14,2.5-2.5v-2.08c0-1.36-1.14-2.5-2.5-2.5Z"/>
      <path class="cls-54" d="M283.26,815.25c-.9-.9-2.65-1.04-3.53,0-1.34,1.58-1.34,3.62,0,5.2.88,1.04,2.63.9,3.53,0,.74-.74.86-1.72.54-2.6.32-.88.2-1.86-.54-2.6Z"/>
      <path class="cls-54" d="M285.57,829.26c-.43-1.29-1.71-2.12-3.07-1.74-1.17.32-2.03,1.58-1.8,2.8,0,.43.1.88.31,1.29.26.5.62.85,1.07,1.18,1.13.83,2.74.16,3.42-.9.52-.82.36-1.77.08-2.63Z"/>
      <path class="cls-54" d="M368.08,802.03c-1.36,0-2.5,1.14-2.5,2.5v2.5c0,1.36,1.14,2.5,2.5,2.5s2.5-1.14,2.5-2.5v-2.5c0-1.36-1.14-2.5-2.5-2.5Z"/>
      <path class="cls-54" d="M368.92,814.94c-1.36,0-2.5,1.14-2.5,2.5v.57c0,1.36,1.14,2.5,2.5,2.5s2.5-1.14,2.5-2.5v-.57c0-1.36-1.14-2.5-2.5-2.5Z"/>
      <path class="cls-54" d="M368.5,825.76c-1.36,0-2.5,1.14-2.5,2.5v2.08c0,1.36,1.14,2.5,2.5,2.5s2.5-1.14,2.5-2.5v-2.08c0-1.36-1.14-2.5-2.5-2.5Z"/>
      <g>
        <path class="cls-39" d="M623.83,470.31v58.37c0,3.12,2.55,5.67,5.67,5.67h48.74c3.12,0,5.67-2.55,5.67-5.67v-58.37c0-3.12-2.55-5.67-5.67-5.67h-48.74c-1.58,0-3.02.66-4.04,1.71-1.02,1.02-1.63,2.41-1.63,3.96Z"/>
        <g>
          <g>
            <g>
              <path class="cls-84" d="M636.22,814.4c.3,3.74.66,7.73,1.02,11.38.02.19.05.39.06.57.72,6.82,1.48,12.38,2.08,12.88.9.76,13.71,1.97,24.88.22.81-.13,1.63-.28,2.42-.44,7.1-1.44,13.06-4.26,14.13-9.39.13-.66,1.71-2.15,1.17-4.99-.05-.28-.12-.57-.22-.89-.08-.28-.22-.72-.36-1.3-1.64-6.09-6.65-27.31-6.84-30.67-.02-.25-.01-.4.04-.44.53-.4-.05-.12-1.19.44-2.38,1.17-7.2,3.59-9.55,3.84-2.66.25-17.48,1.37-24.56,2.67-2.2.41-3.65.83-3.77,1.25-.21.73.15,7.28.73,14.87Z"/>
              <path class="cls-93" d="M682.34,829.37s1.43,7.58-12.19,7.2c-13-.37-20.11-15.56-20.11-15.56l-21.03-1.25s-1.47,9.55-3.13,11.84c-4.54,6.25-16.3,18.35-16.3,18.35l-24.2.43s-1.9,19.4,5.53,19.61,22.12.51,28.31.68c6.19.18,38.85-7.33,38.85-7.33,0,0,27.83,1.13,27.83.78.05-26.28-3.57-34.77-3.57-34.77Z"/>
              <polygon class="cls-93" points="686.39 869.3 644.18 869.35 643.98 862.95 662.71 858.82 686.89 859.05 686.39 869.3"/>
              <path class="cls-84" d="M582.67,854.24v.05c.02.33.11,1.89.39,3.23.13.53.27,1.01.4,1.49.01.05.07.16.07.21.06.16.12.32.18.49.01.1.07.21.07.25.11.16.17.32.24.47,0,.11.06.17.06.22.12.27.24.52.41.79.06.11.12.21.18.32.06.11.12.21.18.32.11.16.17.25.29.36.06.1.11.16.17.25.12.16.29.36.46.52l.17.15c.11.16.23.27.34.36.06.05.17.1.23.15.11.11.28.21.45.3.05,0,.05.05.11.05.17.16.39.25.61.29.05.06.11.05.17.11.16.04.33.09.49.13.06,0,.11.05.22.04.22.05.44.08.66.07,3.3.1,8,.23,12.71.36,4.65.15,9.42.27,12.82.36.81.01,1.58.02,2.16.05.22.05.44.04.66.02l.75-.04c.16-.01.33-.02.49-.09l1.02-.05c.11-.06.27-.07.38-.07.27-.01.49-.08.75-.1l.38-.02c.27-.06.53-.07.86-.15h.27c.32-.08.64-.16,1.02-.18.05,0,.11,0,.21-.06.38-.02.75-.1,1.18-.17,6.16-.97,14.39-2.59,21.08-3.96,6.67-1.37,11.86-2.5,11.86-2.5,0,0,28.94,1.03,28.98.7.02-3.68-.1-7.01-.25-10.04l-.06-1.18c-.46-7.49-1.32-12.86-2.18-16.57-1.13-4.96-2.22-6.92-2.22-6.92,0,0-.83,6.29-8.57,7.94-2.01.44-4.51.55-7.58.15-5.12-.67-8.63-3.45-10.97-6.59-2.43-3.22-3.63-6.81-4.15-8.83-.32-1.01-.4-1.65-.4-1.65l-5.04-.17-3.85-.11-8.26-.23-4.49-.15s-.21,1.36-.53,3.16v.06c-.05.27-.15.49-.18.76,0,.05.01.11-.04.22-.05.27-.08.55-.18.81.01.06.01.11-.04.17-.05.27-.08.55-.18.81.01.06.01.11.01.11-.1.33-.18.61-.22.93-.06.05-.05.11-.05.16-.1.33-.18.61-.23.87-.05.01-.05.06-.05.06-.05,1.01-.41,2.05-.87,2.99-.83,1.69-1.94,3-1.94,3-4.71,5.89-13.2,14.39-14.71,15.89-.15.15-.23.23-.23.23,0,0-7.08,1.07-13.62.86-6.54-.15-12.84,2.23-12.99,7.86.01.21.02.42-.02.64Z"/>
              <path class="cls-84" d="M626.95,823.96s3.26.69,8.01,1.82c.74.18,1.52.36,2.34.57,4.7,1.15,10.4,2.63,15.7,4.26,4.76,1.46,8.48,5.04,11.25,8.83.81,1.12,1.54,2.25,2.2,3.35,2.73,4.65,4.03,8.79,4.03,8.79l15.97-3.81c-1.07-17.55-4.41-23.48-4.41-23.48,0,0-.02.12-.08.34-.44,1.41-2.85,6.65-14.79,5.44-.38-.04-.76-.09-1.15-.13-3.79-.5-6.54-2.1-8.57-4.15-3.56-3.57-4.87-8.46-5.51-11l-15.72-.39-7.68-.19-1.59,9.76Z"/>
            </g>
            <path class="cls-46" d="M634.3,821.06h18.09c15.81,0,10.51-21.98,10.51-21.98,0,0,27.25,2.39,28.79-27.93,4.09-80.28,15.82-232.17,19.57-298.56.37-6.45,6.06-12.44,4.18-10.83l-3.53-24.29-64.12,4.96s-2.17,20.49-3.11,51.26c-3.09,103.79-11.92,327.37-10.39,327.37Z"/>
            <g>
              <g>
                <path class="cls-84" d="M768.66,827c1.04,3.44-2.25,1.91-2.4,2.62-2.81,13.59-39.86,10.93-41.42,9.61s-4.4-37.92-3.88-39.69c.51-1.77,24.85-3.58,28.34-3.92,3.49-.34,12.37-5.49,10.74-4.27-.68.51,5.73,26.09,8.61,35.65Z"/>
                <path class="cls-66" d="M767.81,829.37s1.43,7.58-12.19,7.2c-13-.37-20.11-15.56-20.11-15.56l-21.03-1.25s-1.47,9.55-3.13,11.84c-4.54,6.25-16.3,18.35-16.3,18.35l-24.2.43s-1.9,19.4,5.53,19.61,22.12.51,28.31.68c6.19.18,38.85-7.33,38.85-7.33,0,0,27.83,1.13,27.83.78.05-26.28-3.57-34.77-3.57-34.77Z"/>
                <polygon class="cls-66" points="771.85 869.3 729.65 869.35 729.44 862.95 748.18 858.82 772.36 859.05 771.85 869.3"/>
                <path class="cls-84" d="M668.14,854.24v.05c.02.33.11,1.89.39,3.23.13.53.27,1.01.4,1.49,0,.05.06.16.07.21.06.16.12.32.18.49,0,.1.06.21.07.25.11.16.17.32.23.47.01.11.07.17.07.22.12.27.24.52.41.79.06.11.12.21.18.32.06.11.12.21.18.32.11.16.17.25.28.36.06.1.12.16.18.25.12.16.29.36.46.52l.17.15c.11.16.23.27.34.36.06.05.17.1.22.15.12.11.29.21.45.3.06,0,.06.05.11.05.17.16.4.25.62.29.05.06.11.05.16.11.17.04.34.09.5.13.06,0,.11.05.22.04.22.05.44.08.66.07,3.3.1,8,.23,12.71.36,4.65.15,9.41.27,12.82.36.81.01,1.57.02,2.16.05.22.05.44.04.66.02l.75-.04c.16-.01.33-.02.49-.08l1.02-.05c.11-.06.27-.07.38-.07.27-.01.49-.08.75-.1l.38-.02c.27-.06.53-.07.85-.15h.28c.32-.08.63-.16,1.01-.18.06,0,.11,0,.22-.06.38-.02.75-.1,1.18-.17,6.17-.97,14.39-2.59,21.07-3.96,6.69-1.37,11.87-2.5,11.87-2.5,0,0,11.55.41,20.07.63,4.96.13,8.9.19,8.91.07.02-3.68-.1-7.01-.25-10.04l-.06-1.18c-.35-5.58-.92-10-1.54-13.41-1.32-7.32-2.86-10.07-2.86-10.07,0,0-1.32,10.01-16.16,8.08-5.12-.67-8.62-3.45-10.96-6.59-2.43-3.22-3.63-6.81-4.15-8.83-.32-1.01-.41-1.65-.41-1.65l-5.02-.17-2.34-.06-9.77-.28-4.49-.15s-.02.13-.06.36c-.08.53-.25,1.55-.49,2.79v.06c-.04.27-.13.49-.17.76,0,.05.01.11-.05.22-.04.27-.07.55-.17.81,0,.06.01.11-.05.17-.04.27-.07.55-.17.81,0,.06.01.11.01.11-.1.33-.19.61-.23.93-.05.05-.05.11-.04.16-.1.33-.19.61-.23.87-.05.01-.05.06-.05.06-.12,2.82-2.83,5.98-2.83,5.98-5.17,6.48-14.93,16.12-14.93,16.12,0,0-7.08,1.07-13.62.86-6.54-.15-12.84,2.23-12.99,7.86.01.21.02.42-.02.64Z"/>
              </g>
              <g>
                <g>
                  <path class="cls-70" d="M710.92,789.49c-8.68-3.36-11.97-346.19-11.97-346.19l63.19-5.83,4.9,24.3c1.79-1.62,5.76,10.82,5.76,10.82l-6.87,314.77c-48.54,7.28-42.47,6.99-55.01,2.14Z"/>
                  <path class="cls-70" d="M644.32,436.91l122.93,57.05,4.46,52.41c-.62,14.47-11.55,4.98-25.87,2.84l-75.64-23.23c-14.32-2.15-27.63-4.2-27.6-18.68l1.73-70.38Z"/>
                  <path class="cls-71" d="M647.78,465.03s-.29-.5-.6-1.18c-.1.69.6,1.18.6,1.18Z"/>
                  <path class="cls-71" d="M642.1,273.99s-1.29,36.07-.46,75.13c1.06,49.26,7.65,104.21,7.91,111.56.03.78-2.81,2.28-2.38,3.17.22-1.81,5.69-4.98,42.13-4.71,59.41.47,83.16,45.07,83.16,45.07v-231.3c0-20.59-18.81-37.37-38.12-37.22h-59.6c-.88.01-1.74.06-2.58.14-5.07.45-9.68,2.14-13.68,4.77-10.12,6.63-16.37,19.3-16.37,33.38Z"/>
                  <polygon class="cls-27" points="746.13 295.42 751.55 295 746.36 260.51 777.63 350.21 764.27 379.11 764.1 438.95 717.85 393.1 737.57 402.24 746.13 295.42"/>
                  <path class="cls-70" d="M772.91,404.53c-.37-41.06-.97-78.21-.97-78.21l-12.08-3.4,1.12,68.96.1,6.39v.76s-.11,0-.2.01c-2.22.1-15.8,1.47-22.63.96h0c-.09-.01-.17-.01-.26-.02-1.5-.14-2.67-.22-3.3-.27h-.04c-.19-.01-.32-.01-.4-.01-.24,0-.46-.06-.69-.2-.01-.01-.02-.01-.02-.01-6.96-4.26-8.78-70.42-9.24-92.25-.21-10.72-.1-6.01-.1-11.04h-15.54s-.84,6.72-22.48,6.72c-23.73,0-20.39-6.72-20.39-6.72h-4.79l-4.79-11.18c-15.43,13.58-16.71,91.82-15.26,117.39.44,30.68,1.59,30.21,2.02,64.94,0,0,3.8,1.4,10.7,5.01,31.2,16.23,117.29,58.88,118.79,35.63.11-1.57.16-3.36.26-5.41.06-.97.06-1.94.06-2.86.61-19.33.45-58.8.11-95.19Z"/>
                  <path class="cls-71" d="M738.25,400.01s-6.71.15-10.25-3.16c-4.52-4.22-8.48-12.25-10.69-22.55-.72-3.43-1.26-7.13-1.56-11.03-1.59-20.58,1.12-45.68,5.64-65.08.17-.8.37-1.6.56-2.37,2.92-11.83,6.49-21.26,10.13-25.79l5,11.65.55,90.63.14,5.49.09,3.76.32,13.82.07,4.62Z"/>
                  <g>
                    <path class="cls-86" d="M671.15,534.41c0-.07,0-.14,0-.2,0,.07,0,.14,0,.2Z"/>
                    <path class="cls-86" d="M671.2,532.36s0,.05,0,.08c0-.03,0-.05,0-.08Z"/>
                    <path class="cls-86" d="M671.17,530.42s0,.08,0,.11c0-.04,0-.08,0-.11Z"/>
                    <path class="cls-86" d="M670.43,540.77c.03-.14.05-.28.08-.42-.02.14-.05.28-.08.42Z"/>
                    <path class="cls-86" d="M670.79,538.47c0-.06.02-.13.02-.19,0,.06-.01.13-.02.19Z"/>
                    <path class="cls-86" d="M671.01,536.54c0-.1.02-.2.03-.3,0,.1-.02.2-.03.3Z"/>
                  </g>
                </g>
                <path class="cls-70" d="M676.36,235.7s5.69-.55,9.39-.03c.13.02.27.04.4.06v-.25s-.02-.69.19.22c-18.79,5.45-20.39,44.02-20.15,63.34l-9.07-.7-6.27.7c-.28-22.26,4.36-63.35,25.5-63.35Z"/>
              </g>
              <path class="cls-22" d="M734,810.82c6.72,4.89,19.28,4.44,19.28,4.44l2.29-4.44,8.33-21.14c2.43-1.02,6.76-5.89,7.99-15.88,5.11-41.53,1.06-148.66,1.24-253.38.05-24.32.1-47.89.12-69.71.15-71.07.25-123.64.25-123.64l-13.65-4.16,1.24,76.12c-1.35,0-16.1,1.54-23.1.94v77.47l.21,4.09,1.07,20.52.97,18.37,1.47,28.22s13.73,144.83,2.43,213.26c-2.09,12.63-5.02,22.55-9.07,28.29-7.71,10.96-5.87,17.15-1.08,20.63Z"/>
            </g>
            <path class="cls-70" d="M618.76,778.56c.32,1.58.67,3.06,1.06,4.44,2.04,7.32,4.93,8.01,7.08,9.2l5.74,6.49,19.76,22.37,10.63-.55,1.84-25.87.49-6.89,24.64-254.84-46.88-38.88c-2.57,86.59-34.69,233.52-24.36,284.53Z"/>
            <polygon class="cls-46" points="693.19 553.38 678.83 527.53 700.12 535.17 693.19 553.38"/>
          </g>
          <rect class="cls-59" x="648.62" y="290.31" width="18.67" height="9.48" rx="2.87" ry="2.87"/>
          <path class="cls-46" d="M642.82,499.07c0,1.87,1.52,3.27,3.39,3.11l123.71-10.66c1.86-.16,3.39-1.82,3.39-3.69v-18.55c0-1.87-1.52-3.27-3.39-3.11l-123.71,10.66c-1.86.16-3.39,1.82-3.39,3.69v18.55Z"/>
          <path class="cls-39" d="M639.76,490c0,3.12,2.54,5.44,5.64,5.15l125.3-11.46c3.1-.28,5.64-3.07,5.64-6.18v-14.01c0-3.12-2.54-5.44-5.64-5.15l-125.3,11.46c-3.1.28-5.64,3.07-5.64,6.18v14.01Z"/>
          <path class="cls-22" d="M746.6,238.64c1.69-.62,3.49-.94,5.42-.9-.85-.23-1.73-.41-2.64-.57-1-.18-1.93.36-2.78,1.46Z"/>
          <path class="cls-70" d="M705.15,712.52c2.12,28.22-9.51,68.87,6.95,78.32.48.28,1.48.53,2.07.91,6.73,4.29,17.28,19.07,17.28,19.07h24.14l9.44-19.42c6.47-2.83,8.49-12.14,8.09-36,.21,17.03-3.34,23.46-16.37,23.09-7.54-.21-14.44-6.96-12.59-16.59.24-1.26.04-2.65.24-4.08,3.24-22.24-40.42-61.06-39.24-45.31Z"/>
          <path class="cls-46" d="M618.76,778.56c.32,1.58.67,3.06,1.06,4.44,2.04,7.32,4.93,8.01,7.08,9.2l5.74,6.49c8.54-.39,21.86-2.24,32.23-4.05,7.22-1.26,13.03-2.51,14.82-3.24,2.28-.93,3.53-2.63,4.24-4.55-4.34.57-11.09.92-18.57.9-17.12-.08-41.83-3.02-46.59-9.19Z"/>
          <path class="cls-27" d="M738.25,400.01s-6.71.15-10.25-3.16c-6.03-5.63-11.06-18.05-12.25-33.58-1.59-20.58,1.12-45.68,5.64-65.08l2.8-.57c-1.76,15.72-8.49,82.4,13.66,83.95l.32,13.82.07,4.62Z"/>
        </g>
        <path class="cls-46" d="M772.78,444.03c-.1-64.63.29-117.71.29-117.71l-12.79,13.67.82,47.22c0,11.86-14.9,12.42-23.1,12.77v.03c-.52,0-1.77-.04-3.3-.3h-.04c-.35-.06-.71-.14-1.09-.21-.01-.01-.02-.01-.02-.01-1.91-.42-4.02-1.21-5.54-2.64-4.52-4.22-8.48-12.25-10.69-22.55-7.43,1.22-20.91,3.58-21.13,5.42-.31,2.5-2.5,18.11-2.5,18.11,4.68,1.87,79.09,46.21,79.09,46.21Z"/>
        <g>
          <path class="cls-14" d="M790.14,392.08h-66.7c-7.52,0-13.61-6.09-13.61-13.61s6.09-13.61,13.61-13.61h59.69l-20.14-72.01c-2.03-7.24,2.2-14.75,9.44-16.78,7.24-2.03,14.75,2.2,16.78,9.44l22.03,78.76c1.93,6.9.69,13.95-3.4,19.33-4.09,5.39-10.54,8.48-17.7,8.48ZM785.03,371.6h.01-.01Z"/>
          <polygon class="cls-15" points="780.06 353.91 808.37 354.53 806.08 346.21 780.06 353.91"/>
          <path class="cls-71" d="M740.42,268.08l19.91,91.52,46.5-13.26s-14.01-51.15-20.86-74.1c-4.93-16.53-14.59-31.77-33.91-34.57-1.92.13-3.69.62-5.31,1.39-6.12,9.64-6.32,29.03-6.32,29.03Z"/>
        </g>
        <rect class="cls-84" x="714.14" y="791.78" width="50.75" height="34"/>
        <rect class="cls-84" x="626.18" y="791.78" width="55.21" height="34"/>
        <path class="cls-88" d="M681.38,813.8v-22.02h-55.21v.92c3.7,3.02,8.33,4.68,13.09,5.58,9.47,1.81,19.45.56,23.63.8,5.08.29,5.74,2.71,4.5,26.7-.07,1.36-.15,2.78-.23,4.28-.15,2.73-.32,5.7-.5,8.94-.02.33-.04.67-.06,1.01-6.83.93-13.85,3.03-18.22,8.47-1.02,1.26-1.82,2.56-2.44,3.88-.11.13-.22.27-.33.4-.4.55-.51,1.06-.45,1.53-1.3,3.9-1.24,8.06-.4,12.48.58,3.07,5.27,1.77,4.68-1.29-.06-.32-.11-.63-.16-.93.92.07,1.78-.33,2.27-1.07.23.17.45.34.69.5,1.84,1.14,4.1-.73,3.57-2.74-.04-.15-.05-.27-.07-.4.8,1.13,1.84,2.03,3.12,2.48,2.5.9,3.7-.63,4.36-2.89-.06-.16-.12-.32-.23-.47-.01-.05-.07-.16-.07-.25-.06-.17-.12-.33-.18-.49-.01-.05-.07-.16-.07-.21-.13-.49,6.21-.07,6.08-.6-.28-1.33-.36-2.9-.38-3.23v-.05c.04-.22.02-.44.01-.64.15-5.63,5.21-9.25,11.75-9.1,3.12.1,1.11.25,3.64.03.18-.02.36-.04.55-.05.07-.01.13-.02.21-.02.23-.02.45-.05.66-.07.23-.01.44-.04.64-.06.15-.01.29-.04.44-.05-1.21-15.53-4.89-23.63-4.89-31.36Z"/>
        <path class="cls-35" d="M677.21,842.36c.05,1.18.13,2.49.21,3.88,3.53-.05,6.91-.39,8.93-.62-.34-4.36-.83-7.91-1.35-10.76-4.21.47-8.02,2.31-7.79,7.5Z"/>
        <path class="cls-52" d="M694.76,844.87c32.5,0,32.23-8.17,33.03-16.26.09-.84.15-1.8.19-2.83.16-3.12.22-6.95.47-10.72.47-6.94,1.64-13.59,5.4-14.77,5.69-1.78,24.14-4.17,31.03-5.83v-2.69h-50.75v23.23c-.08.53-.25,1.55-.49,2.79v.06c-.04.27-.13.49-.17.76,0,.05.01.11-.05.22-.04.27-.07.55-.17.81,0,.06.01.11-.05.17-.04.27-.07.55-.17.81,0,.06.01.11.01.11-.1.33-.19.61-.23.93-.05.05-.05.11-.04.16-.1.33-.19.61-.23.87-.05.01-.05.06-.05.06-.12,2.82-2.83,5.98-2.83,5.98-5.17,6.48-14.93,16.12-14.93,16.12Z"/>
        <path class="cls-46" d="M709.72,786.36c6.94,2.95,44.72,2.45,59.53.49-.71,1.92-1.96,3.62-4.23,4.55-5.46,2.22-44.4,2.79-50.87.38-4.61-1.72-6.66-4.15-8.18-8.15.93,1.38,2.11,2.03,3.75,2.73Z"/>
        <path class="cls-46" d="M635.69,785.13c14.87,2.43,29.73,4.35,30.44-6.78.64-10.1,14.68,6.47,21.04,3.74-1.01,3.24-3.24,8.7-5.87,9.91-5.35,2.47-50.52,5.03-55.02-.21-5.66-6.58,5.37-2.67,3.85-6.67.93,1.38,3.8-.29,5.56,0Z"/>
        <path class="cls-52" d="M609.52,844.64c.29-.01.58-.02.89-.05,25.01-1.91,29.26-8.86,30.38-18.81.3-2.72.38-5.67.57-8.8.04-.68.08-1.34.13-1.97,1.01-12.77,3.39-14.47,7.15-15.33,15.85-3.65,29.13-6.37,32.74-7.91h-55.21v33.98c-.83,1.69-1.94,3-1.94,3-4.71,5.89-13.2,14.39-14.71,15.89Z"/>
        <path class="cls-46" d="M683.92,786.85c-1.8,1.92-.03,3.08-2.54,4.93-2.5,1.84-50.67,4.63-55.21,0,0,0-1.71-.94-2.67-6.2,0,0,3.39,1.77,8.39,2.68,5.01.91,9.51.3,11.68.2,2.17-.1,21.04-2.33,23.77-2.07,2.73.25,12.69-.56,12.69-.56,0,0,4.4.96,4.2.96l-.32.05Z"/>
        <path class="cls-35" d="M763.33,858.92c4.96.13,8.9.19,8.91.07.02-3.68-.1-7.01-.25-10.04l-.06-1.18c-.35-5.58-.92-10-1.54-13.41-4.21.47-8.02,2.31-7.79,7.5.21,4.79.85,12.01.74,17.05Z"/>
        <path class="cls-54" d="M732.65,806.37c1.32,0,2.43,1.1,2.43,2.43v2.02c0,1.32-1.1,2.43-2.43,2.43s-2.43-1.1-2.43-2.43v-2.02c0-1.32,1.1-2.43,2.43-2.43Z"/>
        <path class="cls-54" d="M729.72,818.81c.88-.88,2.57-1.01,3.43,0,1.31,1.54,1.31,3.51,0,5.05-.86,1.01-2.55.88-3.43,0-.72-.72-.84-1.67-.53-2.53-.31-.85-.19-1.81.53-2.53Z"/>
        <path class="cls-54" d="M727.48,832.42c.42-1.25,1.66-2.06,2.99-1.7,1.14.31,1.97,1.54,1.75,2.72,0,.42-.09.85-.3,1.25-.25.48-.6.82-1.04,1.15-1.1.81-2.67.15-3.32-.87-.51-.8-.35-1.72-.07-2.55Z"/>
        <path class="cls-54" d="M641.05,805.96c1.32,0,2.43,1.1,2.43,2.43v2.43c0,1.32-1.1,2.43-2.43,2.43s-2.43-1.1-2.43-2.43v-2.43c0-1.32,1.1-2.43,2.43-2.43Z"/>
        <path class="cls-54" d="M640.24,818.5c1.32,0,2.43,1.1,2.43,2.43v.56c0,1.32-1.1,2.43-2.43,2.43s-2.43-1.1-2.43-2.43v-.56c0-1.32,1.1-2.43,2.43-2.43Z"/>
        <path class="cls-54" d="M640.65,829.02c1.32,0,2.43,1.1,2.43,2.43v2.02c0,1.32-1.1,2.43-2.43,2.43s-2.43-1.1-2.43-2.43v-2.02c0-1.32,1.1-2.43,2.43-2.43Z"/>
      </g>
      <g>
        <path class="cls-80" d="M731.75,365.7c-10.48,0-10.24-12.92-14.34-14.97-.6-.3-1.87-.76-1.87-.76l-1.17,19.88s3.08,4.95-6.17,4.55c-.9-.04.62,4.58,1.62,5.26s-12.85-7.95-10.53-6.67,12.09.73,13.12,1.18c1.04.45,8.6,1.27,9.76,1.24,1.16-.03,9.57-9.7,9.57-9.7Z"/>
        <path class="cls-80" d="M692.57,380.59c-2.56,0-5.18-.14-7.83-.47-2.66-.33-4.55-2.76-4.22-5.42.33-2.66,2.76-4.55,5.42-4.21,10.78,1.35,21.55-1.06,29.42-2.82l1.08-.24c2.62-.58,5.21,1.07,5.79,3.69.58,2.62-1.07,5.21-3.69,5.79l-1.07.24c-6.74,1.5-15.44,3.45-24.91,3.45Z"/>
        <path class="cls-80" d="M695.31,390.82c-2.15,0-4.3-.12-6.42-.39-2.66-.33-4.55-2.76-4.21-5.42.33-2.66,2.76-4.55,5.42-4.21,10.72,1.34,22.75-1.83,29.39-5.34,2.37-1.25,5.31-.35,6.56,2.02,1.25,2.37.35,5.31-2.02,6.56-6.86,3.63-17.8,6.78-28.71,6.78Z"/>
        <path class="cls-80" d="M698.6,398.89c-1.44,0-2.89-.08-4.35-.27-2.66-.33-4.55-2.76-4.21-5.42.33-2.66,2.76-4.55,5.42-4.21,7.43.93,15.09-1.71,21.84-4.04,3.07-1.06,5.97-2.06,8.66-2.66,2.62-.58,5.21,1.07,5.79,3.69.58,2.62-1.07,5.21-3.69,5.79-2.15.48-4.8,1.39-7.6,2.36-6.26,2.16-13.81,4.76-21.86,4.76Z"/>
        <path class="cls-80" d="M714.44,367.9c-4.53,1.09-12.75,2.65-17.9,2.81-4.91.15-4.32,3.67-4.32,7.93,0,6.67,6.98,12.44,6.98,12.44,0,0,11.83.3,12.74-.61.91-.91,8.49-3.64,7.58-6.37s-3.34-8.19-4.55-9.1-.53-7.1-.53-7.1Z"/>
      </g>
      <g>
        <rect class="cls-14" x="686.92" y="184.79" width="36.46" height="58.59"/>
        <path class="cls-25" d="M686.97,222.74c9.59,1.47,19-1.52,27.03-5.18,5.83-2.66,9.34,3.82,9.34,3.82l.11,13.83.14-62.16-36.61-.08v49.77Z"/>
        <path class="cls-14" d="M685.31,219.5s0-.03,0,0h0Z"/>
        <path class="cls-14" d="M689.79,282c8.36-.53,34.6-43.61,50.62-45.74-4.34-2.3-8.73-5.16-11.94-8.01-2.99-2.66-4.97-5.31-4.97-7.55-.01.15-.04.45-.11.83-.56,2.92-3.72,11.48-21.52,11.48-13.98,0-14.91-8.91-14.94-11.27-.03,3.33-.66,6.07-1.83,8.36-1.31,2.59-3.3,4.64-5.87,6.35-7.29,15.53,3.95,45.97,10.57,45.54Z"/>
        <g>
          <g>
            <path class="cls-64" d="M754.04,138.9c-1.08-2.91.22-11.67-.1-14.57-3.52-31.51-14.49-52.67-48.18-52.67-36.79,0-24.33,23.06-24.33,59.85s-10.94,60.51,25.34,66.61c38.73,6.52,56.22-35.08,47.27-59.22Z"/>
            <g>
              <path class="cls-78" d="M655.28,122.46c3.57,23.79,8.28,30.35,20.69,31.19l23.84-80.76c-24.54-.59-40.08,18.32-46.72,36.46-1.97,5.37.31.62,2.19,13.11Z"/>
              <path class="cls-25" d="M652.87,167.93c0,9.12,7.95,30.21,12.88,36.53,2.1,2.7,4.17,6.05,10.85,8.13,6.08,1.89,15.23,3.38,17.64,9.57,1.3,3.32.39-3.14,2.9-3.57,26.52-4.63,45.36-32.35,45.36-54.63l-5.96-31.03c0-24.39-19.28-44.34-42.83-44.34-23.56,0-42.83,19.95-42.83,44.34l1.99,35.01Z"/>
              <path class="cls-14" d="M651.42,167.29c.9,25.61,11.16,47.72,37.68,46.8,30.82-1.08,39.36-32.03,38.51-56.4l-1.48-21.14c-.85-24.37-11.06-48.91-34.6-48.09-23.54.82-42.11,21.44-41.26,45.82l1.16,33.02Z"/>
              <path class="cls-64" d="M743.95,131.2c22.5-4.21-22.78-45.55-28.74-47.52-4.09-1.35,2.02-11.93-11.08-12.11-12.58-.16-26.08,2.59-34.77,8.38-11.94,7.95-12.87,9.53-8.94,19.73,8.7,22.57,63.12,35.34,83.53,31.52Z"/>
              <path class="cls-64" d="M724.25,132.95c.37,11.58,1.23,15.27,2.13,17.49,1.59,3.94,4.27,2.36,4.72-.25.59-3.42,2.25-8.54,10.19-10.84.89-.26-17.14-10.84-17.14-10.84l.11,4.44Z"/>
              <path class="cls-103" d="M697.04,182.76s-3.81,11.76-15.4,11.76c-12.81,0-12.67-11.76-12.67-11.76h28.07Z"/>
              <path class="cls-3" d="M708.22,140.03l-18.89-1.97,18.89,1.97Z"/>
              <path class="cls-3" d="M650.48,139.87l15.97-1.48-15.97,1.48Z"/>
              <path class="cls-64" d="M697.25,102.57c7.62,12.15-3.35,23.68,11.33,27.13,12.31,2.9,14.69,5.22,16.66,15.82,1.37,7.38,15.52-13.3,15.52-13.3,0,0,3.51-16.51.86-17.82s-22.85-4.93-24.83-5.91c-1.99-.99-19.53-5.91-19.53-5.91Z"/>
              <path class="cls-25" d="M681.2,201.52c2.63,0,4.02-.27,5.95-.66,1.93-.39,2.94,1.24,1.19,2.42-2.01,1.34-4.41,2.04-7.39,1.79-1.64-.14-3.06-.62-4.29-1.35-1.86-1.1-1.68-3.32.02-2.88,1.13.29,3.09.68,4.52.68Z"/>
              <path class="cls-25" d="M675.9,173.91c-4.51-.03-8.35-3.18-8.15-6.37.07-1.16,1.02-2.55,2.79-1.52.81.47,3,1.04,5.33,1.04s3.59-.56,4.91-1.04c2.87-1.03,3.77.36,3.85,1.52.2,3.19-4.22,6.34-8.73,6.37Z"/>
              <path class="cls-79" d="M674.92,192.96c3.23-3.95,11.45-3.76,17.88-3.3-2.43,2.56-6.03,4.86-11.15,4.86-2.86,0-5.06-.59-6.78-1.49.02-.02.03-.04.05-.07Z"/>
              <path class="cls-20" d="M701.27,150.73c0,2.16-1.76,3.91-3.94,3.91s-3.94-1.75-3.94-3.91,1.76-3.91,3.94-3.91,3.94,1.75,3.94,3.91Z"/>
              <path class="cls-20" d="M665.48,151.07c0,2.16-1.76,3.91-3.94,3.91s-3.94-1.75-3.94-3.91,1.76-3.91,3.94-3.91,3.94,1.75,3.94,3.91Z"/>
              <path class="cls-64" d="M668.87,150.15c-.28,0-.57-.08-.83-.25-.01,0-2.15-1.38-5.81-1.38-2.65,0-5.63,1.25-5.66,1.26-.76.32-1.63-.03-1.95-.79-.32-.75.03-1.63.79-1.95.14-.06,3.57-1.5,6.81-1.5,4.62,0,7.35,1.8,7.47,1.88.68.46.86,1.38.4,2.06-.29.43-.76.66-1.23.66Z"/>
            </g>
            <path class="cls-14" d="M668.15,184.15c.87.52,5.9,1.56,11.8,1.56s15.88-.59,18.26-1.46v-2.44h-30.32l.26,2.34Z"/>
            <path class="cls-25" d="M730.38,152.03c-.61,7.46,3.77,13.9,9.78,14.38,6.01.48,11.39-5.17,12-12.63.61-7.46-2.74-13.29-8.7-14.25-5.96-.96-12.47,5.04-13.08,12.5Z"/>
            <path class="cls-44" d="M742.74,163.21c-.16,1.92.97,3.58,2.52,3.71s2.93-1.33,3.09-3.26-.71-3.43-2.24-3.67-3.21,1.3-3.37,3.22Z"/>
            <path class="cls-25" d="M745.82,157.03c-1.9,5.08-6.44,7.06-9.64,6.01-4.13-1.35,1.9-19.93,6.96-18.39,4.69,1.43,4.62,7.3,2.68,12.38Z"/>
          </g>
          <path class="cls-64" d="M706.73,149.65c-.19,0-.38-.04-.57-.11-.04-.02-3.71-1.51-7.57-1.51-2.63,0-5.62,1.25-5.65,1.26-.75.32-1.62-.03-1.94-.79-.32-.75.03-1.62.79-1.94.14-.06,3.57-1.5,6.81-1.5,4.47,0,8.53,1.67,8.71,1.74.76.31,1.11,1.18.8,1.94-.24.57-.79.92-1.37.92Z"/>
          <path class="cls-14" d="M674.36,156.05c3.82-.13,3.12,10.11,3.12,10.11l-1.61.9c-3.14-.09-7.29-.07-8.17-3.96-.88-3.94.75-6.86,6.65-7.06Z"/>
        </g>
        <path class="cls-64" d="M688.27,118.44l-43.83-4.41c-4.66,4.89-3.59,17.51-2.37,17.79,5.74,1.35,27.47,2.29,44.36.8-.4-2.63,0-8.61,1.84-14.18Z"/>
        <path class="cls-27" d="M650.4,136.27l.31,9.65c1.36-6.76,22.39-8.16,45.56-7.27,13.84.58,28.05,1.58,28.53,7.27-.63-31.61-12.39-53.78-35.09-53.78-30.98,0-40.15,19.87-39.32,44.14Z"/>
      </g>
      <path class="cls-70" d="M708.55,297.61l7.29.39,8.35-.39c-.26-20.18,4.04-52.32,22.41-58.97.85-1.1,1.78-1.64,2.78-1.46.91.16,1.79.34,2.64.57.23-.01.46,0,.69.01,0,0-5.27-1-8.97-1.52-3.7-.53-9.4-.53-9.4-.53-21.15,0-26.08,39.66-25.8,61.91Z"/>
      <rect class="cls-59" x="706.36" y="290.31" width="18.67" height="9.48" rx="2.87" ry="2.87"/>
      <g>
        <path class="cls-56" d="M652.71,115.32c3.36-2.58,6.85-1.29,22.39-1.29,17.61,0,35.58,2.58,50.04,6.98,14.63,4.43,25.65,10.73,28.88,17.97,1.51,1.12,3.86-13.22,4.09-23.54.03-.58.03-1.12.03-1.66,0-4.07-.5-8.1-1.51-11.99-4.44-16.84-18.63-31.19-44.51-35.31-.1,0-.21-.05-.26-.05-2.89-.45-5.92-.77-9.12-.98-1.13-.07-2.23-.11-3.32-.11-6.77-.09-12.7.93-17.85,2.69-.37.12-.73.24-1.08.4-13.24,4.85-21.28,14.74-25.42,24.16-5.15,11.62-4.73,22.52-2.37,22.72Z"/>
        <path class="cls-51" d="M725.13,121.01c4.77-21.75,14.48-53.5-34.97-53.17-44.56.29-44.56,46.19-44.56,46.19l79.53,6.99Z"/>
        <path class="cls-100" d="M626.1,109.81c12.88-.32,17.25,5.85,44.33,14.68,20.54,6.72,40.54-.34,54.7-3.48-4.84-4.42-54.14-12-81.34-12.19-7.08-.05-16.51.82-17.69.99Z"/>
      </g>
      <g>
        <path class="cls-14" d="M302.18,429.94c-1.33,0-2.68-.19-4.02-.59l-71.98-21.51c-12.82-3.83-20.93-17.13-18.48-30.28l20.23-108.43c1.42-7.61,8.73-12.62,16.34-11.2,7.61,1.42,12.62,8.73,11.2,16.34l-19.99,107.11,70.7,21.13c7.41,2.21,11.63,10.02,9.41,17.43-1.82,6.07-7.39,10-13.42,10Z"/>
        <path class="cls-71" d="M275.14,273.07l-11.67,69.97-48.91-9.16s9.48-53.75,14.31-77.92c3.48-17.4,11.92-33.94,31.45-38.66,1.98-.05,3.84.28,5.58.92,7.19,9.3,9.25,54.84,9.25,54.84Z"/>
        <g>
          <path class="cls-14" d="M304.34,402.63c10.46,2.65,13.47-10.31,18.08-11.32.68-.15,2.06-.29,2.06-.29l-3.85,20.13s-4.32,4.16,5.01,6.1c.9.19-1.77,4.41-2.94,4.84-1.17.43,14.82-4.69,12.18-4-2.64.7-12.24-2.32-13.39-2.14-1.15.19-8.9-.91-10.05-1.23s-7.1-12.09-7.1-12.09Z"/>
          <path class="cls-77" d="M292.88,437.54l-6.39,15.69c-1.28,3.14.24,6.74,3.38,8.02l39.68,16.15c3.14,1.28,6.74-.24,8.02-3.38l6.39-15.69-51.08-20.79Z"/>
          <rect class="cls-96" x="383.05" y="395.96" width="17.66" height="29.62" rx="3.08" ry="3.08" transform="translate(-136.33 618.85) rotate(-67.85)"/>
          <path class="cls-96" d="M453.01,435.06l-2.15-3.64s-39.27-15.99-40.16-16.35l-1.94,4.77c.88.36,40.16,16.34,40.16,16.34l4.08-1.1s0,0,0-.01c0,0,0,0,0-.01Z"/>
          <path class="cls-75" d="M348.38,417.95l-4.79-1.95-8.66,13.77,4.96,2.02c1.55.63,2.59-.09,2.85-.47,2.29-3.45,4.49-6.97,6.63-10.53.81-1.34.47-2.12-.98-2.83Z"/>
          <g id="kCjpPz.tif">
            <path class="cls-69" d="M388.6,399.14c.29-.71.12-1.96-.34-2.55-3.96-5.07-8.62-9.78-14.34-12.8-1.68-.89-3.5-1.42-5.26-2.14-1.9-.77-39.91-16.23-41.8-17.02l-13.9,34.16c3.75,1.61,1.85.78,5.6,2.39,1.56.67,2.89,1.9,2.59,3.74-.18,1.06-.79,1.98-1.33,2.88-.77,1.27-10.67,17.3-14.85,24.05-.64,1.03-1.51,1.93-2.6,2.47-1.2.59-2.42.59-3.72.58-1.51,0-3.18.05-4.47.92-1.07.72-1.32,1.81-1.86,3.15,17.04,6.94,34.07,13.87,51.08,20.79.88-1.91,1.05-4.05-.36-5.76-.89-1.08-11.31-8.23-11.95-8.82-.83-.76-1.38-1.78-1.23-2.93.08-.61.32-1.19.61-1.73.38-.68,10.52-17.13,14.65-23.92.98-1.6,1.62-2.67,1.72-2.85.4-.75,1.04-.74,1.75-.44,2.55,1.07,5.13,2.08,7.69,3.13,7.36,3.03,15.01,3.48,22.79,2.41.67-.09,1.31-.54,1.75-1.03.56-.62.8-1.54,1.12-2.29,0,0,5.15-12.66,6.67-16.39Z"/>
            <path class="cls-69" d="M300.03,440.01c1.1-.54,1.96-1.44,2.6-2.47,4.19-6.75,14.08-22.78,14.85-24.05.55-.91,1.15-1.82,1.33-2.88.07-.42.05-.8-.03-1.16-2.79,4.53-10.32,16.73-13.83,22.39-.64,1.03-1.51,1.93-2.6,2.47-1.2.59-2.42.59-3.72.58-1.51,0-3.18.05-4.47.92-1.07.72-1.32,1.81-1.86,3.15,1.34.55,2.68,1.09,4.02,1.64,1.3,0,2.52,0,3.72-.58Z"/>
            <path class="cls-17" d="M315.09,366.4l7.98,3.25,1.81.74,5.17,2.19h0c11.06,4.51,34.8,14.16,36.29,14.77,1.76.72,3.58,1.25,5.26,2.14,5.72,3.02,10.38,7.74,14.34,12.8.46.59.63,1.84.34,2.55.96-2.35,1.83-4.49,2.32-5.7.29-.71.12-1.96-.34-2.55-3.96-5.07-8.62-9.78-14.34-12.8-1.68-.89-3.5-1.42-5.26-2.14-1.49-.61-25.24-10.26-36.29-14.77h0s-5.17-2.19-5.17-2.19l-1.81-.74-7.98-3.25c-2.04-.83-4.38.16-5.21,2.2l-2.32,5.7c.83-2.04,3.18-3.03,5.21-2.2Z"/>
          </g>
          <rect class="cls-77" x="382.32" y="404.12" width="23.19" height="14.95" rx="3.08" ry="3.08" transform="translate(-135.83 621.25) rotate(-67.85)"/>
          <rect class="cls-77" x="342.37" y="376.14" width="17.03" height="35.88" rx="3.08" ry="3.08" transform="translate(-146.41 570.48) rotate(-67.85)"/>
          <rect class="cls-69" x="301.8" y="441.77" width="13.59" height="13.32" rx="2.45" ry="2.45" transform="translate(-223.09 565.17) rotate(-67.85)"/>
          <rect class="cls-77" x="347.29" y="397.99" width="39.26" height="5.31" rx="1.85" ry="1.85" transform="translate(-142.49 589.45) rotate(-67.85)"/>
          <path class="cls-77" d="M414.99,415.11c.49-5.54-.88-7.77-5.95-9.64-.05-.02-.09-.04-.14-.06-1.46-.51-2.2-.2-2.78,1.23l-6.52,16.02c-.58,1.43-.26,2.17,1.13,2.82.05.02.1.04.14.06,4.93,2.2,7.47,1.57,10.99-2.74.32-.39.61-.81.98-1.31l1.94-4.77c.08-.61.16-1.12.21-1.62Z"/>
          <path class="cls-69" d="M317.41,360.7c-2.04-.83-4.38.16-5.21,2.2l-10.89,26.75c-.83,2.04.16,4.38,2.2,5.21l9.79,3.98,13.9-34.16-9.79-3.98Z"/>
          <path class="cls-75" d="M319.53,407.68c-.77,1.27-10.67,17.3-14.85,24.05-.22.36-.48.7-.75,1.02l4.91,2c1.67.68,3.8-.03,4.73-1.58l12.99-21.75c.93-1.55.31-3.38-1.36-4.06l-4.52-1.84c-.27.77-.72,1.47-1.14,2.17Z"/>
          <path class="cls-77" d="M302.43,374.95h23.19c1.36,0,2.46,1.1,2.46,2.46v3.16c0,1.36-1.1,2.46-2.46,2.46h-23.19c-1.36,0-2.46-1.1-2.46-2.46v-3.16c0-1.36,1.1-2.46,2.46-2.46Z" transform="translate(-155.4 526.95) rotate(-67.85)"/>
          <path class="cls-87" d="M381.53,416.5c-.32.76-.17.7-.72,1.32-.44.49-1.08.94-1.75,1.03-5.6.77-11.13.74-16.53-.45-.46.75-1.42,1.08-2.27.74l-1.5-.61c-.66-.27-1.08-.89-1.14-1.56-.46-.17-.91-.34-1.36-.53-2.56-1.05-5.14-2.05-7.69-3.13-.71-.3-1.35-.31-1.75.44-.1.19-.64,1.1-1.61,2.7l-13.85-5.65-10.74-4.39s.44-.97.53-1.5c.31-1.83-1.02-3.07-2.59-3.74-3.75-1.6-1.85-.78-5.6-2.39l.34.06-1.81-.74-7.98-3.25c-2.04-.83-3.03-3.18-2.2-5.21l1.96-4.81s-2.58,5.65-.11,6.66c10.15,4.13,48.97,20.01,57.35,23.43,9.57,3.9,21.01,1.58,21.01,1.58Z"/>
          <g class="cls-89">
            <rect class="cls-90" x="347.88" y="405.25" width="3.53" height="7.43" rx="1.54" ry="1.54" transform="translate(-160.96 578.65) rotate(-67.85)"/>
          </g>
          <path class="cls-44" d="M350.23,404.48h.45c.85,0,1.54.69,1.54,1.54v4.35c0,.85-.69,1.54-1.54,1.54h-.45c-.85,0-1.54-.69-1.54-1.54v-4.35c0-.85.69-1.54,1.54-1.54Z" transform="translate(-159.72 578.94) rotate(-67.86)"/>
          <g>
            <path class="cls-69" d="M381.3,417.07c.25-.5.42-1.05.63-1.54-.22.53-.43,1.05-.63,1.54Z"/>
            <path class="cls-69" d="M343.03,454c-.89-1.08-11.31-8.23-11.95-8.82-.57-.52-.99-1.16-1.17-1.87-1.01,1.66-1.68,2.75-1.77,2.91-.3.53-.54,1.12-.61,1.73-.15,1.15.4,2.17,1.23,2.93.46.42,5.92,4.2,9.32,6.71,1.77.72,3.54,1.44,5.31,2.16.88-1.91,1.05-4.05-.36-5.76Z"/>
          </g>
          <g>
            <path class="cls-14" d="M348.22,428.92c-.21,0-.41-.01-.62-.04-12.81-1.59-23.85-7.16-31.92-11.23l-1.01-.51c-2.46-1.24-3.46-4.24-2.21-6.71,1.24-2.46,4.24-3.46,6.71-2.22l1.02.51c7.41,3.74,17.55,8.86,28.64,10.23,2.74.34,4.68,2.83,4.34,5.57-.31,2.53-2.47,4.38-4.95,4.38Z"/>
            <path class="cls-14" d="M341.48,438.16c-.21,0-.41-.01-.62-.04-13.25-1.64-26.34-8.84-33.44-15.24-2.05-1.85-2.21-5.01-.36-7.06,1.85-2.05,5.01-2.21,7.06-.36,5.74,5.18,16.94,11.38,27.97,12.75,2.74.34,4.68,2.83,4.34,5.57-.31,2.53-2.47,4.38-4.95,4.38Z"/>
            <path class="cls-14" d="M334.06,444.99c-.21,0-.41-.01-.62-.04-9.95-1.23-18.3-6.71-25.01-11.1-2.55-1.67-4.96-3.25-6.99-4.27-2.46-1.24-3.46-4.24-2.22-6.71,1.24-2.46,4.24-3.46,6.71-2.22,2.53,1.28,5.17,3.01,7.97,4.84,6.15,4.03,13.12,8.6,20.77,9.54,2.74.34,4.68,2.83,4.34,5.57-.31,2.53-2.47,4.38-4.95,4.38Z"/>
            <path class="cls-14" d="M325.4,411.39c13.24,4.96,16.79,7.47,15.11,14.13-1.68,6.66-10.1,10.65-10.1,10.65,0,0-11.88-2.68-12.56-3.82-.68-1.14-7.56-5.78-5.96-8.27,1.6-2.49,5.4-7.33,6.84-7.93s6.68-4.75,6.68-4.75Z"/>
          </g>
          <g class="cls-16">
            <path class="cls-44" d="M385.91,399.76c-.36,0-.72-.16-.97-.46-3.04-3.73-6.03-6.63-9.15-8.87-.56-.4-.69-1.18-.28-1.74.4-.56,1.18-.69,1.74-.28,3.3,2.37,6.44,5.42,9.62,9.32.44.53.36,1.32-.18,1.76-.23.19-.51.28-.79.28Z"/>
          </g>
          <g class="cls-16">
            <path class="cls-44" d="M367.3,386.06c-.16,0-.32-.03-.47-.09l-32.63-13.28c-.64-.26-.95-.99-.69-1.63.26-.64.99-.95,1.63-.69l32.63,13.28c.64.26.95.99.69,1.63-.2.48-.66.78-1.16.78Z"/>
          </g>
          <g class="cls-16">
            <path class="cls-44" d="M331.01,371.3c-.17,0-.34-.03-.5-.11l-2.78-1.22c-.63-.28-.92-1.01-.64-1.65.28-.63,1.01-.92,1.65-.64l2.78,1.22c.63.28.92,1.01.64,1.65-.21.47-.66.75-1.14.75Z"/>
          </g>
        </g>
      </g>
      <rect class="cls-77" x="530.5" y="312.49" width="23.32" height="87.42" rx="6.24" ry="6.24"/>
      <polygon class="cls-98" points="553.81 359.91 553.81 378.37 530.5 370.89 530.5 355.95 553.81 359.91"/>
      <rect class="cls-83" x="483.88" y="205.5" width="117.39" height="33.09" rx="6.24" ry="6.24"/>
      <path class="cls-13" d="M490.68,205.5v22.78c0,1,.79,1.84,1.73,1.84h3.03c.94,0,1.73-.84,1.73-1.84v-4.84c.3.62.93,1.06,1.65,1.06h2.05v7.32c0,1.2.96,2.21,2.09,2.21h3.66c1.13,0,2.09-1.01,2.09-2.21v-7.32h3.2v14.1h30.1v-6.93h9.85v6.93h24.38v-2.12c.15.04.29.05.45.05h3.66c1.13,0,2.09-1.01,2.09-2.21v-15.7h4.21v12.58c0,1.2.96,2.21,2.09,2.21h3.66c1.13,0,2.09-1.01,2.09-2.21v-25.69h-103.79Z"/>
      <g class="cls-50">
        <rect class="cls-44" x="487.62" y="209.25" width="109.9" height="9.37" rx="2.5" ry="2.5"/>
      </g>
      <path class="cls-42" d="M561.71,356.79c1.15,6.77-3.52,12.31-10.39,12.31h-14.99c-6.87,0-12.49-5.62-12.49-12.49v-11.66c0-6.87,5.62-12.49,12.49-12.49h8.74c8.12,0,9.57,3.54,9.57,12.31l7.06,12.01Z"/>
      <path class="cls-80" d="M546.32,356.61c0,6.87-5.06,12.49-11.24,12.49s-11.24-5.62-11.24-12.49v-11.66c0-6.87,5.06-12.49,11.24-12.49s11.24,5.62,11.24,12.49v11.66Z"/>
      <path class="cls-40" d="M534.77,338.76h9.05-9.05Z"/>
      <path class="cls-40" d="M527.59,350.37h9.05-9.05Z"/>
      <path class="cls-40" d="M537.68,349.43h9.05-9.05Z"/>
      <rect class="cls-105" x="747.38" y="796.54" width="116.14" height="84.53" rx="7.49" ry="7.49"/>
      <rect class="cls-97" x="832.36" y="796.54" width="31.16" height="84.53" rx="7.49" ry="7.49"/>
      <path class="cls-92" d="M863.52,874.96v3.05c0,1.68-1.69,3.05-3.75,3.05h-108.65c-2.06,0-3.75-1.39-3.75-3.08v-3.08l116.14.06Z"/>
      <path class="cls-92" d="M863.52,796.91v6.16c0,2.06-1.69,3.75-3.75,3.74l-108.65-.05c-2.06,0-3.75-1.69-3.75-3.75v-6.16l116.14.06Z"/>
      <path class="cls-105" d="M859.78,791.29c2.06,0,3.75,1.69,3.75,3.75v2.36c0,2.06-1.69,3.75-3.75,3.75h-108.65c-2.06,0-3.75-1.69-3.75-3.75v-2.42c0-2.06,1.69-3.75,3.75-3.74l108.65.05Z"/>
      <path class="cls-97" d="M863.52,791.29v6.11c0,2.06-1.69,3.75-3.75,3.75h-23.73c-2.06,0-3.75-1.69-3.75-3.75v-6.16l31.22.06Z"/>
      <g class="cls-32">
        <path class="cls-13" d="M763.93,791.21v60.84c0,2.06,1.69,3.75,3.75,3.75h4.27c2.06,0,3.75-1.69,3.75-3.75v-21.23c0-2.06,1.69-3.75,3.75-3.75h9.57c2.06,0,3.75,1.69,3.75,3.75v7.49c0,2.06,1.69,3.75,3.75,3.75h8.33c2.06,0,3.75,1.69,3.75,3.75v17.43c0,2.06,1.69,3.75,3.75,3.75h8.33c2.06,0,3.75-1.69,3.75-3.75v-17.43c0-2.06,1.69-3.75,3.75-3.75h10.41c2.06,0,3.75,1.69,3.75,3.75v20.34c0,2.06,1.69,3.75,3.75,3.75h13.74c2.06,0,3.75-1.69,3.75-3.75v-74.93h-99.6Z"/>
      </g>
      <g class="cls-53">
        <path class="cls-44" d="M792.04,791.26c1.31,0,2.39,1.07,2.39,2.39v1.2c0,1.31-1.07,2.39-2.39,2.39h-36.03c-1.31,0-2.39-1.07-2.39-2.39v-1.22c0-1.31,1.07-2.38,2.39-2.38l36.03.02Z"/>
      </g>
      <path class="cls-96" d="M847.05,852.4c-25.73,0-66.09-23.18-89.97-51.68-.89-1.06-.75-2.63.31-3.52,1.06-.89,2.63-.75,3.52.31,23.06,27.51,61.7,49.89,86.14,49.89,7.73,0,17-2.29,17.23-13.18.03-1.38,1.16-2.49,2.55-2.44,1.38.03,2.47,1.17,2.44,2.55-.12,5.43-2.52,18.06-22.23,18.06Z"/>
      <path class="cls-41" d="M749.28,460.3c-3.1.28-5.64,3.07-5.64,6.18v14.01c0,3.12,2.54,5.44,5.64,5.15l21.42-1.96c3.1-.28,5.64-3.07,5.64-6.18v-14.01c0-3.12-2.54-5.44-5.64-5.15l-21.42,1.96Z"/>
      <polygon class="cls-80" points="733.23 364.73 726.15 364.73 713.46 392 733.23 392 733.23 364.73"/>
    </g>
  </g>
</svg>