<?xml version="1.0" encoding="UTF-8"?>
<svg id="Layer_1" data-name="Layer 1" xmlns="http://www.w3.org/2000/svg" viewBox="0 0 1200 900">
  <defs>
    <style>
      .cls-1 {
        fill: #e0e0ff;
      }

      .cls-2 {
        fill: #fed3d1;
      }

      .cls-3 {
        fill: #fff;
      }

      .cls-4 {
        opacity: .2;
      }

      .cls-4, .cls-5, .cls-6 {
        isolation: isolate;
      }

      .cls-4, .cls-7 {
        fill: #1b1b43;
      }

      .cls-8 {
        fill: none;
      }

      .cls-5 {
        fill: #be443d;
        opacity: .3;
      }

      .cls-9, .cls-6 {
        fill: #fe5b52;
      }

      .cls-10 {
        fill: #cbcbff;
      }

      .cls-11 {
        fill: #d28572;
      }

      .cls-6 {
        opacity: .4;
      }

      .cls-12 {
        fill: #fefefe;
      }

      .cls-13 {
        fill: #925d4f;
      }

      .cls-14 {
        fill: #5254cf;
      }

      .cls-15 {
        fill: #ffbc96;
      }
    </style>
  </defs>
  <g>
    <rect class="cls-1" x="83.41" y="658.33" width="168.12" height="221.06"/>
    <rect class="cls-1" x="373.23" y="578.44" width="169.05" height="300.96"/>
    <rect class="cls-1" x="660.33" y="481.13" width="176.98" height="398.26"/>
    <rect class="cls-1" x="967.83" y="354.43" width="185.35" height="524.96"/>
    <g>
      <path class="cls-1" d="M91.81,487.61l-.53-32.71c48.41-.81,180.55-13.31,334.1-54.87,112.53-30.46,220.37-71.56,320.56-122.19,125.03-63.18,238.41-141.47,336.96-232.66l22.21,24.01c-100.95,93.42-217.03,173.53-345.01,238.14-102.3,51.64-212.38,93.54-327.18,124.54-195.63,52.81-335.26,55.63-341.1,55.73h-.01Z"/>
      <polygon class="cls-1" points="1125.73 122.62 1024.6 21.47 1125.73 21.47 1125.73 122.62"/>
    </g>
  </g>
  <g>
    <g>
      <path class="cls-3" d="M900.14,135.54l-37.66-23.17c-.31-1.52-.66-3.03-1.09-4.56-8.87-30.89-41.09-48.75-71.98-39.88-28.2,8.1-45.53,35.66-41.58,63.92l-27.02,33.05c-.42.5.09,1.24.7,1.06l34.88-10.79c13.49,21.18,39.75,31.92,65.12,24.66,20.38-5.86,35.09-21.88,40.19-40.98l38.04-1.68c.84-.04,1.13-1.14.41-1.6h0v-.02Z"/>
      <path class="cls-14" d="M805.41,183.08c-7.21,0-14.39-1.34-21.28-4.01-11.48-4.44-21.45-12.51-28.17-22.76l-34.16,10.57c-.71.22-1.47-.04-1.89-.68-.42-.61-.38-1.43.1-2l26.75-32.7c-1.82-13.86,1.34-27.95,8.96-39.76,7.77-12.05,19.62-20.86,33.42-24.82,31.38-9.01,64.25,9.2,73.24,40.58.37,1.29.7,2.67,1.02,4.2l37.28,22.95c.71.43,1.06,1.28.84,2.08-.21.8-.91,1.38-1.73,1.4l-37.29,1.66c-5.52,19.67-21.06,35.34-40.69,40.98-5.41,1.56-10.91,2.32-16.39,2.32h.01v-.02ZM756.84,153.94l.42.66c13.5,21.19,39.8,31.16,63.96,24.22,19.49-5.59,34.24-20.63,39.48-40.26l.2-.72,38.26-1.7-37.59-23.12-.09-.43c-.33-1.67-.69-3.12-1.08-4.48-8.7-30.3-40.41-47.87-70.72-39.18-27.19,7.8-44.76,34.8-40.85,62.77l.06.44-26.55,32.46,34.49-10.66h.01Z"/>
    </g>
    <g>
      <g>
        <path class="cls-3" d="M821.29,120.06c0-9.06-7.84-16.27-17.1-15.22-6.76.76-12.36,6.16-13.37,12.88-.61,4.09.42,7.92,2.51,10.97.81,1.19,1.23,2.59,1.23,4.03v9.47h22.82v-9.47c0-1.43.39-2.83,1.2-3.99,1.71-2.47,2.7-5.46,2.7-8.67h.01Z"/>
        <path class="cls-14" d="M818.41,143.22h-24.87v-10.49c0-1.27-.37-2.46-1.06-3.46-2.33-3.4-3.29-7.57-2.68-11.7,1.07-7.14,7.06-12.93,14.26-13.75,4.67-.53,9.31.96,12.79,4.05s5.47,7.53,5.47,12.19c0,3.32-1,6.51-2.89,9.25-.68.97-1.02,2.16-1.02,3.42v10.49h-.01ZM795.59,141.17h20.79v-8.45c0-1.68.48-3.27,1.39-4.58,1.66-2.4,2.52-5.19,2.52-8.08,0-4.07-1.73-7.96-4.78-10.68-3.08-2.74-7.06-4.01-11.19-3.54-6.29.71-11.52,5.76-12.47,12.02-.54,3.62.29,7.26,2.33,10.23.92,1.34,1.41,2.94,1.41,4.61v8.45h-.01v.02Z"/>
      </g>
      <g>
        <rect class="cls-3" x="794.56" y="148.68" width="22.82" height="8.42"/>
        <path class="cls-14" d="M818.41,158.13h-24.87v-10.47h24.87v10.47ZM795.59,156.07h20.79v-6.38h-20.79v6.38Z"/>
      </g>
      <g>
        <path class="cls-3" d="M800.52,113.59s-4.42,2.9-2.21,8.35"/>
        <path class="cls-14" d="M797.36,122.31c-2-4.93.82-8.42,2.6-9.58l1.12,1.71-.57-.86.57.86c-.16.1-3.69,2.53-1.83,7.1l-1.89.77h0Z"/>
      </g>
      <g>
        <line class="cls-8" x1="787.25" y1="105.42" x2="774.14" y2="96.05"/>
        <rect class="cls-14" x="779.7" y="92.71" width="2.04" height="16.11" transform="translate(244.91 677.47) rotate(-54.46)"/>
      </g>
      <g>
        <line class="cls-8" x1="823.68" y1="104.57" x2="836.79" y2="95.21"/>
        <rect class="cls-14" x="822.19" y="98.91" width="16.11" height="2.04" transform="translate(96.58 501.21) rotate(-35.54)"/>
      </g>
      <g>
        <line class="cls-8" x1="805.62" y1="95.56" x2="806.12" y2="79.47"/>
        <rect class="cls-14" x="797.86" y="86.52" width="16.11" height="2.04" transform="translate(692.68 890.24) rotate(-88.17)"/>
      </g>
    </g>
  </g>
  <g>
    <g>
      <path class="cls-3" d="M403.84,144.03c-25.04,0-45.34,20.3-45.34,45.34,0,5.01.84,9.82,2.36,14.33l-19.74,23.98c-.32.39.1.93.57.74l26.54-11.11c8.29,10.57,21.16,17.37,35.64,17.37,25.04,0,45.34-20.3,45.34-45.34s-20.3-45.34-45.34-45.34h-.01v.02Z"/>
      <path class="cls-14" d="M403.84,235.72c-14.02,0-27.09-6.25-35.95-17.16l-25.81,10.8c-.64.27-1.38.07-1.78-.49s-.39-1.31.04-1.86l19.39-23.55c-1.47-4.61-2.22-9.36-2.22-14.12,0-25.56,20.79-46.36,46.36-46.36s46.36,20.79,46.36,46.36-20.79,46.36-46.36,46.36h-.01v.02ZM368.52,216.08l.48.61c8.48,10.79,21.18,16.98,34.82,16.98,24.43,0,44.31-19.88,44.31-44.31s-19.88-44.31-44.31-44.31-44.31,19.88-44.31,44.31c0,4.72.77,9.44,2.3,14.01l.18.53-18.71,22.72,25.22-10.57h.01v.02Z"/>
    </g>
    <g>
      <polyline class="cls-3" points="389.49 192.36 402.44 205.64 418.44 167.16"/>
      <polygon class="cls-14" points="402.78 207.46 388.76 193.07 390.21 191.64 402.08 203.82 417.49 166.76 419.38 167.55 402.78 207.46"/>
    </g>
  </g>
  <g>
    <g>
      <path class="cls-11" d="M675.62,191.71c.79.39,12.07,12.86,7.11,15.22-4.94,2.37-11.67,1.39-11.67,1.39l4.56-16.61h0Z"/>
      <polygon class="cls-15" points="626.06 218.25 612.36 258.53 648.73 277.69 658.15 224.02 626.07 218.25 626.06 218.25"/>
      <path class="cls-11" d="M657.41,225.89l-4.79,28.64c-11.97-15.06-16.93-31.85-16.93-31.85l6.72-.38,15,3.6h0Z"/>
      <path class="cls-15" d="M675.4,173.18s8.17,56.49-7.51,60.75c-15.68,4.24-41.8-15.68-41.8-15.68l7.83-47.03,22.87-7.51,18.61,9.47h0Z"/>
      <path class="cls-7" d="M675.4,173.18s-14.69-5.89-24.49,19.27l-4.9,8.49-24.17-2.62,3.92-30.69,21.22-10.46s23.85-16,28.41,16h.01Z"/>
      <path class="cls-7" d="M647.95,160.45s-12.3-8.81-31.9,10.78c-19.6,19.6-9.58,58.57,11.32,58.14,20.37-.42,14.69-20.58,13.39-24.17s7.19-44.75,7.19-44.75Z"/>
      <ellipse class="cls-15" cx="645.27" cy="199.2" rx="9.41" ry="10.73" transform="translate(-13.15 349.32) rotate(-30)"/>
      <path class="cls-7" d="M647.94,203.26s-.04-3.43-2.09-5.28c-1.06-.96-2.49-1.36-4.3-1.19l-.18-2.03c2.4-.22,4.37.37,5.87,1.72,2.7,2.48,2.73,6.61,2.73,6.78h-2.04,1.02-1.02.01Z"/>
      <circle class="cls-6" cx="663.09" cy="204.95" r="7.83"/>
      <circle class="cls-7" cx="597.36" cy="176.17" r="17.63"/>
    </g>
    <g>
      <g>
        <path class="cls-11" d="M632.34,839.24c-2.91-11.01-4.87-30.42-4.87-30.42l-37.34,2.3.91,24.18c9.4,6.08,27.79,16.02,47.39,16.16-2.68-3.56-4.89-7.58-6.11-12.2h.01Z"/>
        <path class="cls-7" d="M661.74,872.74c-4.69-5.12-15.87-11.43-23.3-21.29-19.59-.11-37.98-10.08-47.39-16.16l1.63,43.58h7.41l4.09-20.7s24.79,19.95,42.18,20.97c17.39,1.02,18.16-3.32,15.35-6.39h.02Z"/>
      </g>
      <path class="cls-7" d="M572.77,456.37c-8.67,7.56,6.91,280.74,12.27,363.59l51.4-.77-8.43-352.08-55.23-10.75h-.01Z"/>
      <g>
        <path class="cls-15" d="M666.86,839.24c-2.91-11.01-4.87-30.42-4.87-30.42l-37.34,2.3.91,24.18c9.4,6.08,27.79,16.02,47.39,16.16-2.68-3.56-4.89-7.58-6.11-12.2h.01Z"/>
        <path class="cls-7" d="M696.26,872.74c-4.69-5.12-15.87-11.43-23.3-21.29-19.59-.11-37.98-10.08-47.39-16.16l1.63,43.58h7.41l4.09-20.7s24.79,19.95,42.18,20.97c17.39,1.02,18.16-3.32,15.35-6.39h.02Z"/>
      </g>
      <path class="cls-14" d="M589.64,460.98l29.01,358.94,53.83,1.57s2.3-289.18-9.98-355.91l-72.87-4.61h.01Z"/>
      <path class="cls-7" d="M667.88,635.82c-.12,0-.23,0-.37-.01l-5.36-.44.17-2.03,5.36.44c1.12.09,2.16-.63,2.42-1.73.17-.69.02-1.4-.41-1.97s-1.08-.88-1.79-.9l-17.26-.28.02-2.04,17.26.28c1.33.02,2.57.64,3.38,1.7.81,1.07,1.09,2.41.77,3.7-.49,1.97-2.22,3.29-4.21,3.29h.01,0Z"/>
    </g>
    <g>
      <path class="cls-2" d="M615.97,248.77l3.59-15.99s17.26,8.06,28.26,16.5c4.63,3.56,7.53,8.92,7.94,14.77l1.01,14.38-30.68-8.43-10.1-21.22h-.01Z"/>
      <path class="cls-11" d="M809.02,426.47c-17.32-.86-30.05-6.97-39.88-16.37l-.52-26.34,44.99,3.59,12.52,11.77-17.13,27.36h.01Z"/>
      <path class="cls-7" d="M701.89,419.05s19.18-4.34,20.97-41.16l-16.88,13.29-4.09,27.87Z"/>
      <path class="cls-9" d="M615.97,248.77l27.87,14.42c10.19,5.28,17.56,14.77,20.06,25.96,7.86,35.05,22.07,117.2,7.8,206.6,0,0-57.54-1.79-112.76-34.77l21.62-163.54c1.88-14.19,9.08-27.14,20.16-36.2l15.25-12.48h-.01Z"/>
      <path class="cls-15" d="M706.49,377.11l50.4,2.24c5.12.22,10.17,1.54,14.68,3.99,7.03,3.82,13.72,8.48,20.09,13.97,3.71,3.21,4.61,8.63,2.2,12.9h0c-.63,1.11-1.46,2.1-2.46,2.91l-6.16,5.03c-.52.42-1.08.8-1.68,1.12l-8.79,4.68c-1.33.71-2.79,1.13-4.3,1.2-4.71.18-15.25-.59-23.6-9.82l-64.43-7.29,10.75-24.17,13.29-6.78h-.01.01Z"/>
      <path class="cls-11" d="M813.63,387.34l-30.4-10.01c-1.47-.49-3.02-.58-4.53-.27-7.24,1.5-28.55,6.43-24.88,12.19,2.69,4.21,24.05-2.42,24.05-2.42l35.79.52h-.02Z"/>
      <g>
        <path class="cls-11" d="M740.37,417.62h0c-1.88-1.28-2.36-3.83-1.08-5.71l4.63-6.79c1.28-1.88,3.83-2.36,5.71-1.08h0c1.88,1.28,2.36,3.83,1.08,5.71l-4.63,6.79c-1.28,1.88-3.83,2.36-5.71,1.08Z"/>
        <path class="cls-11" d="M746.22,421.03h0c-1.88-1.28-2.36-3.83-1.08-5.71l6.19-9.07c1.28-1.88,3.83-2.36,5.71-1.08h0c1.88,1.28,2.36,3.83,1.08,5.71l-6.19,9.07c-1.28,1.88-3.83,2.36-5.71,1.08Z"/>
        <path class="cls-11" d="M753.32,424.31h0c-1.88-1.28-2.36-3.83-1.08-5.71l4.63-6.79c1.28-1.88,3.83-2.36,5.71-1.08h0c1.88,1.28,2.36,3.83,1.08,5.71l-4.63,6.79c-1.28,1.88-3.83,2.36-5.71,1.08Z"/>
        <path class="cls-11" d="M766.47,416.11l.98.68c1.36.93,1.73,2.81.79,4.19l-3.82,5.59c-.93,1.36-2.81,1.73-4.19.79l-.98-.68c-1.36-.93-1.73-2.81-.79-4.19l3.82-5.59c.93-1.36,2.81-1.73,4.19-.79h0Z"/>
      </g>
      <path class="cls-9" d="M640.52,277.91s17.9-10.22,22.5,88.46l59.84,11.5c-10,12.43-17,26.16-20.97,41.16l-50.95-5.48c-7.1-.76-13.77-3.77-19.04-8.59h0c-6.29-5.74-10.16-13.68-10.8-22.18l-6.66-86.49,26.08-18.41h.01Z"/>
      <path class="cls-7" d="M702.68,420.15l-54.17-5.53c-8.92-.91-17.28-5.43-22.9-12.4-4.53-5.6-7.21-12.67-7.52-19.88l-2.72-63.17,2.04-.09,2.72,63.17c.29,6.78,2.8,13.4,7.08,18.68,5.3,6.54,13.13,10.79,21.53,11.66l52.38,5.36c5.1-21.29,16.05-35.15,19.77-39.39l-58.74-11.29-10.42-70.19,2.02-.29,10.21,68.76,61,11.73-1.38,1.36c-.14.14-14.78,14.98-20.69,40.67l-.2.88h-.01v-.04Z"/>
      <rect class="cls-7" x="639.92" y="418.84" width="2.04" height="34.48" transform="translate(72.41 963.1) rotate(-77.06)"/>
      <g>
        <polygon class="cls-11" points="791.89 412.67 785.53 401.27 779.24 398.12 779.85 396.91 786.51 400.24 793.08 412 791.89 412.67"/>
        <rect class="cls-11" x="780.95" y="405.12" width="1.36" height="14.12" transform="translate(-100.76 459.44) rotate(-30.87)"/>
        <rect class="cls-11" x="772.62" y="409.72" width="1.36" height="14.12" transform="translate(-104.29 455.82) rotate(-30.87)"/>
      </g>
    </g>
  </g>
  <g>
    <g>
      <g>
        <polygon class="cls-7" points="901.33 811.79 900.81 850.64 857.86 878.78 939.16 878.78 942.23 806.67 901.33 811.79"/>
        <rect class="cls-12" x="906.16" y="847.26" width="2.72" height="16.53" transform="translate(-317.39 1090.27) rotate(-54.16)"/>
      </g>
      <g>
        <polygon class="cls-7" points="1071.35 795.43 1080.56 845.29 1109.71 878.78 1049.11 878.78 1037.36 806.67 1071.35 795.43"/>
        <rect class="cls-12" x="1067.88" y="849.77" width="15.28" height="2.72" transform="translate(-275.27 1088.9) rotate(-48.34)"/>
      </g>
      <path class="cls-14" d="M908.48,445.65s-25.06,101.25-17.39,372.79h58.29s15.35-227.05,36.81-380.46l-77.73,7.68h.01Z"/>
      <polygon class="cls-14" points="1040.93 436.43 1086.7 811.52 1026.61 821.5 954.16 437.18 1040.93 436.43"/>
      <polygon class="cls-7" points="985.86 609.89 969.63 517.06 950.35 513.56 950.72 511.54 971.4 515.31 971.52 516.01 987.88 609.54 985.86 609.89"/>
      <path class="cls-7" d="M894.85,668.31c-.84,0-1.66-.29-2.31-.82-.77-.61-1.23-1.5-1.33-2.48-.2-1.9,1.13-3.66,3.02-3.99l16.81-2.97.36,2.02-16.81,2.97c-.84.16-1.43.92-1.34,1.78.04.43.26.82.59,1.11.33.28.77.41,1.2.37l7.21-.74.21,2.03-7.21.74c-.12,0-.26.01-.39.01h-.01Z"/>
      <path class="cls-7" d="M999.76,664.33c-.84,0-1.66-.29-2.31-.82-.76-.61-1.23-1.51-1.33-2.49-.2-1.9,1.13-3.66,3.02-3.99l16.81-2.97.36,2.02-16.81,2.97c-.84.16-1.43.92-1.34,1.78.04.43.26.82.59,1.11.33.28.76.41,1.2.37l7.21-.74.21,2.03-7.21.74c-.12,0-.26.01-.39.01h-.01Z"/>
    </g>
    <g>
      <polygon class="cls-3" points="966.13 241.54 914.12 375.07 908.48 445.65 1020.47 453.3 1004.17 242.62 966.13 241.54"/>
      <path class="cls-4" d="M910.58,359.32c8.66.66,17.18-.2,25.38-1.98,8.21-1.83,16.11-4.71,23.58-8.49,3.61-2.1,7.4-3.97,10.76-6.49,1.72-1.2,3.58-2.24,5.18-3.6,1.62-1.34,3.28-2.67,4.96-3.97,1.73-1.24,3.23-2.74,4.79-4.19l4.75-4.31c3.03-3.01,5.91-6.2,9.12-9.2-2.22,3.71-4.57,7.41-7.11,10.97l-4.2,5.04c-1.4,1.7-2.84,3.37-4.48,4.83-6.17,6.33-13.5,11.45-21.28,15.75-7.97,3.93-16.55,6.77-25.37,7.83-8.77,1.08-17.83.69-26.1-2.2h.02-.01Z"/>
      <path class="cls-7" d="M966.13,241.54s-21.49,31.32-42.13,258.86c-.11,1.24-1.54,1.92-2.57,1.19l-34.19-24.51,29.91-194.84,48.96-40.71h.02Z"/>
      <path class="cls-7" d="M966.13,241.54l-45.4,12.34c-6.97,1.89-12.41,7.31-14.35,14.28l-29.87,107.67-62.9,11.5-4.61,39.11,81.62-3.82c9.71-.47,17.85-7.51,19.67-17.07l22.2-116.42,33.62-47.61h.01v.02Z"/>
      <path class="cls-7" d="M1004.17,242.62s-23.89,164.61-23.2,258.57l74.91-3.4.14-158.01-51.86-97.16h.01Z"/>
      <rect class="cls-10" x="966.84" y="376.98" width="86.9" height="114.56" rx="4.51" ry="4.51" transform="translate(446.89 1378.64) rotate(-82.44)"/>
      <path class="cls-3" d="M1016.28,440.64h-.14l-13.81-1.83c-.28-.04-.53-.18-.71-.41-.17-.22-.26-.52-.21-.8l1.38-10.28c.04-.28.18-.53.42-.71.22-.17.5-.26.8-.21l13.81,1.83c.28.04.53.18.71.41.17.22.26.5.21.8l-1.38,10.28c-.04.28-.18.53-.41.71-.2.14-.42.22-.66.22h-.01ZM1002.79,437.48l13.23,1.77,1.29-9.72-13.23-1.76-1.29,9.72h0ZM1002.77,437.76h0ZM1003.8,427.71h0Z"/>
      <path class="cls-11" d="M1027.65,429.75l-3.29,4.71c-2.22,3.18-5.41,5.6-9.09,6.86-7.46,2.52-22.74,7.29-20.69,11.99,1.18,2.7,15.4-.98,15.4-.98,0,0-16.45,19.39-9.57,25.29,1.9,1.63,5.17,2.99,8.92,3.87,4.88,1.13,9.68.86,13.18.31,3.44-.53,6.57-2.27,8.86-4.89,2.2-2.51,5.09-6.18,7.65-10.58,6.99-12.02,10.94-21.45,12.69-27.71l-24.06-8.83h0v-.02Z"/>
      <path class="cls-7" d="M1004.17,242.62l33.75,7.47c9.25,2.04,16.86,8.56,20.31,17.37l33.85,77.98c5.16,11.87,4.34,25.48-2.17,36.66l-38.21,65.56-29.66-15.86,28.12-70.56-45.98-118.64h-.01Z"/>
      <path class="cls-7" d="M982.64,266.62c-10.42,0-18.11-6.08-18.22-6.17l1.28-1.6c.14.11,13.76,10.81,28.82,2.62l.98,1.79c-4.51,2.46-8.88,3.33-12.88,3.33h.01v.02Z"/>
      <rect class="cls-14" x="805.9" y="382.2" width="189.61" height="2.04" transform="translate(393.52 1220.41) rotate(-81.84)"/>
      <polygon class="cls-14" points="1022.96 432.24 1021.08 431.42 1052.95 356.83 1029.05 300.03 1030.94 299.23 1055.16 356.83 1022.96 432.24"/>
      <g>
        <rect class="cls-13" x="998.88" y="471.97" width="13.72" height="1.36" transform="translate(49.31 1038.48) rotate(-55.78)"/>
        <rect class="cls-13" x="1006.15" y="475.38" width="13.72" height="1.36" transform="translate(49.67 1045.98) rotate(-55.78)"/>
        <rect class="cls-13" x="1016.78" y="475.57" width="13.72" height="1.36" transform="translate(54.17 1054.86) rotate(-55.78)"/>
      </g>
    </g>
    <g>
      <path class="cls-13" d="M955.5,177.87s-16.75,14.35-11.48,19.13,12.43,5.74,12.43,5.74l-.96-24.87h-.01.01Z"/>
      <path class="cls-11" d="M1005.23,194.56l-1.07,48.08c-19.01,19.72-38.04-1.09-38.04-1.09l1.36-9.87.6-4.39,2.7-19.65.71-5.2,19.83-4.63,13.9-3.27h-.01.01Z"/>
      <path class="cls-13" d="M993.22,205.32s-6.27,12.4-25.72,26.37l.6-4.39,2.7-19.65,20.37-4.39,2.04,2.04h0Z"/>
      <path class="cls-11" d="M954.53,161.14s-11,59.3,3.82,58.35c14.82-.96,42.57-16.27,42.57-16.27l3.35-28.21-12.43-18.65-21.51.48-15.79,4.3h-.01Z"/>
      <path class="cls-7" d="M988.57,189.95s12.56,21.7,18.82,20.99c6.28-.71,17.58-40.89,3.77-57.58-13.81-16.69-45.19-7.18-47.71-7.18s-16.5-.37-26-.53c0,0,7.72,28.52,39.28,19.9,0,0,3.77,13.81,11.3,15.6l.53,8.79Z"/>
      <path class="cls-11" d="M996.98,187.43c-1.97,5.71-7.31,9.07-11.97,7.47s-6.86-7.52-4.89-13.23c1.97-5.71,7.31-9.07,11.97-7.47,4.66,1.6,6.86,7.52,4.89,13.23Z"/>
      <circle class="cls-5" cx="966.14" cy="192.36" r="8"/>
      <path class="cls-7" d="M984.57,190.55c-.04-.16-.88-3.71,1.09-6.7,1.27-1.9,3.35-3.11,6.2-3.58l.33,2.02c-2.27.37-3.89,1.28-4.83,2.69-1.49,2.24-.82,5.06-.81,5.09l-1.99.49h0Z"/>
    </g>
  </g>
  <g>
    <g>
      <g>
        <path class="cls-15" d="M317.34,616.69l-51.4-19.68c5.68,30.29,8.72,206.79,9.15,232.98l35.69,6.76c6.02-83.25,6.54-220.06,6.54-220.06h.01Z"/>
        <path class="cls-9" d="M347,875.46c-15.86-19.18-22.77-13.05-36.31-38.1.04-.2.07-.41.11-.6l-35.69-6.76c.02,2.11.06,3.28.06,3.28l-1.02,46.01h9.72l5.63-20.7,23.27,20.7h31.79c1.98,0,3.74-2.31,2.48-3.82h-.04Z"/>
      </g>
      <g>
        <path class="cls-15" d="M258,615.43l-48.03-26.9c1.24,30.79-21.18,205.89-24.52,231.86l34.35,11.82c17.98-81.52,38.2-216.8,38.2-216.8h0Z"/>
        <path class="cls-9" d="M250.05,875.76c-12.93-21.27-20.65-16.19-30.45-42.94.07-.18.12-.39.2-.59l-34.35-11.82c-.27,2.1-.42,3.26-.42,3.26l-7.65,45.39,9.61,1.4,8.55-19.68,22.08,28.01,29.41.42c1.94.28,4.03-1.76,3.01-3.43h.01Z"/>
      </g>
      <path class="cls-7" d="M203.04,453.3s-10.75,95.87,4.61,166.46c0,0,57.54,18.41,109.7-3.07,0,0,4.61-151.11-16.11-174.12l-98.2,10.75h0v-.02Z"/>
      <path class="cls-14" d="M261.09,603.68c-28.65,0-53.53-4.02-53.95-4.09l.33-2.02c.7.11,70.34,11.35,110.47-4.03l.72,1.9c-16.53,6.33-37.95,8.22-57.59,8.22h.01Z"/>
      <path class="cls-14" d="M262.84,495.9c-.63-4.68-6.13-45.76-6.13-47.81h2.04c0,1.44,3.66,29.22,6.12,47.54l-2.03.27h0Z"/>
      <path class="cls-11" d="M307.43,655.8c-.22,0-5.47-.04-8.56-3.92-.84-1.07-.52-2-.33-2.36.58-1.14,2.21-2.24,10.21-2.56,4.17-.16,8.1-.02,8.26-.02l-.1,2.72c-6.2-.21-13.43.11-15.56.92,2.36,2.46,6.02,2.48,6.07,2.48v2.72h.01v.02Z"/>
      <path class="cls-11" d="M242.06,661.24c-.22,0-5.47-.04-8.56-3.92-.84-1.07-.52-2-.33-2.36.58-1.14,2.21-2.24,10.21-2.56,4.17-.16,8.1-.02,8.26-.02l-.1,2.72c-6.2-.21-13.43.11-15.56.92,2.36,2.46,6.02,2.48,6.07,2.48v2.72h.01v.02Z"/>
    </g>
    <g>
      <path class="cls-10" d="M284.95,277.6l16.46,19.23c7.63,8.92,11.48,20.48,10.7,32.19l-5,75.19s1.54,38.86,6.66,44.99-9.72,11.77-30.68,15.35c-20.97,3.59-85.91,3.07-88.98-6.66-3.07-9.72,12.79-16.37,7.68-40.4l10.22-110.46,13.55-23.52,35.55-1.54,23.87-4.4h-.04Z"/>
      <polygon class="cls-14" points="274.74 431.74 299.26 340.83 372.57 344.76 345.71 434.9 274.74 431.74"/>
      <path class="cls-15" d="M253.41,390.41s35.91-9.2,45.89-7.29c9.98,1.92,14.19,8.82,12.27,10.75-1.92,1.92-6.13,1.54-6.13,1.54,0,0-1.92,18.02-8.82,20.7-6.91,2.69-58.04,11.62-58.04,11.62l-5.63-14.69,20.46-22.62h.01-.01Z"/>
      <path class="cls-10" d="M253.41,390.41l-14.85,37.34-47.61.37h-.16c-11.57,0-21.97-7.14-26.05-17.98-2.19-5.82-2.37-12.21-.49-18.17l27.92-88.83c.12-.43.28-.86.43-1.29,2.42-6.19,7.58-10.96,14.02-12.83l18.9-5.49-.21,1.41-15.9,103.41,44,2.06h-.01.02Z"/>
      <path class="cls-14" d="M262.31,311.54c-2.53,0-4.6-2.06-4.6-4.6s2.06-4.6,4.6-4.6,4.6,2.06,4.6,4.6-2.06,4.6-4.6,4.6ZM262.31,304.39c-1.41,0-2.56,1.14-2.56,2.56s1.14,2.56,2.56,2.56,2.56-1.14,2.56-2.56-1.14-2.56-2.56-2.56Z"/>
      <polygon class="cls-14" points="239.27 428.78 201.87 428.68 201.88 426.64 237.88 426.74 251.95 391.37 208.16 389.31 220.62 336.51 222.61 336.97 210.7 387.4 254.9 389.45 239.27 428.78"/>
      <polygon class="cls-7" points="325.82 337.65 324 347.93 346.5 349.26 347.95 339.22 325.82 337.65"/>
      <g>
        <polygon class="cls-11" points="305.15 396.01 299.14 393.17 290.47 394.04 290.34 392.7 299.38 391.77 305.74 394.78 305.15 396.01"/>
        <rect class="cls-11" x="299.71" y="397.58" width="1.36" height="8.13" transform="translate(-197.78 459.75) rotate(-59.86)"/>
        <rect class="cls-11" x="296.88" y="404.49" width="1.36" height="8.82" transform="translate(-206.79 445.88) rotate(-58.15)"/>
      </g>
      <g>
        <path class="cls-15" d="M352.89,410.36s-11.66-25-8.18-27.61c2.04-1.54,4.34.52,4.34.52,0,0-3.32-7.68-.77-8.96,2.57-1.28,4.34,1.54,4.34,1.54,0,0,.26-5.89,2.3-5.89s4.34,3.59,4.34,3.59c0,0-.26-4.09,2.57-4.34,2.81-.26,9.2,13.05,10.48,24.55,1.19,10.7.77,29.4-22.25,27.1l2.81-10.48v-.02h.04Z"/>
        <rect class="cls-11" x="350.48" y="382.89" width="1.36" height="12.03" transform="translate(-114.59 148.83) rotate(-20.65)"/>
        <rect class="cls-11" x="354.8" y="375.29" width="1.36" height="15.27" transform="translate(-115.72 157.18) rotate(-21.53)"/>
        <rect class="cls-11" x="361.29" y="372.42" width="1.36" height="15.26" transform="translate(-117.81 167.28) rotate(-22.48)"/>
      </g>
    </g>
    <g>
      <polygon class="cls-15" points="277.02 280.55 238.19 281.92 243.65 223.65 267.78 238.62 274.47 242.77 276.13 265.89 277.02 280.55"/>
      <path class="cls-11" d="M276.13,265.89c-17.86-3.38-27.58-24.55-27.58-24.55l19.23-2.73,6.68,4.14,1.66,23.12h.01Z"/>
      <path class="cls-15" d="M291.17,193.73s12.29,58.1-10.06,58.47c-22.35.38-44.33-13.05-44.33-13.05l.57-31.28,13.59-13.05,21.98-7.08,18.26,5.96h0v.02Z"/>
      <path class="cls-7" d="M295.14,196.5c-.79,2.1-2.21,4.07-4.21,5.04-5.66,2.64-12.46-3.43-18.33-1.28-5.82,2.16-6.35,10.43-11.03,14.51-4.41,3.81-11.13,2.83-16.81,1.41l4.03,8.2c-4.12,4.71-5.91,11.82-5.39,21.33.96,7.79-.09,15.09-3,21.6-6.73,15.06-14.46,16.65-14.46,16.65l-19.29,5.07c-6.46,1.88-11.6,6.63-14.02,12.83-1.99-2.7-3.76-5.53-5.04-8.6-2.04-5.2-2.37-11.39.54-16.18,1.82-3.02,4.88-5.33,6.32-8.59,2.83-6.46-1.3-14.82,2.68-20.68,2.19-3.23,6.16-4.58,9.72-6.13,3.54-1.56,7.32-3.92,8.07-7.7.71-3.62-1.61-7.06-3.6-10.12-2.02-3.08-3.89-6.92-2.42-10.27,2.21-5.01,9.57-4.68,13.79-8.17,3.96-3.32,4.21-9.15,5.31-14.19,1.86-8.77,7.68-17.1,16.21-19.81,9.58-3,19.88,1.52,28.09,7.27.81.58,1.67,1.18,2.64,1.44,1.88.52,3.83-.27,5.77-.66,4.41-.84,9.26.84,12.2,4.28,2.91,3.46,3.81,8.5,2.26,12.75h-.01Z"/>
      <g>
        <ellipse class="cls-15" cx="248.89" cy="223.61" rx="10.16" ry="11.46" transform="translate(-81.21 169.04) rotate(-32.55)"/>
        <path class="cls-7" d="M250.39,228.23s-.18-3.76-2.53-5.82c-1.22-1.08-2.86-1.54-4.88-1.38l-.17-2.03c2.59-.21,4.75.42,6.4,1.89,3,2.67,3.21,7.08,3.21,7.26l-2.04.09h.01Z"/>
      </g>
      <circle class="cls-6" cx="262.7" cy="227.89" r="5.04"/>
      <path class="cls-11" d="M282.74,219.13c1.29.92,2.47,1.98,3.56,3.12s2.11,2.37,2.96,3.83c.21.38.39.77.53,1.2s.27.93.2,1.56c-.04.31-.17.66-.39.93-.21.29-.5.49-.77.61s-.54.2-.77.22c-.21.02-.42.06-.61.09-1.62.16-3.19.1-4.77-.11v-.74c1.52-.27,3.07-.44,4.51-.76.18-.04.36-.09.52-.12s.26-.09.33-.12c.16-.11.11-.11.14-.26,0-.16-.02-.43-.14-.72-.1-.29-.27-.6-.42-.91-.68-1.24-1.61-2.47-2.53-3.67l-2.84-3.64.5-.53h0Z"/>
      <circle class="cls-7" cx="274.74" cy="219.25" r="1.76"/>
      <circle class="cls-7" cx="290.88" cy="218.28" r="1.76"/>
      <path class="cls-7" d="M275.17,214.66l-5.46.88c-.82.14-1.61-.43-1.76-1.27h0c-.14-.82.43-1.61,1.27-1.76l5.46-.88c.82-.14,1.61.43,1.76,1.27h0c.14.82-.43,1.61-1.27,1.76Z"/>
      <path class="cls-7" d="M292.61,214.02h-4.32c-.84,0-1.52-.69-1.52-1.52h0c0-.84.69-1.52,1.52-1.52h4.32c.84,0,1.52.69,1.52,1.52h0c0,.84-.69,1.52-1.52,1.52Z"/>
      <path class="cls-7" d="M272.13,232.52c.87.98,1.87,1.89,2.92,2.63s2.22,1.33,3.46,1.7c1.22.37,2.49.59,3.8.54.64.04,1.3-.09,1.97-.12.66-.07,1.3-.26,1.98-.33l.18.5c-.63.28-1.28.57-1.97.77-.69.16-1.38.37-2.09.39-1.43.18-2.89-.02-4.26-.44-1.38-.43-2.67-1.14-3.76-2.08s-2.02-2-2.68-3.28l.44-.28h-.01.01Z"/>
      <path class="cls-10" d="M261.09,281.99l-12.52,17.39-22.15-15.26.41-.32c6.16-4.56,10.73-10.12,13.56-16.48l20.7,14.68h0Z"/>
      <polygon class="cls-10" points="261.08 282 276.17 298.87 290.41 283.73 276.17 265.89 261.08 282"/>
      <polygon class="cls-14" points="248.79 300.79 224.96 284.39 226.11 282.7 248.3 297.97 259.66 282.25 239.31 268.24 240.48 266.54 262.53 281.76 248.79 300.79"/>
      <polygon class="cls-14" points="276.16 300.38 259.69 281.98 275.43 265.19 276.92 266.59 262.47 282.01 276.18 297.36 289.44 283.25 290.93 284.66 276.16 300.38"/>
    </g>
  </g>
  <rect class="cls-7" x="-177.11" y="878.03" width="1556.1" height="2.72"/>
</svg>